<svg width="181" height="43" viewBox="0 0 181 43" fill="none" xmlns="http://www.w3.org/2000/svg">
<rect width="181" height="43" rx="8" fill="#39965F"/>
<path d="M52.1133 21.538C52.5693 21.61 52.9833 21.796 53.3553 22.096C53.7393 22.396 54.0393 22.768 54.2553 23.212C54.4833 23.656 54.5973 24.13 54.5973 24.634C54.5973 25.27 54.4353 25.846 54.1113 26.362C53.7873 26.866 53.3133 27.268 52.6893 27.568C52.0773 27.856 51.3513 28 50.5113 28H45.8313V15.454H50.3313C51.1833 15.454 51.9093 15.598 52.5093 15.886C53.1093 16.162 53.5593 16.54 53.8593 17.02C54.1593 17.5 54.3093 18.04 54.3093 18.64C54.3093 19.384 54.1053 20.002 53.6973 20.494C53.3013 20.974 52.7733 21.322 52.1133 21.538ZM47.4693 20.872H50.2233C50.9913 20.872 51.5853 20.692 52.0053 20.332C52.4253 19.972 52.6353 19.474 52.6353 18.838C52.6353 18.202 52.4253 17.704 52.0053 17.344C51.5853 16.984 50.9793 16.804 50.1873 16.804H47.4693V20.872ZM50.3673 26.65C51.1833 26.65 51.8193 26.458 52.2753 26.074C52.7313 25.69 52.9593 25.156 52.9593 24.472C52.9593 23.776 52.7193 23.23 52.2393 22.834C51.7593 22.426 51.1173 22.222 50.3133 22.222H47.4693V26.65H50.3673ZM61.1724 28.162C60.2484 28.162 59.4084 27.952 58.6524 27.532C57.9084 27.112 57.3204 26.518 56.8884 25.75C56.4684 24.97 56.2584 24.07 56.2584 23.05C56.2584 22.042 56.4744 21.154 56.9064 20.386C57.3504 19.606 57.9504 19.012 58.7064 18.604C59.4624 18.184 60.3084 17.974 61.2444 17.974C62.1804 17.974 63.0264 18.184 63.7824 18.604C64.5384 19.012 65.1324 19.6 65.5644 20.368C66.0084 21.136 66.2304 22.03 66.2304 23.05C66.2304 24.07 66.0024 24.97 65.5464 25.75C65.1024 26.518 64.4964 27.112 63.7284 27.532C62.9604 27.952 62.1084 28.162 61.1724 28.162ZM61.1724 26.722C61.7604 26.722 62.3124 26.584 62.8284 26.308C63.3444 26.032 63.7584 25.618 64.0704 25.066C64.3944 24.514 64.5564 23.842 64.5564 23.05C64.5564 22.258 64.4004 21.586 64.0884 21.034C63.7764 20.482 63.3684 20.074 62.8644 19.81C62.3604 19.534 61.8144 19.396 61.2264 19.396C60.6264 19.396 60.0744 19.534 59.5704 19.81C59.0784 20.074 58.6824 20.482 58.3824 21.034C58.0824 21.586 57.9324 22.258 57.9324 23.05C57.9324 23.854 58.0764 24.532 58.3644 25.084C58.6644 25.636 59.0604 26.05 59.5524 26.326C60.0444 26.59 60.5844 26.722 61.1724 26.722ZM72.452 17.974C73.304 17.974 74.048 18.16 74.684 18.532C75.332 18.904 75.812 19.372 76.124 19.936V18.136H77.78V28.216C77.78 29.116 77.588 29.914 77.204 30.61C76.82 31.318 76.268 31.87 75.548 32.266C74.84 32.662 74.012 32.86 73.064 32.86C71.768 32.86 70.688 32.554 69.824 31.942C68.96 31.33 68.45 30.496 68.294 29.44H69.914C70.094 30.04 70.466 30.52 71.03 30.88C71.594 31.252 72.272 31.438 73.064 31.438C73.964 31.438 74.696 31.156 75.26 30.592C75.836 30.028 76.124 29.236 76.124 28.216V26.146C75.8 26.722 75.32 27.202 74.684 27.586C74.048 27.97 73.304 28.162 72.452 28.162C71.576 28.162 70.778 27.946 70.058 27.514C69.35 27.082 68.792 26.476 68.384 25.696C67.976 24.916 67.772 24.028 67.772 23.032C67.772 22.024 67.976 21.142 68.384 20.386C68.792 19.618 69.35 19.024 70.058 18.604C70.778 18.184 71.576 17.974 72.452 17.974ZM76.124 23.05C76.124 22.306 75.974 21.658 75.674 21.106C75.374 20.554 74.966 20.134 74.45 19.846C73.946 19.546 73.388 19.396 72.776 19.396C72.164 19.396 71.606 19.54 71.102 19.828C70.598 20.116 70.196 20.536 69.896 21.088C69.596 21.64 69.446 22.288 69.446 23.032C69.446 23.788 69.596 24.448 69.896 25.012C70.196 25.564 70.598 25.99 71.102 26.29C71.606 26.578 72.164 26.722 72.776 26.722C73.388 26.722 73.946 26.578 74.45 26.29C74.966 25.99 75.374 25.564 75.674 25.012C75.974 24.448 76.124 23.794 76.124 23.05ZM80.8001 15.454H82.6181L80.8901 19.54H79.7381L80.8001 15.454ZM86.1236 14.68V28H84.4856V14.68H86.1236ZM88.3033 23.032C88.3033 22.024 88.5073 21.142 88.9153 20.386C89.3233 19.618 89.8813 19.024 90.5893 18.604C91.3093 18.184 92.1073 17.974 92.9833 17.974C93.8473 17.974 94.5973 18.16 95.2333 18.532C95.8693 18.904 96.3433 19.372 96.6553 19.936V18.136H98.3113V28H96.6553V26.164C96.3313 26.74 95.8453 27.22 95.1973 27.604C94.5613 27.976 93.8173 28.162 92.9653 28.162C92.0893 28.162 91.2973 27.946 90.5893 27.514C89.8813 27.082 89.3233 26.476 88.9153 25.696C88.5073 24.916 88.3033 24.028 88.3033 23.032ZM96.6553 23.05C96.6553 22.306 96.5053 21.658 96.2053 21.106C95.9053 20.554 95.4973 20.134 94.9813 19.846C94.4773 19.546 93.9193 19.396 93.3073 19.396C92.6953 19.396 92.1373 19.54 91.6333 19.828C91.1293 20.116 90.7273 20.536 90.4273 21.088C90.1273 21.64 89.9773 22.288 89.9773 23.032C89.9773 23.788 90.1273 24.448 90.4273 25.012C90.7273 25.564 91.1293 25.99 91.6333 26.29C92.1373 26.578 92.6953 26.722 93.3073 26.722C93.9193 26.722 94.4773 26.578 94.9813 26.29C95.4973 25.99 95.9053 25.564 96.2053 25.012C96.5053 24.448 96.6553 23.794 96.6553 23.05ZM105.885 17.956C107.085 17.956 108.057 18.322 108.801 19.054C109.545 19.774 109.917 20.818 109.917 22.186V28H108.297V22.42C108.297 21.436 108.051 20.686 107.559 20.17C107.067 19.642 106.395 19.378 105.543 19.378C104.679 19.378 103.989 19.648 103.473 20.188C102.969 20.728 102.717 21.514 102.717 22.546V28H101.079V18.136H102.717V19.54C103.041 19.036 103.479 18.646 104.031 18.37C104.595 18.094 105.213 17.956 105.885 17.956ZM113.439 16.534C113.127 16.534 112.863 16.426 112.647 16.21C112.431 15.994 112.323 15.73 112.323 15.418C112.323 15.106 112.431 14.842 112.647 14.626C112.863 14.41 113.127 14.302 113.439 14.302C113.739 14.302 113.991 14.41 114.195 14.626C114.411 14.842 114.519 15.106 114.519 15.418C114.519 15.73 114.411 15.994 114.195 16.21C113.991 16.426 113.739 16.534 113.439 16.534ZM114.231 18.136V28H112.593V18.136H114.231ZM120.515 28.162C119.759 28.162 119.081 28.036 118.481 27.784C117.881 27.52 117.407 27.16 117.059 26.704C116.711 26.236 116.519 25.702 116.483 25.102H118.175C118.223 25.594 118.451 25.996 118.859 26.308C119.279 26.62 119.825 26.776 120.497 26.776C121.121 26.776 121.613 26.638 121.973 26.362C122.333 26.086 122.513 25.738 122.513 25.318C122.513 24.886 122.321 24.568 121.937 24.364C121.553 24.148 120.959 23.938 120.155 23.734C119.423 23.542 118.823 23.35 118.355 23.158C117.899 22.954 117.503 22.66 117.167 22.276C116.843 21.88 116.681 21.364 116.681 20.728C116.681 20.224 116.831 19.762 117.131 19.342C117.431 18.922 117.857 18.592 118.409 18.352C118.961 18.1 119.591 17.974 120.299 17.974C121.391 17.974 122.273 18.25 122.945 18.802C123.617 19.354 123.977 20.11 124.025 21.07H122.387C122.351 20.554 122.141 20.14 121.757 19.828C121.385 19.516 120.881 19.36 120.245 19.36C119.657 19.36 119.189 19.486 118.841 19.738C118.493 19.99 118.319 20.32 118.319 20.728C118.319 21.052 118.421 21.322 118.625 21.538C118.841 21.742 119.105 21.91 119.417 22.042C119.741 22.162 120.185 22.3 120.749 22.456C121.457 22.648 122.033 22.84 122.477 23.032C122.921 23.212 123.299 23.488 123.611 23.86C123.935 24.232 124.103 24.718 124.115 25.318C124.115 25.858 123.965 26.344 123.665 26.776C123.365 27.208 122.939 27.55 122.387 27.802C121.847 28.042 121.223 28.162 120.515 28.162ZM131.323 17.956C132.067 17.956 132.739 18.118 133.339 18.442C133.939 18.754 134.407 19.228 134.743 19.864C135.091 20.5 135.265 21.274 135.265 22.186V28H133.645V22.42C133.645 21.436 133.399 20.686 132.907 20.17C132.415 19.642 131.743 19.378 130.891 19.378C130.027 19.378 129.337 19.648 128.821 20.188C128.317 20.728 128.065 21.514 128.065 22.546V28H126.427V14.68H128.065V19.54C128.389 19.036 128.833 18.646 129.397 18.37C129.973 18.094 130.615 17.956 131.323 17.956Z" fill="white"/>
</svg>
