<svg width="158" height="40" viewBox="0 0 158 40" fill="none" xmlns="http://www.w3.org/2000/svg">
<rect width="158" height="40" rx="8" fill="#39965F"/>
<path d="M53.4775 14.848L49.8455 21.792V26H48.3895V21.792L44.7415 14.848H46.3575L49.1095 20.496L51.8615 14.848H53.4775ZM62.7893 17.232V26H61.3333V24.704C61.0559 25.152 60.6666 25.504 60.1653 25.76C59.6746 26.0053 59.1306 26.128 58.5333 26.128C57.8506 26.128 57.2373 25.9893 56.6933 25.712C56.1493 25.424 55.7173 24.9973 55.3973 24.432C55.0879 23.8667 54.9333 23.1787 54.9333 22.368V17.232H56.3733V22.176C56.3733 23.04 56.5919 23.7067 57.0293 24.176C57.4666 24.6347 58.0639 24.864 58.8213 24.864C59.5999 24.864 60.2133 24.624 60.6613 24.144C61.1093 23.664 61.3333 22.9653 61.3333 22.048V17.232H62.7893ZM66.7036 18.864C67.0023 18.3413 67.4396 17.9147 68.0156 17.584C68.5916 17.2533 69.2476 17.088 69.9836 17.088C70.773 17.088 71.4823 17.2747 72.1116 17.648C72.741 18.0213 73.237 18.5493 73.5996 19.232C73.9623 19.904 74.1436 20.688 74.1436 21.584C74.1436 22.4693 73.9623 23.2587 73.5996 23.952C73.237 24.6453 72.7356 25.184 72.0956 25.568C71.4663 25.952 70.7623 26.144 69.9836 26.144C69.2263 26.144 68.5596 25.9787 67.9836 25.648C67.4183 25.3173 66.9916 24.896 66.7036 24.384V26H65.2476V14.16H66.7036V18.864ZM72.6556 21.584C72.6556 20.9227 72.5223 20.3467 72.2556 19.856C71.989 19.3653 71.6263 18.992 71.1676 18.736C70.7196 18.48 70.2236 18.352 69.6796 18.352C69.1463 18.352 68.6503 18.4853 68.1916 18.752C67.7436 19.008 67.381 19.3867 67.1036 19.888C66.837 20.3787 66.7036 20.9493 66.7036 21.6C66.7036 22.2613 66.837 22.8427 67.1036 23.344C67.381 23.8347 67.7436 24.2133 68.1916 24.48C68.6503 24.736 69.1463 24.864 69.6796 24.864C70.2236 24.864 70.7196 24.736 71.1676 24.48C71.6263 24.2133 71.989 23.8347 72.2556 23.344C72.5223 22.8427 72.6556 22.256 72.6556 21.584ZM79.8841 26.144C79.0628 26.144 78.3161 25.9573 77.6441 25.584C76.9828 25.2107 76.4601 24.6827 76.0761 24C75.7028 23.3067 75.5161 22.5067 75.5161 21.6C75.5161 20.704 75.7081 19.9147 76.0921 19.232C76.4868 18.5387 77.0201 18.0107 77.6921 17.648C78.3641 17.2747 79.1161 17.088 79.9481 17.088C80.7801 17.088 81.5321 17.2747 82.2041 17.648C82.8761 18.0107 83.4041 18.5333 83.7881 19.216C84.1828 19.8987 84.3801 20.6933 84.3801 21.6C84.3801 22.5067 84.1775 23.3067 83.7721 24C83.3775 24.6827 82.8388 25.2107 82.1561 25.584C81.4735 25.9573 80.7161 26.144 79.8841 26.144ZM79.8841 24.864C80.4068 24.864 80.8975 24.7413 81.3561 24.496C81.8148 24.2507 82.1828 23.8827 82.4601 23.392C82.7481 22.9013 82.8921 22.304 82.8921 21.6C82.8921 20.896 82.7535 20.2987 82.4761 19.808C82.1988 19.3173 81.8361 18.9547 81.3881 18.72C80.9401 18.4747 80.4548 18.352 79.9321 18.352C79.3988 18.352 78.9081 18.4747 78.4601 18.72C78.0228 18.9547 77.6708 19.3173 77.4041 19.808C77.1375 20.2987 77.0041 20.896 77.0041 21.6C77.0041 22.3147 77.1321 22.9173 77.3881 23.408C77.6548 23.8987 78.0068 24.2667 78.4441 24.512C78.8815 24.7467 79.3615 24.864 79.8841 24.864ZM87.7505 18.656C88.0065 18.1547 88.3692 17.7653 88.8385 17.488C89.3185 17.2107 89.8998 17.072 90.5825 17.072V18.576H90.1985C88.5665 18.576 87.7505 19.4613 87.7505 21.232V26H86.2945V17.232H87.7505V18.656ZM93.0153 15.808C92.7379 15.808 92.5033 15.712 92.3113 15.52C92.1193 15.328 92.0233 15.0933 92.0233 14.816C92.0233 14.5387 92.1193 14.304 92.3113 14.112C92.5033 13.92 92.7379 13.824 93.0153 13.824C93.2819 13.824 93.5059 13.92 93.6873 14.112C93.8793 14.304 93.9753 14.5387 93.9753 14.816C93.9753 15.0933 93.8793 15.328 93.6873 15.52C93.5059 15.712 93.2819 15.808 93.0153 15.808ZM93.7193 17.232V26H92.2633V17.232H93.7193ZM99.3048 26.144C98.6328 26.144 98.0301 26.032 97.4968 25.808C96.9634 25.5733 96.5421 25.2533 96.2328 24.848C95.9234 24.432 95.7528 23.9573 95.7208 23.424H97.2248C97.2674 23.8613 97.4701 24.2187 97.8328 24.496C98.2061 24.7733 98.6914 24.912 99.2888 24.912C99.8434 24.912 100.281 24.7893 100.601 24.544C100.921 24.2987 101.081 23.9893 101.081 23.616C101.081 23.232 100.91 22.9493 100.569 22.768C100.227 22.576 99.6994 22.3893 98.9848 22.208C98.3341 22.0373 97.8008 21.8667 97.3848 21.696C96.9794 21.5147 96.6274 21.2533 96.3288 20.912C96.0408 20.56 95.8968 20.1013 95.8968 19.536C95.8968 19.088 96.0301 18.6773 96.2968 18.304C96.5634 17.9307 96.9421 17.6373 97.4328 17.424C97.9234 17.2 98.4834 17.088 99.1128 17.088C100.083 17.088 100.867 17.3333 101.465 17.824C102.062 18.3147 102.382 18.9867 102.425 19.84H100.969C100.937 19.3813 100.75 19.0133 100.409 18.736C100.078 18.4587 99.6301 18.32 99.0648 18.32C98.5421 18.32 98.1261 18.432 97.8168 18.656C97.5074 18.88 97.3528 19.1733 97.3528 19.536C97.3528 19.824 97.4434 20.064 97.6248 20.256C97.8168 20.4373 98.0514 20.5867 98.3288 20.704C98.6168 20.8107 99.0114 20.9333 99.5128 21.072C100.142 21.2427 100.654 21.4133 101.049 21.584C101.443 21.744 101.779 21.9893 102.057 22.32C102.345 22.6507 102.494 23.0827 102.505 23.616C102.505 24.096 102.371 24.528 102.105 24.912C101.838 25.296 101.459 25.6 100.969 25.824C100.489 26.0373 99.9341 26.144 99.3048 26.144ZM108.912 17.072C109.573 17.072 110.171 17.216 110.704 17.504C111.237 17.7813 111.653 18.2027 111.952 18.768C112.261 19.3333 112.416 20.0213 112.416 20.832V26H110.976V21.04C110.976 20.1653 110.757 19.4987 110.32 19.04C109.883 18.5707 109.285 18.336 108.528 18.336C107.76 18.336 107.147 18.576 106.688 19.056C106.24 19.536 106.016 20.2347 106.016 21.152V26H104.56V14.16H106.016V18.48C106.304 18.032 106.699 17.6853 107.2 17.44C107.712 17.1947 108.283 17.072 108.912 17.072Z" fill="white"/>
</svg>
