<svg width="259" height="62" viewBox="0 0 259 62" fill="none" xmlns="http://www.w3.org/2000/svg">
<rect width="100" height="26" rx="8" fill="white" fill-opacity="0.1"/>
<path d="M15.9415 8.636L12.7855 17H11.5255L8.36947 8.636H9.53347L12.1615 15.848L14.7895 8.636H15.9415ZM23.1388 13.46C23.1388 13.668 23.1268 13.888 23.1028 14.12H17.8468C17.8868 14.768 18.1068 15.276 18.5068 15.644C18.9148 16.004 19.4068 16.184 19.9828 16.184C20.4548 16.184 20.8468 16.076 21.1588 15.86C21.4788 15.636 21.7028 15.34 21.8308 14.972H23.0068C22.8308 15.604 22.4788 16.12 21.9508 16.52C21.4228 16.912 20.7668 17.108 19.9828 17.108C19.3588 17.108 18.7988 16.968 18.3028 16.688C17.8148 16.408 17.4308 16.012 17.1508 15.5C16.8708 14.98 16.7308 14.38 16.7308 13.7C16.7308 13.02 16.8668 12.424 17.1388 11.912C17.4108 11.4 17.7908 11.008 18.2788 10.736C18.7748 10.456 19.3428 10.316 19.9828 10.316C20.6068 10.316 21.1588 10.452 21.6388 10.724C22.1188 10.996 22.4868 11.372 22.7428 11.852C23.0068 12.324 23.1388 12.86 23.1388 13.46ZM22.0108 13.232C22.0108 12.816 21.9188 12.46 21.7348 12.164C21.5508 11.86 21.2988 11.632 20.9788 11.48C20.6668 11.32 20.3188 11.24 19.9348 11.24C19.3828 11.24 18.9108 11.416 18.5188 11.768C18.1348 12.12 17.9148 12.608 17.8588 13.232H22.0108ZM25.6723 11.648C25.8963 11.256 26.2243 10.936 26.6562 10.688C27.0883 10.44 27.5803 10.316 28.1323 10.316C28.7243 10.316 29.2563 10.456 29.7283 10.736C30.2003 11.016 30.5723 11.412 30.8443 11.924C31.1163 12.428 31.2523 13.016 31.2523 13.688C31.2523 14.352 31.1163 14.944 30.8443 15.464C30.5723 15.984 30.1962 16.388 29.7162 16.676C29.2443 16.964 28.7163 17.108 28.1323 17.108C27.5643 17.108 27.0643 16.984 26.6323 16.736C26.2083 16.488 25.8883 16.172 25.6723 15.788V17H24.5803V8.12H25.6723V11.648ZM30.1363 13.688C30.1363 13.192 30.0363 12.76 29.8363 12.392C29.6363 12.024 29.3643 11.744 29.0203 11.552C28.6843 11.36 28.3123 11.264 27.9043 11.264C27.5043 11.264 27.1323 11.364 26.7883 11.564C26.4523 11.756 26.1803 12.04 25.9723 12.416C25.7723 12.784 25.6723 13.212 25.6723 13.7C25.6723 14.196 25.7723 14.632 25.9723 15.008C26.1803 15.376 26.4523 15.66 26.7883 15.86C27.1323 16.052 27.5043 16.148 27.9043 16.148C28.3123 16.148 28.6843 16.052 29.0203 15.86C29.3643 15.66 29.6363 15.376 29.8363 15.008C30.0363 14.632 30.1363 14.192 30.1363 13.688ZM35.4808 13.688C35.4808 13.016 35.6168 12.428 35.8888 11.924C36.1608 11.412 36.5328 11.016 37.0048 10.736C37.4848 10.456 38.0208 10.316 38.6128 10.316C39.1248 10.316 39.6008 10.436 40.0408 10.676C40.4808 10.908 40.8168 11.216 41.0488 11.6V8.12H42.1528V17H41.0488V15.764C40.8328 16.156 40.5128 16.48 40.0888 16.736C39.6648 16.984 39.1688 17.108 38.6008 17.108C38.0168 17.108 37.4848 16.964 37.0048 16.676C36.5328 16.388 36.1608 15.984 35.8888 15.464C35.6168 14.944 35.4808 14.352 35.4808 13.688ZM41.0488 13.7C41.0488 13.204 40.9488 12.772 40.7488 12.404C40.5488 12.036 40.2768 11.756 39.9328 11.564C39.5968 11.364 39.2248 11.264 38.8168 11.264C38.4088 11.264 38.0368 11.36 37.7008 11.552C37.3648 11.744 37.0968 12.024 36.8968 12.392C36.6968 12.76 36.5968 13.192 36.5968 13.688C36.5968 14.192 36.6968 14.632 36.8968 15.008C37.0968 15.376 37.3648 15.66 37.7008 15.86C38.0368 16.052 38.4088 16.148 38.8168 16.148C39.2248 16.148 39.5968 16.052 39.9328 15.86C40.2768 15.66 40.5488 15.376 40.7488 15.008C40.9488 14.632 41.0488 14.196 41.0488 13.7ZM43.5902 13.688C43.5902 13.016 43.7262 12.428 43.9982 11.924C44.2702 11.412 44.6422 11.016 45.1142 10.736C45.5942 10.456 46.1262 10.316 46.7102 10.316C47.2862 10.316 47.7862 10.44 48.2102 10.688C48.6342 10.936 48.9502 11.248 49.1582 11.624V10.424H50.2622V17H49.1582V15.776C48.9422 16.16 48.6182 16.48 48.1862 16.736C47.7622 16.984 47.2662 17.108 46.6982 17.108C46.1142 17.108 45.5862 16.964 45.1142 16.676C44.6422 16.388 44.2702 15.984 43.9982 15.464C43.7262 14.944 43.5902 14.352 43.5902 13.688ZM49.1582 13.7C49.1582 13.204 49.0582 12.772 48.8582 12.404C48.6582 12.036 48.3862 11.756 48.0422 11.564C47.7062 11.364 47.3342 11.264 46.9262 11.264C46.5182 11.264 46.1462 11.36 45.8102 11.552C45.4742 11.744 45.2062 12.024 45.0062 12.392C44.8062 12.76 44.7062 13.192 44.7062 13.688C44.7062 14.192 44.8062 14.632 45.0062 15.008C45.2062 15.376 45.4742 15.66 45.8102 15.86C46.1462 16.052 46.5182 16.148 46.9262 16.148C47.3342 16.148 47.7062 16.052 48.0422 15.86C48.3862 15.66 48.6582 15.376 48.8582 15.008C49.0582 14.632 49.1582 14.196 49.1582 13.7ZM54.4356 17.108C53.9316 17.108 53.4796 17.024 53.0796 16.856C52.6796 16.68 52.3636 16.44 52.1316 16.136C51.8996 15.824 51.7716 15.468 51.7476 15.068H52.8756C52.9076 15.396 53.0596 15.664 53.3316 15.872C53.6116 16.08 53.9756 16.184 54.4236 16.184C54.8396 16.184 55.1676 16.092 55.4076 15.908C55.6476 15.724 55.7676 15.492 55.7676 15.212C55.7676 14.924 55.6396 14.712 55.3836 14.576C55.1276 14.432 54.7316 14.292 54.1956 14.156C53.7076 14.028 53.3076 13.9 52.9956 13.772C52.6916 13.636 52.4276 13.44 52.2036 13.184C51.9876 12.92 51.8796 12.576 51.8796 12.152C51.8796 11.816 51.9796 11.508 52.1796 11.228C52.3796 10.948 52.6636 10.728 53.0316 10.568C53.3996 10.4 53.8196 10.316 54.2916 10.316C55.0196 10.316 55.6076 10.5 56.0556 10.868C56.5036 11.236 56.7436 11.74 56.7756 12.38H55.6836C55.6596 12.036 55.5196 11.76 55.2636 11.552C55.0156 11.344 54.6796 11.24 54.2556 11.24C53.8636 11.24 53.5516 11.324 53.3196 11.492C53.0876 11.66 52.9716 11.88 52.9716 12.152C52.9716 12.368 53.0396 12.548 53.1756 12.692C53.3196 12.828 53.4956 12.94 53.7036 13.028C53.9196 13.108 54.2156 13.2 54.5916 13.304C55.0636 13.432 55.4476 13.56 55.7436 13.688C56.0396 13.808 56.2916 13.992 56.4996 14.24C56.7156 14.488 56.8276 14.812 56.8356 15.212C56.8356 15.572 56.7356 15.896 56.5356 16.184C56.3356 16.472 56.0516 16.7 55.6836 16.868C55.3236 17.028 54.9076 17.108 54.4356 17.108ZM59.7091 11.324V15.2C59.7091 15.52 59.7771 15.748 59.9131 15.884C60.0491 16.012 60.2851 16.076 60.6211 16.076H61.4251V17H60.4411C59.8331 17 59.3771 16.86 59.0731 16.58C58.7691 16.3 58.6171 15.84 58.6171 15.2V11.324H57.7651V10.424H58.6171V8.768H59.7091V10.424H61.4251V11.324H59.7091ZM68.5802 10.424V17H67.4882V16.028C67.2802 16.364 66.9882 16.628 66.6122 16.82C66.2442 17.004 65.8362 17.096 65.3882 17.096C64.8762 17.096 64.4162 16.992 64.0082 16.784C63.6002 16.568 63.2762 16.248 63.0362 15.824C62.8042 15.4 62.6882 14.884 62.6882 14.276V10.424H63.7682V14.132C63.7682 14.78 63.9322 15.28 64.2602 15.632C64.5882 15.976 65.0362 16.148 65.6042 16.148C66.1882 16.148 66.6482 15.968 66.9842 15.608C67.3202 15.248 67.4882 14.724 67.4882 14.036V10.424H68.5802ZM71.516 11.492C71.708 11.116 71.98 10.824 72.332 10.616C72.692 10.408 73.128 10.304 73.64 10.304V11.432H73.352C72.128 11.432 71.516 12.096 71.516 13.424V17H70.424V10.424H71.516V11.492ZM74.4926 13.7C74.4926 13.02 74.6286 12.428 74.9006 11.924C75.1726 11.412 75.5486 11.016 76.0286 10.736C76.5166 10.456 77.0726 10.316 77.6966 10.316C78.5046 10.316 79.1686 10.512 79.6886 10.904C80.2166 11.296 80.5646 11.84 80.7326 12.536H79.5566C79.4446 12.136 79.2246 11.82 78.8966 11.588C78.5766 11.356 78.1766 11.24 77.6966 11.24C77.0726 11.24 76.5686 11.456 76.1846 11.888C75.8006 12.312 75.6086 12.916 75.6086 13.7C75.6086 14.492 75.8006 15.104 76.1846 15.536C76.5686 15.968 77.0726 16.184 77.6966 16.184C78.1766 16.184 78.5766 16.072 78.8966 15.848C79.2166 15.624 79.4366 15.304 79.5566 14.888H80.7326C80.5566 15.56 80.2046 16.1 79.6766 16.508C79.1486 16.908 78.4886 17.108 77.6966 17.108C77.0726 17.108 76.5166 16.968 76.0286 16.688C75.5486 16.408 75.1726 16.012 74.9006 15.5C74.6286 14.988 74.4926 14.388 74.4926 13.7ZM85.4536 10.304C85.9496 10.304 86.3976 10.412 86.7976 10.628C87.1976 10.836 87.5096 11.152 87.7336 11.576C87.9656 12 88.0816 12.516 88.0816 13.124V17H87.0016V13.28C87.0016 12.624 86.8376 12.124 86.5096 11.78C86.1816 11.428 85.7336 11.252 85.1656 11.252C84.5896 11.252 84.1296 11.432 83.7856 11.792C83.4496 12.152 83.2816 12.676 83.2816 13.364V17H82.1896V8.12H83.2816V11.36C83.4976 11.024 83.7936 10.764 84.1696 10.58C84.5536 10.396 84.9816 10.304 85.4536 10.304ZM90.4294 9.356C90.2214 9.356 90.0454 9.284 89.9014 9.14C89.7574 8.996 89.6854 8.82 89.6854 8.612C89.6854 8.404 89.7574 8.228 89.9014 8.084C90.0454 7.94 90.2214 7.868 90.4294 7.868C90.6294 7.868 90.7974 7.94 90.9334 8.084C91.0774 8.228 91.1494 8.404 91.1494 8.612C91.1494 8.82 91.0774 8.996 90.9334 9.14C90.7974 9.284 90.6294 9.356 90.4294 9.356ZM90.9574 10.424V17H89.8654V10.424H90.9574Z" fill="white"/>
<rect x="110" width="55" height="26" rx="8" fill="white" fill-opacity="0.1"/>
<path d="M123.208 17.084C122.432 17.084 121.724 16.904 121.084 16.544C120.444 16.176 119.936 15.668 119.56 15.02C119.192 14.364 119.008 13.628 119.008 12.812C119.008 11.996 119.192 11.264 119.56 10.616C119.936 9.96 120.444 9.452 121.084 9.092C121.724 8.724 122.432 8.54 123.208 8.54C123.992 8.54 124.704 8.724 125.344 9.092C125.984 9.452 126.488 9.956 126.856 10.604C127.224 11.252 127.408 11.988 127.408 12.812C127.408 13.636 127.224 14.372 126.856 15.02C126.488 15.668 125.984 16.176 125.344 16.544C124.704 16.904 123.992 17.084 123.208 17.084ZM123.208 16.136C123.792 16.136 124.316 16 124.78 15.728C125.252 15.456 125.62 15.068 125.884 14.564C126.156 14.06 126.292 13.476 126.292 12.812C126.292 12.14 126.156 11.556 125.884 11.06C125.62 10.556 125.256 10.168 124.792 9.896C124.328 9.624 123.8 9.488 123.208 9.488C122.616 9.488 122.088 9.624 121.624 9.896C121.16 10.168 120.792 10.556 120.52 11.06C120.256 11.556 120.124 12.14 120.124 12.812C120.124 13.476 120.256 14.06 120.52 14.564C120.792 15.068 121.16 15.456 121.624 15.728C122.096 16 122.624 16.136 123.208 16.136ZM128.442 13.688C128.442 13.016 128.578 12.428 128.85 11.924C129.122 11.412 129.494 11.016 129.966 10.736C130.446 10.456 130.982 10.316 131.574 10.316C132.086 10.316 132.562 10.436 133.002 10.676C133.442 10.908 133.778 11.216 134.01 11.6V8.12H135.114V17H134.01V15.764C133.794 16.156 133.474 16.48 133.05 16.736C132.626 16.984 132.13 17.108 131.562 17.108C130.978 17.108 130.446 16.964 129.966 16.676C129.494 16.388 129.122 15.984 128.85 15.464C128.578 14.944 128.442 14.352 128.442 13.688ZM134.01 13.7C134.01 13.204 133.91 12.772 133.71 12.404C133.51 12.036 133.238 11.756 132.894 11.564C132.558 11.364 132.186 11.264 131.778 11.264C131.37 11.264 130.998 11.36 130.662 11.552C130.326 11.744 130.058 12.024 129.858 12.392C129.658 12.76 129.558 13.192 129.558 13.688C129.558 14.192 129.658 14.632 129.858 15.008C130.058 15.376 130.326 15.66 130.662 15.86C130.998 16.052 131.37 16.148 131.778 16.148C132.186 16.148 132.558 16.052 132.894 15.86C133.238 15.66 133.51 15.376 133.71 15.008C133.91 14.632 134.01 14.196 134.01 13.7ZM136.551 13.688C136.551 13.016 136.687 12.428 136.959 11.924C137.231 11.412 137.603 11.016 138.075 10.736C138.555 10.456 139.087 10.316 139.671 10.316C140.247 10.316 140.747 10.44 141.171 10.688C141.595 10.936 141.911 11.248 142.119 11.624V10.424H143.223V17H142.119V15.776C141.903 16.16 141.579 16.48 141.147 16.736C140.723 16.984 140.227 17.108 139.659 17.108C139.075 17.108 138.547 16.964 138.075 16.676C137.603 16.388 137.231 15.984 136.959 15.464C136.687 14.944 136.551 14.352 136.551 13.688ZM142.119 13.7C142.119 13.204 142.019 12.772 141.819 12.404C141.619 12.036 141.347 11.756 141.003 11.564C140.667 11.364 140.295 11.264 139.887 11.264C139.479 11.264 139.107 11.36 138.771 11.552C138.435 11.744 138.167 12.024 137.967 12.392C137.767 12.76 137.667 13.192 137.667 13.688C137.667 14.192 137.767 14.632 137.967 15.008C138.167 15.376 138.435 15.66 138.771 15.86C139.107 16.052 139.479 16.148 139.887 16.148C140.295 16.148 140.667 16.052 141.003 15.86C141.347 15.66 141.619 15.376 141.819 15.008C142.019 14.632 142.119 14.196 142.119 13.7ZM152.977 10.304C153.489 10.304 153.945 10.412 154.345 10.628C154.745 10.836 155.061 11.152 155.293 11.576C155.525 12 155.641 12.516 155.641 13.124V17H154.561V13.28C154.561 12.624 154.397 12.124 154.069 11.78C153.749 11.428 153.313 11.252 152.761 11.252C152.193 11.252 151.741 11.436 151.405 11.804C151.069 12.164 150.901 12.688 150.901 13.376V17H149.821V13.28C149.821 12.624 149.657 12.124 149.329 11.78C149.009 11.428 148.573 11.252 148.021 11.252C147.453 11.252 147.001 11.436 146.665 11.804C146.329 12.164 146.161 12.688 146.161 13.376V17H145.069V10.424H146.161V11.372C146.377 11.028 146.665 10.764 147.025 10.58C147.393 10.396 147.797 10.304 148.237 10.304C148.789 10.304 149.277 10.428 149.701 10.676C150.125 10.924 150.441 11.288 150.649 11.768C150.833 11.304 151.137 10.944 151.561 10.688C151.985 10.432 152.457 10.304 152.977 10.304Z" fill="white"/>
<rect x="175" width="68" height="26" rx="8" fill="white" fill-opacity="0.1"/>
<path d="M186.846 8.636C187.758 8.636 188.546 8.808 189.21 9.152C189.882 9.488 190.394 9.972 190.746 10.604C191.106 11.236 191.286 11.98 191.286 12.836C191.286 13.692 191.106 14.436 190.746 15.068C190.394 15.692 189.882 16.172 189.21 16.508C188.546 16.836 187.758 17 186.846 17H184.242V8.636H186.846ZM186.846 16.1C187.926 16.1 188.75 15.816 189.318 15.248C189.886 14.672 190.17 13.868 190.17 12.836C190.17 11.796 189.882 10.984 189.306 10.4C188.738 9.816 187.918 9.524 186.846 9.524H185.334V16.1H186.846ZM193.291 9.356C193.083 9.356 192.907 9.284 192.763 9.14C192.619 8.996 192.547 8.82 192.547 8.612C192.547 8.404 192.619 8.228 192.763 8.084C192.907 7.94 193.083 7.868 193.291 7.868C193.491 7.868 193.659 7.94 193.795 8.084C193.939 8.228 194.011 8.404 194.011 8.612C194.011 8.82 193.939 8.996 193.795 9.14C193.659 9.284 193.491 9.356 193.291 9.356ZM193.819 10.424V17H192.727V10.424H193.819ZM196.496 16.1H199.724V17H195.248V16.1L198.44 11.312H195.272V10.424H199.7V11.312L196.496 16.1ZM200.733 13.688C200.733 13.016 200.869 12.428 201.141 11.924C201.413 11.412 201.785 11.016 202.257 10.736C202.737 10.456 203.269 10.316 203.853 10.316C204.429 10.316 204.929 10.44 205.353 10.688C205.777 10.936 206.093 11.248 206.301 11.624V10.424H207.405V17H206.301V15.776C206.085 16.16 205.761 16.48 205.329 16.736C204.905 16.984 204.409 17.108 203.841 17.108C203.257 17.108 202.729 16.964 202.257 16.676C201.785 16.388 201.413 15.984 201.141 15.464C200.869 14.944 200.733 14.352 200.733 13.688ZM206.301 13.7C206.301 13.204 206.201 12.772 206.001 12.404C205.801 12.036 205.529 11.756 205.185 11.564C204.849 11.364 204.477 11.264 204.069 11.264C203.661 11.264 203.289 11.36 202.953 11.552C202.617 11.744 202.349 12.024 202.149 12.392C201.949 12.76 201.849 13.192 201.849 13.688C201.849 14.192 201.949 14.632 202.149 15.008C202.349 15.376 202.617 15.66 202.953 15.86C203.289 16.052 203.661 16.148 204.069 16.148C204.477 16.148 204.849 16.052 205.185 15.86C205.529 15.66 205.801 15.376 206.001 15.008C206.201 14.632 206.301 14.196 206.301 13.7ZM214.914 10.424L210.954 20.096H209.826L211.122 16.928L208.47 10.424H209.682L211.746 15.752L213.786 10.424H214.914ZM219.216 10.304C220.016 10.304 220.664 10.548 221.16 11.036C221.656 11.516 221.904 12.212 221.904 13.124V17H220.824V13.28C220.824 12.624 220.66 12.124 220.332 11.78C220.004 11.428 219.556 11.252 218.988 11.252C218.412 11.252 217.952 11.432 217.608 11.792C217.272 12.152 217.104 12.676 217.104 13.364V17H216.012V10.424H217.104V11.36C217.32 11.024 217.612 10.764 217.98 10.58C218.356 10.396 218.768 10.304 219.216 10.304ZM229.688 13.46C229.688 13.668 229.676 13.888 229.652 14.12H224.396C224.436 14.768 224.656 15.276 225.056 15.644C225.464 16.004 225.956 16.184 226.532 16.184C227.004 16.184 227.396 16.076 227.708 15.86C228.028 15.636 228.252 15.34 228.38 14.972H229.556C229.38 15.604 229.028 16.12 228.5 16.52C227.972 16.912 227.316 17.108 226.532 17.108C225.908 17.108 225.348 16.968 224.852 16.688C224.364 16.408 223.98 16.012 223.7 15.5C223.42 14.98 223.28 14.38 223.28 13.7C223.28 13.02 223.416 12.424 223.688 11.912C223.96 11.4 224.34 11.008 224.828 10.736C225.324 10.456 225.892 10.316 226.532 10.316C227.156 10.316 227.708 10.452 228.188 10.724C228.668 10.996 229.036 11.372 229.292 11.852C229.556 12.324 229.688 12.86 229.688 13.46ZM228.56 13.232C228.56 12.816 228.468 12.46 228.284 12.164C228.1 11.86 227.848 11.632 227.528 11.48C227.216 11.32 226.868 11.24 226.484 11.24C225.932 11.24 225.46 11.416 225.068 11.768C224.684 12.12 224.464 12.608 224.408 13.232H228.56ZM232.221 11.492C232.413 11.116 232.685 10.824 233.037 10.616C233.397 10.408 233.833 10.304 234.345 10.304V11.432H234.057C232.833 11.432 232.221 12.096 232.221 13.424V17H231.129V10.424H232.221V11.492Z" fill="white"/>
<rect y="36" width="53" height="26" rx="8" fill="white" fill-opacity="0.1"/>
<path d="M13.2258 44.636V50.816C13.2258 51.504 13.0138 52.056 12.5898 52.472C12.1658 52.88 11.6058 53.084 10.9098 53.084C10.2058 53.084 9.64184 52.876 9.21784 52.46C8.79384 52.036 8.58184 51.46 8.58184 50.732H9.67384C9.68184 51.14 9.78584 51.472 9.98584 51.728C10.1938 51.984 10.5018 52.112 10.9098 52.112C11.3178 52.112 11.6218 51.992 11.8218 51.752C12.0218 51.504 12.1218 51.192 12.1218 50.816V44.636H13.2258ZM21.2091 46.424V53H20.1171V52.028C19.9091 52.364 19.6171 52.628 19.2411 52.82C18.8731 53.004 18.4651 53.096 18.0171 53.096C17.5051 53.096 17.0451 52.992 16.6371 52.784C16.2291 52.568 15.9051 52.248 15.6651 51.824C15.4331 51.4 15.3171 50.884 15.3171 50.276V46.424H16.3971V50.132C16.3971 50.78 16.5611 51.28 16.8891 51.632C17.2171 51.976 17.6651 52.148 18.2331 52.148C18.8171 52.148 19.2771 51.968 19.6131 51.608C19.9491 51.248 20.1171 50.724 20.1171 50.036V46.424H21.2091ZM26.2569 46.304C27.0569 46.304 27.7049 46.548 28.2009 47.036C28.6969 47.516 28.9449 48.212 28.9449 49.124V53H27.8649V49.28C27.8649 48.624 27.7009 48.124 27.3729 47.78C27.0449 47.428 26.5969 47.252 26.0289 47.252C25.4529 47.252 24.9929 47.432 24.6489 47.792C24.3129 48.152 24.1449 48.676 24.1449 49.364V53H23.0529V46.424H24.1449V47.36C24.3609 47.024 24.6529 46.764 25.0209 46.58C25.3969 46.396 25.8089 46.304 26.2569 46.304ZM31.2927 45.356C31.0847 45.356 30.9087 45.284 30.7647 45.14C30.6207 44.996 30.5487 44.82 30.5487 44.612C30.5487 44.404 30.6207 44.228 30.7647 44.084C30.9087 43.94 31.0847 43.868 31.2927 43.868C31.4927 43.868 31.6607 43.94 31.7967 44.084C31.9407 44.228 32.0127 44.404 32.0127 44.612C32.0127 44.82 31.9407 44.996 31.7967 45.14C31.6607 45.284 31.4927 45.356 31.2927 45.356ZM31.8207 46.424V53H30.7287V46.424H31.8207ZM36.5498 53.108C35.9338 53.108 35.3738 52.968 34.8698 52.688C34.3738 52.408 33.9818 52.012 33.6938 51.5C33.4138 50.98 33.2738 50.38 33.2738 49.7C33.2738 49.028 33.4178 48.436 33.7058 47.924C34.0018 47.404 34.4018 47.008 34.9058 46.736C35.4098 46.456 35.9738 46.316 36.5978 46.316C37.2218 46.316 37.7858 46.456 38.2898 46.736C38.7938 47.008 39.1898 47.4 39.4778 47.912C39.7738 48.424 39.9218 49.02 39.9218 49.7C39.9218 50.38 39.7698 50.98 39.4658 51.5C39.1698 52.012 38.7658 52.408 38.2538 52.688C37.7418 52.968 37.1738 53.108 36.5498 53.108ZM36.5498 52.148C36.9418 52.148 37.3098 52.056 37.6538 51.872C37.9978 51.688 38.2738 51.412 38.4818 51.044C38.6978 50.676 38.8058 50.228 38.8058 49.7C38.8058 49.172 38.7018 48.724 38.4938 48.356C38.2858 47.988 38.0138 47.716 37.6778 47.54C37.3418 47.356 36.9778 47.264 36.5858 47.264C36.1858 47.264 35.8178 47.356 35.4818 47.54C35.1538 47.716 34.8898 47.988 34.6898 48.356C34.4898 48.724 34.3898 49.172 34.3898 49.7C34.3898 50.236 34.4858 50.688 34.6778 51.056C34.8778 51.424 35.1418 51.7 35.4698 51.884C35.7978 52.06 36.1578 52.148 36.5498 52.148ZM42.4496 47.492C42.6416 47.116 42.9136 46.824 43.2656 46.616C43.6256 46.408 44.0616 46.304 44.5736 46.304V47.432H44.2856C43.0616 47.432 42.4496 48.096 42.4496 49.424V53H41.3576V46.424H42.4496V47.492Z" fill="white"/>
<rect x="63" y="36" width="52" height="26" rx="8" fill="white" fill-opacity="0.1"/>
<path d="M78.6816 53H77.5896L73.1976 46.34V53H72.1056V44.624H73.1976L77.5896 51.272V44.624H78.6816V53ZM80.0751 45.32V44.324H82.3311V53H81.2271V45.32H80.0751ZM88.6781 47.648C88.9021 47.256 89.2301 46.936 89.6621 46.688C90.0941 46.44 90.5861 46.316 91.1381 46.316C91.7301 46.316 92.2621 46.456 92.7341 46.736C93.2061 47.016 93.5781 47.412 93.8501 47.924C94.1221 48.428 94.2581 49.016 94.2581 49.688C94.2581 50.352 94.1221 50.944 93.8501 51.464C93.5781 51.984 93.2021 52.388 92.7221 52.676C92.2501 52.964 91.7221 53.108 91.1381 53.108C90.5701 53.108 90.0701 52.984 89.6381 52.736C89.2141 52.488 88.8941 52.172 88.6781 51.788V53H87.5861V44.12H88.6781V47.648ZM93.1421 49.688C93.1421 49.192 93.0421 48.76 92.8421 48.392C92.6421 48.024 92.3701 47.744 92.0261 47.552C91.6901 47.36 91.3181 47.264 90.9101 47.264C90.5101 47.264 90.1381 47.364 89.7941 47.564C89.4581 47.756 89.1861 48.04 88.9781 48.416C88.7781 48.784 88.6781 49.212 88.6781 49.7C88.6781 50.196 88.7781 50.632 88.9781 51.008C89.1861 51.376 89.4581 51.66 89.7941 51.86C90.1381 52.052 90.5101 52.148 90.9101 52.148C91.3181 52.148 91.6901 52.052 92.0261 51.86C92.3701 51.66 92.6421 51.376 92.8421 51.008C93.0421 50.632 93.1421 50.192 93.1421 49.688ZM98.5635 53.108C97.9475 53.108 97.3875 52.968 96.8835 52.688C96.3875 52.408 95.9955 52.012 95.7075 51.5C95.4275 50.98 95.2875 50.38 95.2875 49.7C95.2875 49.028 95.4315 48.436 95.7195 47.924C96.0155 47.404 96.4155 47.008 96.9195 46.736C97.4235 46.456 97.9875 46.316 98.6115 46.316C99.2355 46.316 99.7995 46.456 100.303 46.736C100.807 47.008 101.203 47.4 101.491 47.912C101.787 48.424 101.935 49.02 101.935 49.7C101.935 50.38 101.783 50.98 101.479 51.5C101.183 52.012 100.779 52.408 100.267 52.688C99.7555 52.968 99.1875 53.108 98.5635 53.108ZM98.5635 52.148C98.9555 52.148 99.3235 52.056 99.6675 51.872C100.011 51.688 100.287 51.412 100.495 51.044C100.711 50.676 100.819 50.228 100.819 49.7C100.819 49.172 100.715 48.724 100.507 48.356C100.299 47.988 100.027 47.716 99.6915 47.54C99.3555 47.356 98.9915 47.264 98.5995 47.264C98.1995 47.264 97.8315 47.356 97.4955 47.54C97.1675 47.716 96.9035 47.988 96.7035 48.356C96.5035 48.724 96.4035 49.172 96.4035 49.7C96.4035 50.236 96.4995 50.688 96.6915 51.056C96.8915 51.424 97.1555 51.7 97.4835 51.884C97.8115 52.06 98.1715 52.148 98.5635 52.148ZM104.703 47.324V51.2C104.703 51.52 104.771 51.748 104.907 51.884C105.043 52.012 105.279 52.076 105.615 52.076H106.419V53H105.435C104.827 53 104.371 52.86 104.067 52.58C103.763 52.3 103.611 51.84 103.611 51.2V47.324H102.759V46.424H103.611V44.768H104.703V46.424H106.419V47.324H104.703Z" fill="white"/>
</svg>
