<svg width="444" height="30" viewBox="0 0 444 30" fill="none" xmlns="http://www.w3.org/2000/svg">
<g clip-path="url(#clip0_40_6087)">
<path d="M7.86 22.14C6.55333 22.14 5.35333 21.8333 4.26 21.22C3.16667 20.6067 2.3 19.76 1.66 18.68C1.02 17.5867 0.7 16.3533 0.7 14.98C0.7 13.62 1.02 12.4 1.66 11.32C2.3 10.2267 3.16667 9.37333 4.26 8.76C5.35333 8.14667 6.55333 7.84 7.86 7.84C9.18 7.84 10.38 8.14667 11.46 8.76C12.5533 9.37333 13.4133 10.2267 14.04 11.32C14.68 12.4 15 13.62 15 14.98C15 16.3533 14.68 17.5867 14.04 18.68C13.4133 19.76 12.5533 20.6067 11.46 21.22C10.3667 21.8333 9.16667 22.14 7.86 22.14ZM7.86 19.64C8.7 19.64 9.44 19.4533 10.08 19.08C10.72 18.6933 11.22 18.1467 11.58 17.44C11.94 16.7333 12.12 15.9133 12.12 14.98C12.12 14.0467 11.94 13.2333 11.58 12.54C11.22 11.8333 10.72 11.2933 10.08 10.92C9.44 10.5467 8.7 10.36 7.86 10.36C7.02 10.36 6.27333 10.5467 5.62 10.92C4.98 11.2933 4.48 11.8333 4.12 12.54C3.76 13.2333 3.58 14.0467 3.58 14.98C3.58 15.9133 3.76 16.7333 4.12 17.44C4.48 18.1467 4.98 18.6933 5.62 19.08C6.27333 19.4533 7.02 19.64 7.86 19.64ZM22.1631 13.22H20.2231V22H17.3831V13.22H16.1231V10.92H17.3831V10.36C17.3831 9 17.7698 8 18.5431 7.36C19.3165 6.72 20.4831 6.42 22.0431 6.46V8.82C21.3631 8.80667 20.8898 8.92 20.6231 9.16C20.3565 9.4 20.2231 9.83333 20.2231 10.46V10.92H22.1631V13.22ZM25.3977 9.6C24.9043 9.6 24.491 9.44667 24.1577 9.14C23.8377 8.82 23.6777 8.42667 23.6777 7.96C23.6777 7.49333 23.8377 7.10667 24.1577 6.8C24.491 6.48 24.9043 6.32 25.3977 6.32C25.891 6.32 26.2977 6.48 26.6177 6.8C26.951 7.10667 27.1177 7.49333 27.1177 7.96C27.1177 8.42667 26.951 8.82 26.6177 9.14C26.2977 9.44667 25.891 9.6 25.3977 9.6ZM26.7777 10.92V22H23.9777V10.92H26.7777ZM33.7841 22.18C32.8774 22.18 32.0641 22.02 31.3441 21.7C30.6241 21.3667 30.0507 20.92 29.6241 20.36C29.2107 19.8 28.9841 19.18 28.9441 18.5H31.7641C31.8174 18.9267 32.0241 19.28 32.3841 19.56C32.7574 19.84 33.2174 19.98 33.7641 19.98C34.2974 19.98 34.7107 19.8733 35.0041 19.66C35.3107 19.4467 35.4641 19.1733 35.4641 18.84C35.4641 18.48 35.2774 18.2133 34.9041 18.04C34.5441 17.8533 33.9641 17.6533 33.1641 17.44C32.3374 17.24 31.6574 17.0333 31.1241 16.82C30.6041 16.6067 30.1507 16.28 29.7641 15.84C29.3907 15.4 29.2041 14.8067 29.2041 14.06C29.2041 13.4467 29.3774 12.8867 29.7241 12.38C30.0841 11.8733 30.5907 11.4733 31.2441 11.18C31.9107 10.8867 32.6907 10.74 33.5841 10.74C34.9041 10.74 35.9574 11.0733 36.7441 11.74C37.5307 12.3933 37.9641 13.28 38.0441 14.4H35.3641C35.3241 13.96 35.1374 13.6133 34.8041 13.36C34.4841 13.0933 34.0507 12.96 33.5041 12.96C32.9974 12.96 32.6041 13.0533 32.3241 13.24C32.0574 13.4267 31.9241 13.6867 31.9241 14.02C31.9241 14.3933 32.1107 14.68 32.4841 14.88C32.8574 15.0667 33.4374 15.26 34.2241 15.46C35.0241 15.66 35.6841 15.8667 36.2041 16.08C36.7241 16.2933 37.1707 16.6267 37.5441 17.08C37.9307 17.52 38.1307 18.1067 38.1441 18.84C38.1441 19.48 37.9641 20.0533 37.6041 20.56C37.2574 21.0667 36.7507 21.4667 36.0841 21.76C35.4307 22.04 34.6641 22.18 33.7841 22.18ZM58.9681 10.76C60.3281 10.76 61.4215 11.18 62.2481 12.02C63.0881 12.8467 63.5081 14.0067 63.5081 15.5V22H60.7081V15.88C60.7081 15.0133 60.4881 14.3533 60.0481 13.9C59.6081 13.4333 59.0081 13.2 58.2481 13.2C57.4881 13.2 56.8815 13.4333 56.4281 13.9C55.9881 14.3533 55.7681 15.0133 55.7681 15.88V22H52.9681V15.88C52.9681 15.0133 52.7481 14.3533 52.3081 13.9C51.8681 13.4333 51.2681 13.2 50.5081 13.2C49.7348 13.2 49.1215 13.4333 48.6681 13.9C48.2281 14.3533 48.0081 15.0133 48.0081 15.88V22H45.2081V10.92H48.0081V12.26C48.3681 11.7933 48.8281 11.4267 49.3881 11.16C49.9615 10.8933 50.5881 10.76 51.2681 10.76C52.1348 10.76 52.9081 10.9467 53.5881 11.32C54.2681 11.68 54.7948 12.2 55.1681 12.88C55.5281 12.24 56.0481 11.7267 56.7281 11.34C57.4215 10.9533 58.1681 10.76 58.9681 10.76ZM76.4652 16.22C76.4652 16.62 76.4385 16.98 76.3852 17.3H68.2852C68.3518 18.1 68.6318 18.7267 69.1252 19.18C69.6185 19.6333 70.2252 19.86 70.9452 19.86C71.9852 19.86 72.7252 19.4133 73.1652 18.52H76.1852C75.8652 19.5867 75.2518 20.4667 74.3452 21.16C73.4385 21.84 72.3252 22.18 71.0052 22.18C69.9385 22.18 68.9785 21.9467 68.1252 21.48C67.2852 21 66.6252 20.3267 66.1452 19.46C65.6785 18.5933 65.4452 17.5933 65.4452 16.46C65.4452 15.3133 65.6785 14.3067 66.1452 13.44C66.6118 12.5733 67.2652 11.9067 68.1052 11.44C68.9452 10.9733 69.9118 10.74 71.0052 10.74C72.0585 10.74 72.9985 10.9667 73.8252 11.42C74.6652 11.8733 75.3118 12.52 75.7652 13.36C76.2318 14.1867 76.4652 15.14 76.4652 16.22ZM73.5652 15.42C73.5518 14.7 73.2918 14.1267 72.7852 13.7C72.2785 13.26 71.6585 13.04 70.9252 13.04C70.2318 13.04 69.6452 13.2533 69.1652 13.68C68.6985 14.0933 68.4118 14.6733 68.3052 15.42H73.5652ZM81.3089 12.54C81.6689 12.0067 82.1622 11.5733 82.7889 11.24C83.4289 10.9067 84.1556 10.74 84.9689 10.74C85.9156 10.74 86.7689 10.9733 87.5289 11.44C88.3022 11.9067 88.9089 12.5733 89.3489 13.44C89.8022 14.2933 90.0289 15.2867 90.0289 16.42C90.0289 17.5533 89.8022 18.56 89.3489 19.44C88.9089 20.3067 88.3022 20.98 87.5289 21.46C86.7689 21.94 85.9156 22.18 84.9689 22.18C84.1422 22.18 83.4156 22.02 82.7889 21.7C82.1756 21.3667 81.6822 20.94 81.3089 20.42V22H78.5089V7.2H81.3089V12.54ZM87.1689 16.42C87.1689 15.7533 87.0289 15.18 86.7489 14.7C86.4822 14.2067 86.1222 13.8333 85.6689 13.58C85.2289 13.3267 84.7489 13.2 84.2289 13.2C83.7222 13.2 83.2422 13.3333 82.7889 13.6C82.3489 13.8533 81.9889 14.2267 81.7089 14.72C81.4422 15.2133 81.3089 15.7933 81.3089 16.46C81.3089 17.1267 81.4422 17.7067 81.7089 18.2C81.9889 18.6933 82.3489 19.0733 82.7889 19.34C83.2422 19.5933 83.7222 19.72 84.2289 19.72C84.7489 19.72 85.2289 19.5867 85.6689 19.32C86.1222 19.0533 86.4822 18.6733 86.7489 18.18C87.0289 17.6867 87.1689 17.1 87.1689 16.42ZM94.8636 7.2V22H92.0636V7.2H94.8636ZM100.43 7.2V22H97.63V7.2H100.43ZM102.476 16.42C102.476 15.3 102.696 14.3067 103.136 13.44C103.59 12.5733 104.196 11.9067 104.956 11.44C105.73 10.9733 106.59 10.74 107.536 10.74C108.363 10.74 109.083 10.9067 109.696 11.24C110.323 11.5733 110.823 11.9933 111.196 12.5V10.92H114.016V22H111.196V20.38C110.836 20.9 110.336 21.3333 109.696 21.68C109.07 22.0133 108.343 22.18 107.516 22.18C106.583 22.18 105.73 21.94 104.956 21.46C104.196 20.98 103.59 20.3067 103.136 19.44C102.696 18.56 102.476 17.5533 102.476 16.42ZM111.196 16.46C111.196 15.78 111.063 15.2 110.796 14.72C110.53 14.2267 110.17 13.8533 109.716 13.6C109.263 13.3333 108.776 13.2 108.256 13.2C107.736 13.2 107.256 13.3267 106.816 13.58C106.376 13.8333 106.016 14.2067 105.736 14.7C105.47 15.18 105.336 15.7533 105.336 16.42C105.336 17.0867 105.47 17.6733 105.736 18.18C106.016 18.6733 106.376 19.0533 106.816 19.32C107.27 19.5867 107.75 19.72 108.256 19.72C108.776 19.72 109.263 19.5933 109.716 19.34C110.17 19.0733 110.53 18.7 110.796 18.22C111.063 17.7267 111.196 17.14 111.196 16.46ZM119.551 12.64C119.911 12.0533 120.378 11.5933 120.951 11.26C121.538 10.9267 122.204 10.76 122.951 10.76V13.7H122.211C121.331 13.7 120.664 13.9067 120.211 14.32C119.771 14.7333 119.551 15.4533 119.551 16.48V22H116.751V10.92H119.551V12.64ZM126.257 9.6C125.764 9.6 125.35 9.44667 125.017 9.14C124.697 8.82 124.537 8.42667 124.537 7.96C124.537 7.49333 124.697 7.10667 125.017 6.8C125.35 6.48 125.764 6.32 126.257 6.32C126.75 6.32 127.157 6.48 127.477 6.8C127.81 7.10667 127.977 7.49333 127.977 7.96C127.977 8.42667 127.81 8.82 127.477 9.14C127.157 9.44667 126.75 9.6 126.257 9.6ZM127.637 10.92V22H124.837V10.92H127.637Z" fill="white"/>
<g clip-path="url(#clip1_40_6087)">
<path d="M384.04 6.848L380.408 13.792V18H378.952V13.792L375.304 6.848H376.92L379.672 12.496L382.424 6.848H384.04ZM393.352 9.232V18H391.896V16.704C391.618 17.152 391.229 17.504 390.728 17.76C390.237 18.0053 389.693 18.128 389.096 18.128C388.413 18.128 387.8 17.9893 387.256 17.712C386.712 17.424 386.28 16.9973 385.96 16.432C385.65 15.8667 385.496 15.1787 385.496 14.368V9.232H386.936V14.176C386.936 15.04 387.154 15.7067 387.592 16.176C388.029 16.6347 388.626 16.864 389.384 16.864C390.162 16.864 390.776 16.624 391.224 16.144C391.672 15.664 391.896 14.9653 391.896 14.048V9.232H393.352ZM395.266 13.584C395.266 12.688 395.447 11.904 395.81 11.232C396.173 10.5493 396.669 10.0213 397.298 9.648C397.938 9.27467 398.653 9.088 399.442 9.088C400.199 9.088 400.861 9.25867 401.426 9.6C402.002 9.93067 402.423 10.3413 402.69 10.832V9.232H404.162V22.16H402.69V16.384C402.413 16.8747 401.986 17.2907 401.41 17.632C400.834 17.9733 400.162 18.144 399.394 18.144C398.626 18.144 397.927 17.952 397.298 17.568C396.669 17.184 396.173 16.6453 395.81 15.952C395.447 15.2587 395.266 14.4693 395.266 13.584ZM402.69 13.6C402.69 12.9387 402.557 12.3627 402.29 11.872C402.023 11.3813 401.661 11.008 401.202 10.752C400.754 10.4853 400.258 10.352 399.714 10.352C399.17 10.352 398.674 10.48 398.226 10.736C397.778 10.992 397.421 11.3653 397.154 11.856C396.887 12.3467 396.754 12.9227 396.754 13.584C396.754 14.256 396.887 14.8427 397.154 15.344C397.421 15.8347 397.778 16.2133 398.226 16.48C398.674 16.736 399.17 16.864 399.714 16.864C400.258 16.864 400.754 16.736 401.202 16.48C401.661 16.2133 402.023 15.8347 402.29 15.344C402.557 14.8427 402.69 14.2613 402.69 13.6ZM410.447 18.144C409.625 18.144 408.879 17.9573 408.207 17.584C407.545 17.2107 407.023 16.6827 406.639 16C406.265 15.3067 406.079 14.5067 406.079 13.6C406.079 12.704 406.271 11.9147 406.655 11.232C407.049 10.5387 407.583 10.0107 408.255 9.648C408.927 9.27467 409.679 9.088 410.511 9.088C411.343 9.088 412.095 9.27467 412.767 9.648C413.439 10.0107 413.967 10.5333 414.351 11.216C414.745 11.8987 414.943 12.6933 414.943 13.6C414.943 14.5067 414.74 15.3067 414.335 16C413.94 16.6827 413.401 17.2107 412.719 17.584C412.036 17.9573 411.279 18.144 410.447 18.144ZM410.447 16.864C410.969 16.864 411.46 16.7413 411.919 16.496C412.377 16.2507 412.745 15.8827 413.023 15.392C413.311 14.9013 413.455 14.304 413.455 13.6C413.455 12.896 413.316 12.2987 413.039 11.808C412.761 11.3173 412.399 10.9547 411.951 10.72C411.503 10.4747 411.017 10.352 410.495 10.352C409.961 10.352 409.471 10.4747 409.023 10.72C408.585 10.9547 408.233 11.3173 407.967 11.808C407.7 12.2987 407.567 12.896 407.567 13.6C407.567 14.3147 407.695 14.9173 407.951 15.408C408.217 15.8987 408.569 16.2667 409.007 16.512C409.444 16.7467 409.924 16.864 410.447 16.864ZM418.313 10.656C418.569 10.1547 418.932 9.76533 419.401 9.488C419.881 9.21067 420.462 9.072 421.145 9.072V10.576H420.761C419.129 10.576 418.313 11.4613 418.313 13.232V18H416.857V9.232H418.313V10.656ZM423.578 7.808C423.3 7.808 423.066 7.712 422.874 7.52C422.682 7.328 422.586 7.09333 422.586 6.816C422.586 6.53867 422.682 6.304 422.874 6.112C423.066 5.92 423.3 5.824 423.578 5.824C423.844 5.824 424.068 5.92 424.25 6.112C424.442 6.304 424.538 6.53867 424.538 6.816C424.538 7.09333 424.442 7.328 424.25 7.52C424.068 7.712 423.844 7.808 423.578 7.808ZM424.282 9.232V18H422.826V9.232H424.282Z" fill="white"/>
<rect x="436" y="8" width="8" height="8" rx="4" fill="#C5221F"/>
</g>
</g>
<defs>
<clipPath id="clip0_40_6087">
<rect width="444" height="30" fill="white"/>
</clipPath>
<clipPath id="clip1_40_6087">
<rect width="69" height="24" fill="white" transform="translate(375)"/>
</clipPath>
</defs>
</svg>
