<svg width="230" height="64" viewBox="0 0 230 64" fill="none" xmlns="http://www.w3.org/2000/svg">
<path d="M27.424 12.536V35H21.952V21.528L16.928 35H12.512L7.456 21.496V35H1.984V12.536H8.448L14.752 28.088L20.992 12.536H27.424ZM48.191 25.784C48.191 26.296 48.159 26.8293 48.095 27.384H35.711C35.7963 28.4933 36.1483 29.3467 36.767 29.944C37.407 30.52 38.1857 30.808 39.103 30.808C40.4683 30.808 41.4177 30.232 41.951 29.08H47.775C47.4763 30.2533 46.9323 31.3093 46.143 32.248C45.375 33.1867 44.4043 33.9227 43.231 34.456C42.0577 34.9893 40.7457 35.256 39.295 35.256C37.5457 35.256 35.9883 34.8827 34.623 34.136C33.2577 33.3893 32.191 32.3227 31.423 30.936C30.655 29.5493 30.271 27.928 30.271 26.072C30.271 24.216 30.6443 22.5947 31.391 21.208C32.159 19.8213 33.2257 18.7547 34.591 18.008C35.9563 17.2613 37.5243 16.888 39.295 16.888C41.023 16.888 42.559 17.2507 43.903 17.976C45.247 18.7013 46.2923 19.736 47.039 21.08C47.807 22.424 48.191 23.992 48.191 25.784ZM42.591 24.344C42.591 23.4053 42.271 22.6587 41.631 22.104C40.991 21.5493 40.191 21.272 39.231 21.272C38.3137 21.272 37.535 21.5387 36.895 22.072C36.2763 22.6053 35.8923 23.3627 35.743 24.344H42.591ZM61.9578 16.952C64.0484 16.952 65.7124 17.6347 66.9498 19C68.2084 20.344 68.8378 22.2 68.8378 24.568V35H63.3978V25.304C63.3978 24.1093 63.0884 23.1813 62.4698 22.52C61.8511 21.8587 61.0191 21.528 59.9738 21.528C58.9284 21.528 58.0964 21.8587 57.4778 22.52C56.8591 23.1813 56.5498 24.1093 56.5498 25.304V35H51.0778V17.144H56.5498V19.512C57.1044 18.7227 57.8511 18.104 58.7898 17.656C59.7284 17.1867 60.7844 16.952 61.9578 16.952ZM90.3975 16.952C92.4455 16.952 94.0882 17.6347 95.3255 19C96.5628 20.344 97.1815 22.2 97.1815 24.568V35H91.7415V25.304C91.7415 24.1093 91.4322 23.1813 90.8135 22.52C90.1948 21.8587 89.3628 21.528 88.3175 21.528C87.2722 21.528 86.4402 21.8587 85.8215 22.52C85.2028 23.1813 84.8935 24.1093 84.8935 25.304V35H79.4215V11.32H84.8935V19.544C85.4482 18.7547 86.2055 18.1253 87.1655 17.656C88.1255 17.1867 89.2028 16.952 90.3975 16.952ZM99.896 26.04C99.896 24.2053 100.237 22.5947 100.92 21.208C101.624 19.8213 102.573 18.7547 103.768 18.008C104.963 17.2613 106.296 16.888 107.768 16.888C109.027 16.888 110.125 17.144 111.064 17.656C112.024 18.168 112.76 18.84 113.272 19.672V17.144H118.744V35H113.272V32.472C112.739 33.304 111.992 33.976 111.032 34.488C110.093 35 108.995 35.256 107.736 35.256C106.285 35.256 104.963 34.8827 103.768 34.136C102.573 33.368 101.624 32.2907 100.92 30.904C100.237 29.496 99.896 27.8747 99.896 26.04ZM113.272 26.072C113.272 24.7067 112.888 23.6293 112.12 22.84C111.373 22.0507 110.456 21.656 109.368 21.656C108.28 21.656 107.352 22.0507 106.584 22.84C105.837 23.608 105.464 24.6747 105.464 26.04C105.464 27.4053 105.837 28.4933 106.584 29.304C107.352 30.0933 108.28 30.488 109.368 30.488C110.456 30.488 111.373 30.0933 112.12 29.304C112.888 28.5147 113.272 27.4373 113.272 26.072ZM121.615 26.104C121.615 24.3333 121.977 22.7547 122.703 21.368C123.449 19.9813 124.441 18.904 125.679 18.136C126.937 17.3467 128.303 16.952 129.775 16.952C130.905 16.952 131.919 17.1547 132.815 17.56C133.711 17.944 134.436 18.488 134.991 19.192V17.144H140.463V43.512H134.991V32.76C134.372 33.5067 133.615 34.104 132.719 34.552C131.844 35 130.841 35.224 129.711 35.224C128.26 35.224 126.916 34.84 125.679 34.072C124.441 33.304 123.449 32.2267 122.703 30.84C121.977 29.4533 121.615 27.8747 121.615 26.104ZM134.991 26.072C134.991 25.112 134.799 24.312 134.415 23.672C134.052 23.0107 133.572 22.52 132.975 22.2C132.377 21.8587 131.748 21.688 131.087 21.688C130.447 21.688 129.828 21.8587 129.231 22.2C128.633 22.52 128.143 23.0107 127.759 23.672C127.375 24.3333 127.183 25.144 127.183 26.104C127.183 27.064 127.375 27.8747 127.759 28.536C128.143 29.176 128.633 29.6667 129.231 30.008C129.828 30.328 130.447 30.488 131.087 30.488C131.727 30.488 132.345 30.328 132.943 30.008C133.561 29.6667 134.052 29.1653 134.415 28.504C134.799 27.8427 134.991 27.032 134.991 26.072ZM147.174 15.288C146.214 15.288 145.424 15.0107 144.806 14.456C144.208 13.88 143.91 13.176 143.91 12.344C143.91 11.4907 144.208 10.7867 144.806 10.232C145.424 9.656 146.214 9.368 147.174 9.368C148.112 9.368 148.88 9.656 149.478 10.232C150.096 10.7867 150.406 11.4907 150.406 12.344C150.406 13.176 150.096 13.88 149.478 14.456C148.88 15.0107 148.112 15.288 147.174 15.288ZM149.894 17.144V35H144.422V17.144H149.894ZM176.643 16.952C178.862 16.952 180.622 17.624 181.923 18.968C183.246 20.312 183.907 22.1787 183.907 24.568V35H178.467V25.304C178.467 24.152 178.158 23.2667 177.539 22.648C176.942 22.008 176.11 21.688 175.043 21.688C173.976 21.688 173.134 22.008 172.515 22.648C171.918 23.2667 171.619 24.152 171.619 25.304V35H166.179V25.304C166.179 24.152 165.87 23.2667 165.251 22.648C164.654 22.008 163.822 21.688 162.755 21.688C161.688 21.688 160.846 22.008 160.227 22.648C159.63 23.2667 159.331 24.152 159.331 25.304V35H153.859V17.144H159.331V19.384C159.886 18.6373 160.611 18.0507 161.507 17.624C162.403 17.176 163.416 16.952 164.547 16.952C165.891 16.952 167.086 17.24 168.131 17.816C169.198 18.392 170.03 19.2133 170.627 20.28C171.246 19.2987 172.088 18.4987 173.155 17.88C174.222 17.2613 175.384 16.952 176.643 16.952ZM186.646 26.04C186.646 24.2053 186.987 22.5947 187.67 21.208C188.374 19.8213 189.323 18.7547 190.518 18.008C191.713 17.2613 193.046 16.888 194.518 16.888C195.691 16.888 196.758 17.1333 197.718 17.624C198.699 18.1147 199.467 18.776 200.022 19.608V11.32H205.494V35H200.022V32.44C199.51 33.2933 198.774 33.976 197.814 34.488C196.875 35 195.777 35.256 194.518 35.256C193.046 35.256 191.713 34.8827 190.518 34.136C189.323 33.368 188.374 32.2907 187.67 30.904C186.987 29.496 186.646 27.8747 186.646 26.04ZM200.022 26.072C200.022 24.7067 199.638 23.6293 198.87 22.84C198.123 22.0507 197.206 21.656 196.118 21.656C195.03 21.656 194.102 22.0507 193.334 22.84C192.587 23.608 192.214 24.6747 192.214 26.04C192.214 27.4053 192.587 28.4933 193.334 29.304C194.102 30.0933 195.03 30.488 196.118 30.488C197.206 30.488 198.123 30.0933 198.87 29.304C199.638 28.5147 200.022 27.4373 200.022 26.072ZM208.365 26.04C208.365 24.2053 208.706 22.5947 209.389 21.208C210.093 19.8213 211.042 18.7547 212.237 18.008C213.431 17.2613 214.765 16.888 216.237 16.888C217.495 16.888 218.594 17.144 219.533 17.656C220.493 18.168 221.229 18.84 221.741 19.672V17.144H227.213V35H221.741V32.472C221.207 33.304 220.461 33.976 219.501 34.488C218.562 35 217.463 35.256 216.205 35.256C214.754 35.256 213.431 34.8827 212.237 34.136C211.042 33.368 210.093 32.2907 209.389 30.904C208.706 29.496 208.365 27.8747 208.365 26.04ZM221.741 26.072C221.741 24.7067 221.357 23.6293 220.589 22.84C219.842 22.0507 218.925 21.656 217.837 21.656C216.749 21.656 215.821 22.0507 215.053 22.84C214.306 23.608 213.933 24.6747 213.933 26.04C213.933 27.4053 214.306 28.4933 215.053 29.304C215.821 30.0933 216.749 30.488 217.837 30.488C218.925 30.488 219.842 30.0933 220.589 29.304C221.357 28.5147 221.741 27.4373 221.741 26.072Z" fill="white"/>
<rect y="56" width="112" height="8" rx="4" fill="#39965F"/>
</svg>
