<svg width="32" height="32" viewBox="0 0 32 32" fill="none" xmlns="http://www.w3.org/2000/svg">
<rect width="32" height="32" rx="8" fill="white"/>
<path d="M7.27489 19.2957C6.42496 18.1915 6 17.6394 6 16C6 14.3606 6.42496 13.8085 7.27489 12.7043C8.97196 10.4996 11.8181 8 16 8C20.1819 8 23.028 10.4996 24.7251 12.7043C25.575 13.8085 26 14.3606 26 16C26 17.6394 25.575 18.1915 24.7251 19.2957C23.028 21.5004 20.1819 24 16 24C11.8181 24 8.97196 21.5004 7.27489 19.2957Z" stroke="#39965F" stroke-width="1.5"/>
<path d="M19 16C19 17.6569 17.6569 19 16 19C14.3431 19 13 17.6569 13 16C13 14.3431 14.3431 13 16 13C17.6569 13 19 14.3431 19 16Z" stroke="#39965F" stroke-width="1.5"/>
</svg>
