<svg width="444" height="52" viewBox="0 0 444 52" fill="none" xmlns="http://www.w3.org/2000/svg">
<path d="M10.528 10.672L9.936 13.44H12.048V15.04H9.6L8.96 18H7.216L7.856 15.04H4.72L4.08 18H2.336L2.976 15.04H0.496V13.44H3.312L3.904 10.672H1.44V9.072H4.24L4.864 6.16H6.608L5.984 9.072H9.12L9.744 6.16H11.488L10.864 9.072H12.992V10.672H10.528ZM8.784 10.672H5.648L5.056 13.44H8.192L8.784 10.672ZM16.9771 10.464C17.2438 10.016 17.5958 9.66933 18.0331 9.424C18.4811 9.168 19.0091 9.04 19.6171 9.04V10.928H19.1531C18.4385 10.928 17.8945 11.1093 17.5211 11.472C17.1585 11.8347 16.9771 12.464 16.9771 13.36V18H15.1531V9.184H16.9771V10.464ZM29.3738 13.376C29.3738 13.7067 29.3524 14.0053 29.3098 14.272H22.5738C22.6271 14.976 22.8884 15.5413 23.3578 15.968C23.8271 16.3947 24.4031 16.608 25.0858 16.608C26.0671 16.608 26.7604 16.1973 27.1658 15.376H29.1337C28.8671 16.1867 28.3818 16.8533 27.6778 17.376C26.9844 17.888 26.1204 18.144 25.0858 18.144C24.2431 18.144 23.4858 17.9573 22.8138 17.584C22.1524 17.2 21.6298 16.6667 21.2458 15.984C20.8724 15.2907 20.6858 14.4907 20.6858 13.584C20.6858 12.6773 20.8671 11.8827 21.2298 11.2C21.6031 10.5067 22.1204 9.97333 22.7818 9.6C23.4538 9.22667 24.2218 9.04 25.0858 9.04C25.9178 9.04 26.6591 9.22133 27.3098 9.584C27.9604 9.94667 28.4671 10.4587 28.8298 11.12C29.1924 11.7707 29.3738 12.5227 29.3738 13.376ZM27.4698 12.8C27.4591 12.128 27.2191 11.5893 26.7498 11.184C26.2804 10.7787 25.6991 10.576 25.0058 10.576C24.3764 10.576 23.8378 10.7787 23.3898 11.184C22.9418 11.5787 22.6751 12.1173 22.5898 12.8H27.4698ZM30.5608 13.552C30.5608 12.6667 30.7421 11.8827 31.1048 11.2C31.4781 10.5173 31.9794 9.98933 32.6088 9.616C33.2488 9.232 33.9528 9.04 34.7208 9.04C35.4141 9.04 36.0168 9.17867 36.5288 9.456C37.0514 9.72267 37.4674 10.0587 37.7768 10.464V9.184H39.6168V18H37.7768V16.688C37.4674 17.104 37.0461 17.4507 36.5128 17.728C35.9794 18.0053 35.3714 18.144 34.6888 18.144C33.9314 18.144 33.2381 17.952 32.6088 17.568C31.9794 17.1733 31.4781 16.6293 31.1048 15.936C30.7421 15.232 30.5608 14.4373 30.5608 13.552ZM37.7768 13.584C37.7768 12.976 37.6488 12.448 37.3928 12C37.1474 11.552 36.8221 11.2107 36.4168 10.976C36.0114 10.7413 35.5741 10.624 35.1048 10.624C34.6354 10.624 34.1981 10.7413 33.7928 10.976C33.3874 11.2 33.0568 11.536 32.8008 11.984C32.5554 12.4213 32.4328 12.944 32.4328 13.552C32.4328 14.16 32.5554 14.6933 32.8008 15.152C33.0568 15.6107 33.3874 15.9627 33.7928 16.208C34.2088 16.4427 34.6461 16.56 35.1048 16.56C35.5741 16.56 36.0114 16.4427 36.4168 16.208C36.8221 15.9733 37.1474 15.632 37.3928 15.184C37.6488 14.7253 37.7768 14.192 37.7768 13.584ZM41.4045 13.584C41.4045 12.6773 41.5858 11.8827 41.9485 11.2C42.3218 10.5067 42.8338 9.97333 43.4845 9.6C44.1352 9.22667 44.8818 9.04 45.7245 9.04C46.7912 9.04 47.6712 9.296 48.3645 9.808C49.0685 10.3093 49.5432 11.0293 49.7885 11.968H47.8205C47.6605 11.5307 47.4045 11.1893 47.0525 10.944C46.7005 10.6987 46.2578 10.576 45.7245 10.576C44.9778 10.576 44.3805 10.8427 43.9325 11.376C43.4952 11.8987 43.2765 12.6347 43.2765 13.584C43.2765 14.5333 43.4952 15.2747 43.9325 15.808C44.3805 16.3413 44.9778 16.608 45.7245 16.608C46.7805 16.608 47.4792 16.144 47.8205 15.216H49.7885C49.5325 16.112 49.0525 16.8267 48.3485 17.36C47.6445 17.8827 46.7698 18.144 45.7245 18.144C44.8818 18.144 44.1352 17.9573 43.4845 17.584C42.8338 17.2 42.3218 16.6667 41.9485 15.984C41.5858 15.2907 41.4045 14.4907 41.4045 13.584ZM53.7343 10.672V15.552C53.7343 15.8827 53.8089 16.1227 53.9583 16.272C54.1183 16.4107 54.3849 16.48 54.7583 16.48H55.8783V18H54.4383C53.6169 18 52.9876 17.808 52.5503 17.424C52.1129 17.04 51.8943 16.416 51.8943 15.552V10.672H50.8543V9.184H51.8943V6.992H53.7343V9.184H55.8783V10.672H53.7343ZM58.4874 8.016C58.1567 8.016 57.8794 7.904 57.6554 7.68C57.4314 7.456 57.3194 7.17867 57.3194 6.848C57.3194 6.51733 57.4314 6.24 57.6554 6.016C57.8794 5.792 58.1567 5.68 58.4874 5.68C58.8074 5.68 59.0794 5.792 59.3034 6.016C59.5274 6.24 59.6394 6.51733 59.6394 6.848C59.6394 7.17867 59.5274 7.456 59.3034 7.68C59.0794 7.904 58.8074 8.016 58.4874 8.016ZM59.3834 19.728C59.3834 20.592 59.1647 21.216 58.7274 21.6C58.3007 21.9947 57.6767 22.192 56.8554 22.192H55.9114V20.656H56.5354C56.9087 20.656 57.17 20.5813 57.3194 20.432C57.4794 20.2933 57.5594 20.0587 57.5594 19.728V9.184H59.3834V19.728ZM64.9781 18.144C64.2848 18.144 63.6608 18.0213 63.1061 17.776C62.5621 17.52 62.1301 17.1787 61.8101 16.752C61.4901 16.3147 61.3195 15.8293 61.2981 15.296H63.1861C63.2181 15.6693 63.3941 15.984 63.7141 16.24C64.0448 16.4853 64.4555 16.608 64.9461 16.608C65.4581 16.608 65.8528 16.512 66.1301 16.32C66.4181 16.1173 66.5621 15.8613 66.5621 15.552C66.5621 15.2213 66.4021 14.976 66.0821 14.816C65.7728 14.656 65.2768 14.48 64.5941 14.288C63.9328 14.1067 63.3941 13.9307 62.9781 13.76C62.5621 13.5893 62.1995 13.328 61.8901 12.976C61.5915 12.624 61.4421 12.16 61.4421 11.584C61.4421 11.1147 61.5808 10.688 61.8581 10.304C62.1355 9.90933 62.5301 9.6 63.0421 9.376C63.5648 9.152 64.1621 9.04 64.8341 9.04C65.8368 9.04 66.6421 9.296 67.2501 9.808C67.8688 10.3093 68.1995 10.9973 68.2421 11.872H66.4181C66.3861 11.4773 66.2261 11.1627 65.9381 10.928C65.6501 10.6933 65.2608 10.576 64.7701 10.576C64.2901 10.576 63.9221 10.6667 63.6661 10.848C63.4101 11.0293 63.2821 11.2693 63.2821 11.568C63.2821 11.8027 63.3675 12 63.5381 12.16C63.7088 12.32 63.9168 12.448 64.1621 12.544C64.4075 12.6293 64.7701 12.7413 65.2501 12.88C65.8901 13.0507 66.4128 13.2267 66.8181 13.408C67.2341 13.5787 67.5915 13.8347 67.8901 14.176C68.1888 14.5173 68.3435 14.9707 68.3541 15.536C68.3541 16.0373 68.2155 16.4853 67.9381 16.88C67.6608 17.2747 67.2661 17.584 66.7541 17.808C66.2528 18.032 65.6608 18.144 64.9781 18.144Z" fill="#39965F"/>
<path d="M92.528 10.672L91.936 13.44H94.048V15.04H91.6L90.96 18H89.216L89.856 15.04H86.72L86.08 18H84.336L84.976 15.04H82.496V13.44H85.312L85.904 10.672H83.44V9.072H86.24L86.864 6.16H88.608L87.984 9.072H91.12L91.744 6.16H93.488L92.864 9.072H94.992V10.672H92.528ZM90.784 10.672H87.648L87.056 13.44H90.192L90.784 10.672ZM100.561 16.368L103.057 9.184H104.993L101.633 18H99.4571L96.1131 9.184H98.0651L100.561 16.368ZM107.3 8.016C106.969 8.016 106.692 7.904 106.468 7.68C106.244 7.456 106.132 7.17867 106.132 6.848C106.132 6.51733 106.244 6.24 106.468 6.016C106.692 5.792 106.969 5.68 107.3 5.68C107.62 5.68 107.892 5.792 108.116 6.016C108.34 6.24 108.452 6.51733 108.452 6.848C108.452 7.17867 108.34 7.456 108.116 7.68C107.892 7.904 107.62 8.016 107.3 8.016ZM108.196 9.184V18H106.372V9.184H108.196ZM112.719 10.672V15.552C112.719 15.8827 112.793 16.1227 112.943 16.272C113.103 16.4107 113.369 16.48 113.743 16.48H114.863V18H113.423C112.601 18 111.972 17.808 111.535 17.424C111.097 17.04 110.879 16.416 110.879 15.552V10.672H109.839V9.184H110.879V6.992H112.719V9.184H114.863V10.672H112.719ZM124.624 13.376C124.624 13.7067 124.602 14.0053 124.56 14.272H117.824C117.877 14.976 118.138 15.5413 118.608 15.968C119.077 16.3947 119.653 16.608 120.336 16.608C121.317 16.608 122.01 16.1973 122.416 15.376H124.384C124.117 16.1867 123.632 16.8533 122.928 17.376C122.234 17.888 121.37 18.144 120.336 18.144C119.493 18.144 118.736 17.9573 118.064 17.584C117.402 17.2 116.88 16.6667 116.496 15.984C116.122 15.2907 115.936 14.4907 115.936 13.584C115.936 12.6773 116.117 11.8827 116.48 11.2C116.853 10.5067 117.37 9.97333 118.032 9.6C118.704 9.22667 119.472 9.04 120.336 9.04C121.168 9.04 121.909 9.22133 122.56 9.584C123.21 9.94667 123.717 10.4587 124.08 11.12C124.442 11.7707 124.624 12.5227 124.624 13.376ZM122.72 12.8C122.709 12.128 122.469 11.5893 122 11.184C121.53 10.7787 120.949 10.576 120.256 10.576C119.626 10.576 119.088 10.7787 118.64 11.184C118.192 11.5787 117.925 12.1173 117.84 12.8H122.72Z" fill="#39965F"/>
<path d="M148.528 10.672L147.936 13.44H150.048V15.04H147.6L146.96 18H145.216L145.856 15.04H142.72L142.08 18H140.336L140.976 15.04H138.496V13.44H141.312L141.904 10.672H139.44V9.072H142.24L142.864 6.16H144.608L143.984 9.072H147.12L147.744 6.16H149.488L148.864 9.072H150.992V10.672H148.528ZM146.784 10.672H143.648L143.056 13.44H146.192L146.784 10.672ZM155.281 10.672V15.552C155.281 15.8827 155.356 16.1227 155.505 16.272C155.665 16.4107 155.932 16.48 156.305 16.48H157.425V18H155.985C155.164 18 154.534 17.808 154.097 17.424C153.66 17.04 153.441 16.416 153.441 15.552V10.672H152.401V9.184H153.441V6.992H155.281V9.184H157.425V10.672H155.281ZM158.498 13.552C158.498 12.6667 158.68 11.8827 159.042 11.2C159.416 10.5173 159.917 9.98933 160.546 9.616C161.186 9.232 161.89 9.04 162.658 9.04C163.352 9.04 163.954 9.17867 164.466 9.456C164.989 9.72267 165.405 10.0587 165.714 10.464V9.184H167.554V18H165.714V16.688C165.405 17.104 164.984 17.4507 164.45 17.728C163.917 18.0053 163.309 18.144 162.626 18.144C161.869 18.144 161.176 17.952 160.546 17.568C159.917 17.1733 159.416 16.6293 159.042 15.936C158.68 15.232 158.498 14.4373 158.498 13.552ZM165.714 13.584C165.714 12.976 165.586 12.448 165.33 12C165.085 11.552 164.76 11.2107 164.354 10.976C163.949 10.7413 163.512 10.624 163.042 10.624C162.573 10.624 162.136 10.7413 161.73 10.976C161.325 11.2 160.994 11.536 160.738 11.984C160.493 12.4213 160.37 12.944 160.37 13.552C160.37 14.16 160.493 14.6933 160.738 15.152C160.994 15.6107 161.325 15.9627 161.73 16.208C162.146 16.4427 162.584 16.56 163.042 16.56C163.512 16.56 163.949 16.4427 164.354 16.208C164.76 15.9733 165.085 15.632 165.33 15.184C165.586 14.7253 165.714 14.192 165.714 13.584ZM170.878 8.016C170.547 8.016 170.27 7.904 170.046 7.68C169.822 7.456 169.71 7.17867 169.71 6.848C169.71 6.51733 169.822 6.24 170.046 6.016C170.27 5.792 170.547 5.68 170.878 5.68C171.198 5.68 171.47 5.792 171.694 6.016C171.918 6.24 172.03 6.51733 172.03 6.848C172.03 7.17867 171.918 7.456 171.694 7.68C171.47 7.904 171.198 8.016 170.878 8.016ZM171.774 9.184V18H169.95V9.184H171.774ZM175.993 6.16V18H174.169V6.16H175.993ZM190.228 9.184L187.492 18H185.572L183.796 11.488L182.02 18H180.1L177.348 9.184H179.204L181.044 16.272L182.916 9.184H184.82L186.612 16.24L188.436 9.184H190.228ZM192.519 8.016C192.188 8.016 191.911 7.904 191.687 7.68C191.463 7.456 191.351 7.17867 191.351 6.848C191.351 6.51733 191.463 6.24 191.687 6.016C191.911 5.792 192.188 5.68 192.519 5.68C192.839 5.68 193.111 5.792 193.335 6.016C193.559 6.24 193.671 6.51733 193.671 6.848C193.671 7.17867 193.559 7.456 193.335 7.68C193.111 7.904 192.839 8.016 192.519 8.016ZM193.415 9.184V18H191.591V9.184H193.415ZM200.257 9.04C200.951 9.04 201.569 9.184 202.113 9.472C202.668 9.76 203.1 10.1867 203.409 10.752C203.719 11.3173 203.873 12 203.873 12.8V18H202.065V13.072C202.065 12.2827 201.868 11.68 201.473 11.264C201.079 10.8373 200.54 10.624 199.857 10.624C199.175 10.624 198.631 10.8373 198.225 11.264C197.831 11.68 197.633 12.2827 197.633 13.072V18H195.809V9.184H197.633V10.192C197.932 9.82933 198.311 9.54667 198.769 9.344C199.239 9.14133 199.735 9.04 200.257 9.04ZM205.592 13.552C205.592 12.6667 205.773 11.8827 206.136 11.2C206.509 10.5173 207.011 9.98933 207.64 9.616C208.28 9.232 208.989 9.04 209.768 9.04C210.344 9.04 210.909 9.168 211.464 9.424C212.029 9.66933 212.477 10 212.808 10.416V6.16H214.648V18H212.808V16.672C212.509 17.0987 212.093 17.4507 211.56 17.728C211.037 18.0053 210.435 18.144 209.752 18.144C208.984 18.144 208.28 17.952 207.64 17.568C207.011 17.1733 206.509 16.6293 206.136 15.936C205.773 15.232 205.592 14.4373 205.592 13.552ZM212.808 13.584C212.808 12.976 212.68 12.448 212.424 12C212.179 11.552 211.853 11.2107 211.448 10.976C211.043 10.7413 210.605 10.624 210.136 10.624C209.667 10.624 209.229 10.7413 208.824 10.976C208.419 11.2 208.088 11.536 207.832 11.984C207.587 12.4213 207.464 12.944 207.464 13.552C207.464 14.16 207.587 14.6933 207.832 15.152C208.088 15.6107 208.419 15.9627 208.824 16.208C209.24 16.4427 209.677 16.56 210.136 16.56C210.605 16.56 211.043 16.4427 211.448 16.208C211.853 15.9733 212.179 15.632 212.424 15.184C212.68 14.7253 212.808 14.192 212.808 13.584ZM216.436 13.584C216.436 12.6773 216.617 11.8827 216.98 11.2C217.353 10.5067 217.865 9.97333 218.516 9.6C219.166 9.22667 219.913 9.04 220.756 9.04C221.822 9.04 222.702 9.296 223.396 9.808C224.1 10.3093 224.574 11.0293 224.82 11.968H222.852C222.692 11.5307 222.436 11.1893 222.084 10.944C221.732 10.6987 221.289 10.576 220.756 10.576C220.009 10.576 219.412 10.8427 218.964 11.376C218.526 11.8987 218.308 12.6347 218.308 13.584C218.308 14.5333 218.526 15.2747 218.964 15.808C219.412 16.3413 220.009 16.608 220.756 16.608C221.812 16.608 222.51 16.144 222.852 15.216H224.82C224.564 16.112 224.084 16.8267 223.38 17.36C222.676 17.8827 221.801 18.144 220.756 18.144C219.913 18.144 219.166 17.9573 218.516 17.584C217.865 17.2 217.353 16.6667 216.98 15.984C216.617 15.2907 216.436 14.4907 216.436 13.584ZM229.838 18.144C229.144 18.144 228.52 18.0213 227.966 17.776C227.422 17.52 226.99 17.1787 226.67 16.752C226.35 16.3147 226.179 15.8293 226.158 15.296H228.046C228.078 15.6693 228.254 15.984 228.574 16.24C228.904 16.4853 229.315 16.608 229.806 16.608C230.318 16.608 230.712 16.512 230.99 16.32C231.278 16.1173 231.422 15.8613 231.422 15.552C231.422 15.2213 231.262 14.976 230.942 14.816C230.632 14.656 230.136 14.48 229.454 14.288C228.792 14.1067 228.254 13.9307 227.838 13.76C227.422 13.5893 227.059 13.328 226.75 12.976C226.451 12.624 226.302 12.16 226.302 11.584C226.302 11.1147 226.44 10.688 226.718 10.304C226.995 9.90933 227.39 9.6 227.902 9.376C228.424 9.152 229.022 9.04 229.694 9.04C230.696 9.04 231.502 9.296 232.11 9.808C232.728 10.3093 233.059 10.9973 233.102 11.872H231.278C231.246 11.4773 231.086 11.1627 230.798 10.928C230.51 10.6933 230.12 10.576 229.63 10.576C229.15 10.576 228.782 10.6667 228.526 10.848C228.27 11.0293 228.142 11.2693 228.142 11.568C228.142 11.8027 228.227 12 228.398 12.16C228.568 12.32 228.776 12.448 229.022 12.544C229.267 12.6293 229.63 12.7413 230.11 12.88C230.75 13.0507 231.272 13.2267 231.678 13.408C232.094 13.5787 232.451 13.8347 232.75 14.176C233.048 14.5173 233.203 14.9707 233.214 15.536C233.214 16.0373 233.075 16.4853 232.798 16.88C232.52 17.2747 232.126 17.584 231.614 17.808C231.112 18.032 230.52 18.144 229.838 18.144ZM238.384 18.144C237.691 18.144 237.067 18.0213 236.512 17.776C235.968 17.52 235.536 17.1787 235.216 16.752C234.896 16.3147 234.726 15.8293 234.704 15.296H236.592C236.624 15.6693 236.8 15.984 237.12 16.24C237.451 16.4853 237.862 16.608 238.352 16.608C238.864 16.608 239.259 16.512 239.536 16.32C239.824 16.1173 239.968 15.8613 239.968 15.552C239.968 15.2213 239.808 14.976 239.488 14.816C239.179 14.656 238.683 14.48 238 14.288C237.339 14.1067 236.8 13.9307 236.384 13.76C235.968 13.5893 235.606 13.328 235.296 12.976C234.998 12.624 234.848 12.16 234.848 11.584C234.848 11.1147 234.987 10.688 235.264 10.304C235.542 9.90933 235.936 9.6 236.448 9.376C236.971 9.152 237.568 9.04 238.24 9.04C239.243 9.04 240.048 9.296 240.656 9.808C241.275 10.3093 241.606 10.9973 241.648 11.872H239.824C239.792 11.4773 239.632 11.1627 239.344 10.928C239.056 10.6933 238.667 10.576 238.176 10.576C237.696 10.576 237.328 10.6667 237.072 10.848C236.816 11.0293 236.688 11.2693 236.688 11.568C236.688 11.8027 236.774 12 236.944 12.16C237.115 12.32 237.323 12.448 237.568 12.544C237.814 12.6293 238.176 12.7413 238.656 12.88C239.296 13.0507 239.819 13.2267 240.224 13.408C240.64 13.5787 240.998 13.8347 241.296 14.176C241.595 14.5173 241.75 14.9707 241.76 15.536C241.76 16.0373 241.622 16.4853 241.344 16.88C241.067 17.2747 240.672 17.584 240.16 17.808C239.659 18.032 239.067 18.144 238.384 18.144Z" fill="#39965F"/>
<path d="M265.528 10.672L264.936 13.44H267.048V15.04H264.6L263.96 18H262.216L262.856 15.04H259.72L259.08 18H257.336L257.976 15.04H255.496V13.44H258.312L258.904 10.672H256.44V9.072H259.24L259.864 6.16H261.608L260.984 9.072H264.12L264.744 6.16H266.488L265.864 9.072H267.992V10.672H265.528ZM263.784 10.672H260.648L260.056 13.44H263.192L263.784 10.672ZM272.281 10.672V15.552C272.281 15.8827 272.356 16.1227 272.505 16.272C272.665 16.4107 272.932 16.48 273.305 16.48H274.425V18H272.985C272.164 18 271.534 17.808 271.097 17.424C270.66 17.04 270.441 16.416 270.441 15.552V10.672H269.401V9.184H270.441V6.992H272.281V9.184H274.425V10.672H272.281ZM279.93 18.144C279.098 18.144 278.346 17.9573 277.674 17.584C277.002 17.2 276.474 16.6667 276.09 15.984C275.706 15.2907 275.514 14.4907 275.514 13.584C275.514 12.688 275.712 11.8933 276.106 11.2C276.501 10.5067 277.04 9.97333 277.722 9.6C278.405 9.22667 279.168 9.04 280.01 9.04C280.853 9.04 281.616 9.22667 282.298 9.6C282.981 9.97333 283.52 10.5067 283.914 11.2C284.309 11.8933 284.506 12.688 284.506 13.584C284.506 14.48 284.304 15.2747 283.898 15.968C283.493 16.6613 282.938 17.2 282.234 17.584C281.541 17.9573 280.773 18.144 279.93 18.144ZM279.93 16.56C280.4 16.56 280.837 16.448 281.242 16.224C281.658 16 281.994 15.664 282.25 15.216C282.506 14.768 282.634 14.224 282.634 13.584C282.634 12.944 282.512 12.4053 282.266 11.968C282.021 11.52 281.696 11.184 281.29 10.96C280.885 10.736 280.448 10.624 279.978 10.624C279.509 10.624 279.072 10.736 278.666 10.96C278.272 11.184 277.957 11.52 277.722 11.968C277.488 12.4053 277.37 12.944 277.37 13.584C277.37 14.5333 277.61 15.2693 278.09 15.792C278.581 16.304 279.194 16.56 279.93 16.56ZM285.701 13.552C285.701 12.6667 285.883 11.8827 286.245 11.2C286.619 10.5173 287.12 9.98933 287.749 9.616C288.389 9.232 289.093 9.04 289.861 9.04C290.555 9.04 291.157 9.17867 291.669 9.456C292.192 9.72267 292.608 10.0587 292.917 10.464V9.184H294.757V18H292.917V16.688C292.608 17.104 292.187 17.4507 291.653 17.728C291.12 18.0053 290.512 18.144 289.829 18.144C289.072 18.144 288.379 17.952 287.749 17.568C287.12 17.1733 286.619 16.6293 286.245 15.936C285.883 15.232 285.701 14.4373 285.701 13.552ZM292.917 13.584C292.917 12.976 292.789 12.448 292.533 12C292.288 11.552 291.963 11.2107 291.557 10.976C291.152 10.7413 290.715 10.624 290.245 10.624C289.776 10.624 289.339 10.7413 288.933 10.976C288.528 11.2 288.197 11.536 287.941 11.984C287.696 12.4213 287.573 12.944 287.573 13.552C287.573 14.16 287.696 14.6933 287.941 15.152C288.197 15.6107 288.528 15.9627 288.933 16.208C289.349 16.4427 289.787 16.56 290.245 16.56C290.715 16.56 291.152 16.4427 291.557 16.208C291.963 15.9733 292.288 15.632 292.533 15.184C292.789 14.7253 292.917 14.192 292.917 13.584ZM300.353 18.144C299.66 18.144 299.036 18.0213 298.481 17.776C297.937 17.52 297.505 17.1787 297.185 16.752C296.865 16.3147 296.694 15.8293 296.673 15.296H298.561C298.593 15.6693 298.769 15.984 299.089 16.24C299.42 16.4853 299.83 16.608 300.321 16.608C300.833 16.608 301.228 16.512 301.505 16.32C301.793 16.1173 301.937 15.8613 301.937 15.552C301.937 15.2213 301.777 14.976 301.457 14.816C301.148 14.656 300.652 14.48 299.969 14.288C299.308 14.1067 298.769 13.9307 298.353 13.76C297.937 13.5893 297.574 13.328 297.265 12.976C296.966 12.624 296.817 12.16 296.817 11.584C296.817 11.1147 296.956 10.688 297.233 10.304C297.51 9.90933 297.905 9.6 298.417 9.376C298.94 9.152 299.537 9.04 300.209 9.04C301.212 9.04 302.017 9.296 302.625 9.808C303.244 10.3093 303.574 10.9973 303.617 11.872H301.793C301.761 11.4773 301.601 11.1627 301.313 10.928C301.025 10.6933 300.636 10.576 300.145 10.576C299.665 10.576 299.297 10.6667 299.041 10.848C298.785 11.0293 298.657 11.2693 298.657 11.568C298.657 11.8027 298.742 12 298.913 12.16C299.084 12.32 299.292 12.448 299.537 12.544C299.782 12.6293 300.145 12.7413 300.625 12.88C301.265 13.0507 301.788 13.2267 302.193 13.408C302.609 13.5787 302.966 13.8347 303.265 14.176C303.564 14.5173 303.718 14.9707 303.729 15.536C303.729 16.0373 303.59 16.4853 303.313 16.88C303.036 17.2747 302.641 17.584 302.129 17.808C301.628 18.032 301.036 18.144 300.353 18.144ZM307.828 10.672V15.552C307.828 15.8827 307.903 16.1227 308.052 16.272C308.212 16.4107 308.479 16.48 308.852 16.48H309.972V18H308.532C307.711 18 307.081 17.808 306.644 17.424C306.207 17.04 305.988 16.416 305.988 15.552V10.672H304.948V9.184H305.988V6.992H307.828V9.184H309.972V10.672H307.828ZM312.581 8.016C312.25 8.016 311.973 7.904 311.749 7.68C311.525 7.456 311.413 7.17867 311.413 6.848C311.413 6.51733 311.525 6.24 311.749 6.016C311.973 5.792 312.25 5.68 312.581 5.68C312.901 5.68 313.173 5.792 313.397 6.016C313.621 6.24 313.733 6.51733 313.733 6.848C313.733 7.17867 313.621 7.456 313.397 7.68C313.173 7.904 312.901 8.016 312.581 8.016ZM313.477 9.184V18H311.653V9.184H313.477ZM319.568 10.672H317.936V18H316.096V10.672H315.056V9.184H316.096V8.56C316.096 7.54667 316.363 6.81067 316.896 6.352C317.44 5.88267 318.288 5.648 319.44 5.648V7.168C318.885 7.168 318.496 7.27467 318.272 7.488C318.048 7.69067 317.936 8.048 317.936 8.56V9.184H319.568V10.672ZM329.12 9.184L323.712 22.144H321.824L323.616 17.856L320.144 9.184H322.176L324.656 15.904L327.232 9.184H329.12Z" fill="#39965F"/>
<path d="M352.528 10.672L351.936 13.44H354.048V15.04H351.6L350.96 18H349.216L349.856 15.04H346.72L346.08 18H344.336L344.976 15.04H342.496V13.44H345.312L345.904 10.672H343.44V9.072H346.24L346.864 6.16H348.608L347.984 9.072H351.12L351.744 6.16H353.488L352.864 9.072H354.992V10.672H352.528ZM350.784 10.672H347.648L347.056 13.44H350.192L350.784 10.672ZM356.545 13.552C356.545 12.6667 356.726 11.8827 357.089 11.2C357.462 10.5173 357.964 9.98933 358.593 9.616C359.233 9.232 359.937 9.04 360.705 9.04C361.398 9.04 362.001 9.17867 362.513 9.456C363.036 9.72267 363.452 10.0587 363.761 10.464V9.184H365.601V18H363.761V16.688C363.452 17.104 363.03 17.4507 362.497 17.728C361.964 18.0053 361.356 18.144 360.673 18.144C359.916 18.144 359.222 17.952 358.593 17.568C357.964 17.1733 357.462 16.6293 357.089 15.936C356.726 15.232 356.545 14.4373 356.545 13.552ZM363.761 13.584C363.761 12.976 363.633 12.448 363.377 12C363.132 11.552 362.806 11.2107 362.401 10.976C361.996 10.7413 361.558 10.624 361.089 10.624C360.62 10.624 360.182 10.7413 359.777 10.976C359.372 11.2 359.041 11.536 358.785 11.984C358.54 12.4213 358.417 12.944 358.417 13.552C358.417 14.16 358.54 14.6933 358.785 15.152C359.041 15.6107 359.372 15.9627 359.777 16.208C360.193 16.4427 360.63 16.56 361.089 16.56C361.558 16.56 361.996 16.4427 362.401 16.208C362.806 15.9733 363.132 15.632 363.377 15.184C363.633 14.7253 363.761 14.192 363.761 13.584ZM372.445 9.04C373.138 9.04 373.757 9.184 374.301 9.472C374.856 9.76 375.288 10.1867 375.597 10.752C375.906 11.3173 376.061 12 376.061 12.8V18H374.253V13.072C374.253 12.2827 374.056 11.68 373.661 11.264C373.266 10.8373 372.728 10.624 372.045 10.624C371.362 10.624 370.818 10.8373 370.413 11.264C370.018 11.68 369.821 12.2827 369.821 13.072V18H367.997V9.184H369.821V10.192C370.12 9.82933 370.498 9.54667 370.957 9.344C371.426 9.14133 371.922 9.04 372.445 9.04ZM380.516 10.672V15.552C380.516 15.8827 380.59 16.1227 380.74 16.272C380.9 16.4107 381.166 16.48 381.54 16.48H382.66V18H381.22C380.398 18 379.769 17.808 379.332 17.424C378.894 17.04 378.676 16.416 378.676 15.552V10.672H377.636V9.184H378.676V6.992H380.516V9.184H382.66V10.672H380.516ZM383.733 13.552C383.733 12.6667 383.914 11.8827 384.277 11.2C384.65 10.5173 385.151 9.98933 385.781 9.616C386.421 9.232 387.13 9.04 387.909 9.04C388.485 9.04 389.05 9.168 389.605 9.424C390.17 9.66933 390.618 10 390.949 10.416V6.16H392.789V18H390.949V16.672C390.65 17.0987 390.234 17.4507 389.701 17.728C389.178 18.0053 388.575 18.144 387.893 18.144C387.125 18.144 386.421 17.952 385.781 17.568C385.151 17.1733 384.65 16.6293 384.277 15.936C383.914 15.232 383.733 14.4373 383.733 13.552ZM390.949 13.584C390.949 12.976 390.821 12.448 390.565 12C390.319 11.552 389.994 11.2107 389.589 10.976C389.183 10.7413 388.746 10.624 388.277 10.624C387.807 10.624 387.37 10.7413 386.965 10.976C386.559 11.2 386.229 11.536 385.973 11.984C385.727 12.4213 385.605 12.944 385.605 13.552C385.605 14.16 385.727 14.6933 385.973 15.152C386.229 15.6107 386.559 15.9627 386.965 16.208C387.381 16.4427 387.818 16.56 388.277 16.56C388.746 16.56 389.183 16.4427 389.589 16.208C389.994 15.9733 390.319 15.632 390.565 15.184C390.821 14.7253 390.949 14.192 390.949 13.584ZM403.264 13.376C403.264 13.7067 403.243 14.0053 403.2 14.272H396.464C396.518 14.976 396.779 15.5413 397.248 15.968C397.718 16.3947 398.294 16.608 398.976 16.608C399.958 16.608 400.651 16.1973 401.056 15.376H403.024C402.758 16.1867 402.272 16.8533 401.568 17.376C400.875 17.888 400.011 18.144 398.976 18.144C398.134 18.144 397.376 17.9573 396.704 17.584C396.043 17.2 395.52 16.6667 395.136 15.984C394.763 15.2907 394.576 14.4907 394.576 13.584C394.576 12.6773 394.758 11.8827 395.12 11.2C395.494 10.5067 396.011 9.97333 396.672 9.6C397.344 9.22667 398.112 9.04 398.976 9.04C399.808 9.04 400.55 9.22133 401.2 9.584C401.851 9.94667 402.358 10.4587 402.72 11.12C403.083 11.7707 403.264 12.5227 403.264 13.376ZM401.36 12.8C401.35 12.128 401.11 11.5893 400.64 11.184C400.171 10.7787 399.59 10.576 398.896 10.576C398.267 10.576 397.728 10.7787 397.28 11.184C396.832 11.5787 396.566 12.1173 396.48 12.8H401.36ZM408.259 18.144C407.566 18.144 406.942 18.0213 406.387 17.776C405.843 17.52 405.411 17.1787 405.091 16.752C404.771 16.3147 404.601 15.8293 404.579 15.296H406.467C406.499 15.6693 406.675 15.984 406.995 16.24C407.326 16.4853 407.737 16.608 408.227 16.608C408.739 16.608 409.134 16.512 409.411 16.32C409.699 16.1173 409.843 15.8613 409.843 15.552C409.843 15.2213 409.683 14.976 409.363 14.816C409.054 14.656 408.558 14.48 407.875 14.288C407.214 14.1067 406.675 13.9307 406.259 13.76C405.843 13.5893 405.481 13.328 405.171 12.976C404.873 12.624 404.723 12.16 404.723 11.584C404.723 11.1147 404.862 10.688 405.139 10.304C405.417 9.90933 405.811 9.6 406.323 9.376C406.846 9.152 407.443 9.04 408.115 9.04C409.118 9.04 409.923 9.296 410.531 9.808C411.15 10.3093 411.481 10.9973 411.523 11.872H409.699C409.667 11.4773 409.507 11.1627 409.219 10.928C408.931 10.6933 408.542 10.576 408.051 10.576C407.571 10.576 407.203 10.6667 406.947 10.848C406.691 11.0293 406.563 11.2693 406.563 11.568C406.563 11.8027 406.649 12 406.819 12.16C406.99 12.32 407.198 12.448 407.443 12.544C407.689 12.6293 408.051 12.7413 408.531 12.88C409.171 13.0507 409.694 13.2267 410.099 13.408C410.515 13.5787 410.873 13.8347 411.171 14.176C411.47 14.5173 411.625 14.9707 411.635 15.536C411.635 16.0373 411.497 16.4853 411.219 16.88C410.942 17.2747 410.547 17.584 410.035 17.808C409.534 18.032 408.942 18.144 408.259 18.144ZM414.534 8.016C414.204 8.016 413.926 7.904 413.702 7.68C413.478 7.456 413.366 7.17867 413.366 6.848C413.366 6.51733 413.478 6.24 413.702 6.016C413.926 5.792 414.204 5.68 414.534 5.68C414.854 5.68 415.126 5.792 415.35 6.016C415.574 6.24 415.686 6.51733 415.686 6.848C415.686 7.17867 415.574 7.456 415.35 7.68C415.126 7.904 414.854 8.016 414.534 8.016ZM415.43 9.184V18H413.606V9.184H415.43ZM421.377 9.04C422.06 9.04 422.662 9.17867 423.185 9.456C423.718 9.72267 424.134 10.0587 424.433 10.464V9.184H426.273V18.144C426.273 18.9547 426.102 19.6747 425.761 20.304C425.42 20.944 424.924 21.4453 424.273 21.808C423.633 22.1707 422.865 22.352 421.969 22.352C420.774 22.352 419.782 22.0693 418.993 21.504C418.204 20.9493 417.756 20.192 417.649 19.232H419.457C419.596 19.6907 419.889 20.0587 420.337 20.336C420.796 20.624 421.34 20.768 421.969 20.768C422.705 20.768 423.297 20.544 423.745 20.096C424.204 19.648 424.433 18.9973 424.433 18.144V16.672C424.124 17.088 423.702 17.44 423.169 17.728C422.646 18.0053 422.049 18.144 421.377 18.144C420.609 18.144 419.905 17.952 419.265 17.568C418.636 17.1733 418.134 16.6293 417.761 15.936C417.398 15.232 417.217 14.4373 417.217 13.552C417.217 12.6667 417.398 11.8827 417.761 11.2C418.134 10.5173 418.636 9.98933 419.265 9.616C419.905 9.232 420.609 9.04 421.377 9.04ZM424.433 13.584C424.433 12.976 424.305 12.448 424.049 12C423.804 11.552 423.478 11.2107 423.073 10.976C422.668 10.7413 422.23 10.624 421.761 10.624C421.292 10.624 420.854 10.7413 420.449 10.976C420.044 11.2 419.713 11.536 419.457 11.984C419.212 12.4213 419.089 12.944 419.089 13.552C419.089 14.16 419.212 14.6933 419.457 15.152C419.713 15.6107 420.044 15.9627 420.449 16.208C420.865 16.4427 421.302 16.56 421.761 16.56C422.23 16.56 422.668 16.4427 423.073 16.208C423.478 15.9733 423.804 15.632 424.049 15.184C424.305 14.7253 424.433 14.192 424.433 13.584ZM433.117 9.04C433.81 9.04 434.429 9.184 434.973 9.472C435.527 9.76 435.959 10.1867 436.269 10.752C436.578 11.3173 436.733 12 436.733 12.8V18H434.925V13.072C434.925 12.2827 434.727 11.68 434.333 11.264C433.938 10.8373 433.399 10.624 432.717 10.624C432.034 10.624 431.49 10.8373 431.085 11.264C430.69 11.68 430.493 12.2827 430.493 13.072V18H428.669V9.184H430.493V10.192C430.791 9.82933 431.17 9.54667 431.629 9.344C432.098 9.14133 432.594 9.04 433.117 9.04Z" fill="#39965F"/>
<path d="M10.528 38.672L9.936 41.44H12.048V43.04H9.6L8.96 46H7.216L7.856 43.04H4.72L4.08 46H2.336L2.976 43.04H0.496V41.44H3.312L3.904 38.672H1.44V37.072H4.24L4.864 34.16H6.608L5.984 37.072H9.12L9.744 34.16H11.488L10.864 37.072H12.992V38.672H10.528ZM8.784 38.672H5.648L5.056 41.44H8.192L8.784 38.672ZM16.9771 38.464C17.2438 38.016 17.5958 37.6693 18.0331 37.424C18.4811 37.168 19.0091 37.04 19.6171 37.04V38.928H19.1531C18.4385 38.928 17.8945 39.1093 17.5211 39.472C17.1585 39.8347 16.9771 40.464 16.9771 41.36V46H15.1531V37.184H16.9771V38.464ZM29.3738 41.376C29.3738 41.7067 29.3524 42.0053 29.3098 42.272H22.5738C22.6271 42.976 22.8884 43.5413 23.3578 43.968C23.8271 44.3947 24.4031 44.608 25.0858 44.608C26.0671 44.608 26.7604 44.1973 27.1658 43.376H29.1337C28.8671 44.1867 28.3818 44.8533 27.6778 45.376C26.9844 45.888 26.1204 46.144 25.0858 46.144C24.2431 46.144 23.4858 45.9573 22.8138 45.584C22.1524 45.2 21.6298 44.6667 21.2458 43.984C20.8724 43.2907 20.6858 42.4907 20.6858 41.584C20.6858 40.6773 20.8671 39.8827 21.2298 39.2C21.6031 38.5067 22.1204 37.9733 22.7818 37.6C23.4538 37.2267 24.2218 37.04 25.0858 37.04C25.9178 37.04 26.6591 37.2213 27.3098 37.584C27.9604 37.9467 28.4671 38.4587 28.8298 39.12C29.1924 39.7707 29.3738 40.5227 29.3738 41.376ZM27.4698 40.8C27.4591 40.128 27.2191 39.5893 26.7498 39.184C26.2804 38.7787 25.6991 38.576 25.0058 38.576C24.3764 38.576 23.8378 38.7787 23.3898 39.184C22.9418 39.5787 22.6751 40.1173 22.5898 40.8H27.4698ZM30.5608 41.584C30.5608 40.6773 30.7421 39.8827 31.1048 39.2C31.4781 38.5067 31.9901 37.9733 32.6408 37.6C33.2914 37.2267 34.0381 37.04 34.8808 37.04C35.9474 37.04 36.8274 37.296 37.5208 37.808C38.2248 38.3093 38.6994 39.0293 38.9448 39.968H36.9768C36.8168 39.5307 36.5608 39.1893 36.2088 38.944C35.8568 38.6987 35.4141 38.576 34.8808 38.576C34.1341 38.576 33.5368 38.8427 33.0888 39.376C32.6514 39.8987 32.4328 40.6347 32.4328 41.584C32.4328 42.5333 32.6514 43.2747 33.0888 43.808C33.5368 44.3413 34.1341 44.608 34.8808 44.608C35.9368 44.608 36.6354 44.144 36.9768 43.216H38.9448C38.6888 44.112 38.2088 44.8267 37.5048 45.36C36.8008 45.8827 35.9261 46.144 34.8808 46.144C34.0381 46.144 33.2914 45.9573 32.6408 45.584C31.9901 45.2 31.4781 44.6667 31.1048 43.984C30.7421 43.2907 30.5608 42.4907 30.5608 41.584ZM40.1545 41.552C40.1545 40.6667 40.3358 39.8827 40.6985 39.2C41.0718 38.5173 41.5732 37.9893 42.2025 37.616C42.8425 37.232 43.5465 37.04 44.3145 37.04C45.0078 37.04 45.6105 37.1787 46.1225 37.456C46.6452 37.7227 47.0612 38.0587 47.3705 38.464V37.184H49.2105V46H47.3705V44.688C47.0612 45.104 46.6398 45.4507 46.1065 45.728C45.5732 46.0053 44.9652 46.144 44.2825 46.144C43.5252 46.144 42.8318 45.952 42.2025 45.568C41.5732 45.1733 41.0718 44.6293 40.6985 43.936C40.3358 43.232 40.1545 42.4373 40.1545 41.552ZM47.3705 41.584C47.3705 40.976 47.2425 40.448 46.9865 40C46.7412 39.552 46.4158 39.2107 46.0105 38.976C45.6052 38.7413 45.1678 38.624 44.6985 38.624C44.2292 38.624 43.7918 38.7413 43.3865 38.976C42.9812 39.2 42.6505 39.536 42.3945 39.984C42.1492 40.4213 42.0265 40.944 42.0265 41.552C42.0265 42.16 42.1492 42.6933 42.3945 43.152C42.6505 43.6107 42.9812 43.9627 43.3865 44.208C43.8025 44.4427 44.2398 44.56 44.6985 44.56C45.1678 44.56 45.6052 44.4427 46.0105 44.208C46.4158 43.9733 46.7412 43.632 46.9865 43.184C47.2425 42.7253 47.3705 42.192 47.3705 41.584ZM53.4303 38.48C53.7396 38.0747 54.1609 37.7333 54.6943 37.456C55.2276 37.1787 55.8303 37.04 56.5023 37.04C57.2703 37.04 57.9689 37.232 58.5983 37.616C59.2383 37.9893 59.7396 38.5173 60.1023 39.2C60.4649 39.8827 60.6463 40.6667 60.6463 41.552C60.6463 42.4373 60.4649 43.232 60.1023 43.936C59.7396 44.6293 59.2383 45.1733 58.5983 45.568C57.9689 45.952 57.2703 46.144 56.5023 46.144C55.8303 46.144 55.2329 46.0107 54.7103 45.744C54.1876 45.4667 53.7609 45.1253 53.4303 44.72V50.192H51.6063V37.184H53.4303V38.48ZM58.7903 41.552C58.7903 40.944 58.6623 40.4213 58.4062 39.984C58.1609 39.536 57.8303 39.2 57.4143 38.976C57.0089 38.7413 56.5716 38.624 56.1023 38.624C55.6436 38.624 55.2063 38.7413 54.7903 38.976C54.3849 39.2107 54.0543 39.552 53.7983 40C53.5529 40.448 53.4303 40.976 53.4303 41.584C53.4303 42.192 53.5529 42.7253 53.7983 43.184C54.0543 43.632 54.3849 43.9733 54.7903 44.208C55.2063 44.4427 55.6436 44.56 56.1023 44.56C56.5716 44.56 57.0089 44.4427 57.4143 44.208C57.8303 43.9627 58.1609 43.6107 58.4062 43.152C58.6623 42.6933 58.7903 42.16 58.7903 41.552ZM64.578 38.672V43.552C64.578 43.8827 64.6527 44.1227 64.802 44.272C64.962 44.4107 65.2287 44.48 65.602 44.48H66.722V46H65.282C64.4607 46 63.8313 45.808 63.394 45.424C62.9567 45.04 62.738 44.416 62.738 43.552V38.672H61.698V37.184H62.738V34.992H64.578V37.184H66.722V38.672H64.578ZM67.7951 41.584C67.7951 40.6773 67.9765 39.8827 68.3391 39.2C68.7125 38.5067 69.2245 37.9733 69.8751 37.6C70.5258 37.2267 71.2725 37.04 72.1151 37.04C73.1818 37.04 74.0618 37.296 74.7551 37.808C75.4591 38.3093 75.9338 39.0293 76.1791 39.968H74.2111C74.0511 39.5307 73.7951 39.1893 73.4431 38.944C73.0911 38.6987 72.6485 38.576 72.1151 38.576C71.3685 38.576 70.7711 38.8427 70.3231 39.376C69.8858 39.8987 69.6671 40.6347 69.6671 41.584C69.6671 42.5333 69.8858 43.2747 70.3231 43.808C70.7711 44.3413 71.3685 44.608 72.1151 44.608C73.1711 44.608 73.8698 44.144 74.2111 43.216H76.1791C75.9231 44.112 75.4431 44.8267 74.7391 45.36C74.0351 45.8827 73.1605 46.144 72.1151 46.144C71.2725 46.144 70.5258 45.9573 69.8751 45.584C69.2245 45.2 68.7125 44.6667 68.3391 43.984C67.9765 43.2907 67.7951 42.4907 67.7951 41.584ZM82.5569 37.04C83.2289 37.04 83.8262 37.184 84.3489 37.472C84.8822 37.76 85.2982 38.1867 85.5969 38.752C85.9062 39.3173 86.0609 40 86.0609 40.8V46H84.2529V41.072C84.2529 40.2827 84.0555 39.68 83.6609 39.264C83.2662 38.8373 82.7275 38.624 82.0449 38.624C81.3622 38.624 80.8182 38.8373 80.4129 39.264C80.0182 39.68 79.8209 40.2827 79.8209 41.072V46H77.9969V34.16H79.8209V38.208C80.1302 37.8347 80.5195 37.5467 80.9889 37.344C81.4689 37.1413 81.9915 37.04 82.5569 37.04ZM87.7795 41.552C87.7795 40.6667 87.9608 39.8827 88.3235 39.2C88.6968 38.5173 89.1982 37.9893 89.8275 37.616C90.4675 37.232 91.1715 37.04 91.9395 37.04C92.6328 37.04 93.2355 37.1787 93.7475 37.456C94.2702 37.7227 94.6862 38.0587 94.9955 38.464V37.184H96.8355V46H94.9955V44.688C94.6862 45.104 94.2648 45.4507 93.7315 45.728C93.1982 46.0053 92.5902 46.144 91.9075 46.144C91.1502 46.144 90.4568 45.952 89.8275 45.568C89.1982 45.1733 88.6968 44.6293 88.3235 43.936C87.9608 43.232 87.7795 42.4373 87.7795 41.552ZM94.9955 41.584C94.9955 40.976 94.8675 40.448 94.6115 40C94.3662 39.552 94.0408 39.2107 93.6355 38.976C93.2302 38.7413 92.7928 38.624 92.3235 38.624C91.8542 38.624 91.4168 38.7413 91.0115 38.976C90.6062 39.2 90.2755 39.536 90.0195 39.984C89.7742 40.4213 89.6515 40.944 89.6515 41.552C89.6515 42.16 89.7742 42.6933 90.0195 43.152C90.2755 43.6107 90.6062 43.9627 91.0115 44.208C91.4275 44.4427 91.8648 44.56 92.3235 44.56C92.7928 44.56 93.2302 44.4427 93.6355 44.208C94.0408 43.9733 94.3662 43.632 94.6115 43.184C94.8675 42.7253 94.9955 42.192 94.9955 41.584Z" fill="#39965F"/>
<path d="M121.528 38.672L120.936 41.44H123.048V43.04H120.6L119.96 46H118.216L118.856 43.04H115.72L115.08 46H113.336L113.976 43.04H111.496V41.44H114.312L114.904 38.672H112.44V37.072H115.24L115.864 34.16H117.608L116.984 37.072H120.12L120.744 34.16H122.488L121.864 37.072H123.992V38.672H121.528ZM119.784 38.672H116.648L116.056 41.44H119.192L119.784 38.672ZM129.353 46.144C128.66 46.144 128.036 46.0213 127.481 45.776C126.937 45.52 126.505 45.1787 126.185 44.752C125.865 44.3147 125.694 43.8293 125.673 43.296H127.561C127.593 43.6693 127.769 43.984 128.089 44.24C128.42 44.4853 128.83 44.608 129.321 44.608C129.833 44.608 130.228 44.512 130.505 44.32C130.793 44.1173 130.937 43.8613 130.937 43.552C130.937 43.2213 130.777 42.976 130.457 42.816C130.148 42.656 129.652 42.48 128.969 42.288C128.308 42.1067 127.769 41.9307 127.353 41.76C126.937 41.5893 126.574 41.328 126.265 40.976C125.966 40.624 125.817 40.16 125.817 39.584C125.817 39.1147 125.956 38.688 126.233 38.304C126.51 37.9093 126.905 37.6 127.417 37.376C127.94 37.152 128.537 37.04 129.209 37.04C130.212 37.04 131.017 37.296 131.625 37.808C132.244 38.3093 132.574 38.9973 132.617 39.872H130.793C130.761 39.4773 130.601 39.1627 130.313 38.928C130.025 38.6933 129.636 38.576 129.145 38.576C128.665 38.576 128.297 38.6667 128.041 38.848C127.785 39.0293 127.657 39.2693 127.657 39.568C127.657 39.8027 127.742 40 127.913 40.16C128.084 40.32 128.292 40.448 128.537 40.544C128.782 40.6293 129.145 40.7413 129.625 40.88C130.265 41.0507 130.788 41.2267 131.193 41.408C131.609 41.5787 131.966 41.8347 132.265 42.176C132.564 42.5173 132.718 42.9707 132.729 43.536C132.729 44.0373 132.59 44.4853 132.313 44.88C132.036 45.2747 131.641 45.584 131.129 45.808C130.628 46.032 130.036 46.144 129.353 46.144ZM146.54 37.184L143.804 46H141.884L140.108 39.488L138.332 46H136.412L133.66 37.184H135.516L137.356 44.272L139.228 37.184H141.132L142.924 44.24L144.748 37.184H146.54ZM148.831 36.016C148.5 36.016 148.223 35.904 147.999 35.68C147.775 35.456 147.663 35.1787 147.663 34.848C147.663 34.5173 147.775 34.24 147.999 34.016C148.223 33.792 148.5 33.68 148.831 33.68C149.151 33.68 149.423 33.792 149.647 34.016C149.871 34.24 149.983 34.5173 149.983 34.848C149.983 35.1787 149.871 35.456 149.647 35.68C149.423 35.904 149.151 36.016 148.831 36.016ZM149.727 37.184V46H147.903V37.184H149.727ZM153.946 38.48C154.255 38.0747 154.677 37.7333 155.21 37.456C155.743 37.1787 156.346 37.04 157.018 37.04C157.786 37.04 158.485 37.232 159.114 37.616C159.754 37.9893 160.255 38.5173 160.618 39.2C160.981 39.8827 161.162 40.6667 161.162 41.552C161.162 42.4373 160.981 43.232 160.618 43.936C160.255 44.6293 159.754 45.1733 159.114 45.568C158.485 45.952 157.786 46.144 157.018 46.144C156.346 46.144 155.749 46.0107 155.226 45.744C154.703 45.4667 154.277 45.1253 153.946 44.72V50.192H152.122V37.184H153.946V38.48ZM159.306 41.552C159.306 40.944 159.178 40.4213 158.922 39.984C158.677 39.536 158.346 39.2 157.93 38.976C157.525 38.7413 157.087 38.624 156.618 38.624C156.159 38.624 155.722 38.7413 155.306 38.976C154.901 39.2107 154.57 39.552 154.314 40C154.069 40.448 153.946 40.976 153.946 41.584C153.946 42.192 154.069 42.7253 154.314 43.184C154.57 43.632 154.901 43.9733 155.306 44.208C155.722 44.4427 156.159 44.56 156.618 44.56C157.087 44.56 157.525 44.4427 157.93 44.208C158.346 43.9627 158.677 43.6107 158.922 43.152C159.178 42.6933 159.306 42.16 159.306 41.552ZM171.046 41.376C171.046 41.7067 171.024 42.0053 170.982 42.272H164.246C164.299 42.976 164.56 43.5413 165.03 43.968C165.499 44.3947 166.075 44.608 166.758 44.608C167.739 44.608 168.432 44.1973 168.838 43.376H170.806C170.539 44.1867 170.054 44.8533 169.35 45.376C168.656 45.888 167.792 46.144 166.758 46.144C165.915 46.144 165.158 45.9573 164.486 45.584C163.824 45.2 163.302 44.6667 162.918 43.984C162.544 43.2907 162.358 42.4907 162.358 41.584C162.358 40.6773 162.539 39.8827 162.902 39.2C163.275 38.5067 163.792 37.9733 164.454 37.6C165.126 37.2267 165.894 37.04 166.758 37.04C167.59 37.04 168.331 37.2213 168.982 37.584C169.632 37.9467 170.139 38.4587 170.502 39.12C170.864 39.7707 171.046 40.5227 171.046 41.376ZM169.142 40.8C169.131 40.128 168.891 39.5893 168.422 39.184C167.952 38.7787 167.371 38.576 166.678 38.576C166.048 38.576 165.51 38.7787 165.062 39.184C164.614 39.5787 164.347 40.1173 164.262 40.8H169.142ZM174.665 38.464C174.931 38.016 175.283 37.6693 175.721 37.424C176.169 37.168 176.697 37.04 177.305 37.04V38.928H176.841C176.126 38.928 175.582 39.1093 175.209 39.472C174.846 39.8347 174.665 40.464 174.665 41.36V46H172.841V37.184H174.665V38.464ZM179.909 36.016C179.579 36.016 179.301 35.904 179.077 35.68C178.853 35.456 178.741 35.1787 178.741 34.848C178.741 34.5173 178.853 34.24 179.077 34.016C179.301 33.792 179.579 33.68 179.909 33.68C180.229 33.68 180.501 33.792 180.725 34.016C180.949 34.24 181.061 34.5173 181.061 34.848C181.061 35.1787 180.949 35.456 180.725 35.68C180.501 35.904 180.229 36.016 179.909 36.016ZM180.805 47.728C180.805 48.592 180.587 49.216 180.149 49.6C179.723 49.9947 179.099 50.192 178.277 50.192H177.333V48.656H177.957C178.331 48.656 178.592 48.5813 178.741 48.432C178.901 48.2933 178.981 48.0587 178.981 47.728V37.184H180.805V47.728ZM186.4 46.144C185.707 46.144 185.083 46.0213 184.528 45.776C183.984 45.52 183.552 45.1787 183.232 44.752C182.912 44.3147 182.741 43.8293 182.72 43.296H184.608C184.64 43.6693 184.816 43.984 185.136 44.24C185.467 44.4853 185.877 44.608 186.368 44.608C186.88 44.608 187.275 44.512 187.552 44.32C187.84 44.1173 187.984 43.8613 187.984 43.552C187.984 43.2213 187.824 42.976 187.504 42.816C187.195 42.656 186.699 42.48 186.016 42.288C185.355 42.1067 184.816 41.9307 184.4 41.76C183.984 41.5893 183.621 41.328 183.312 40.976C183.013 40.624 182.864 40.16 182.864 39.584C182.864 39.1147 183.003 38.688 183.28 38.304C183.557 37.9093 183.952 37.6 184.464 37.376C184.987 37.152 185.584 37.04 186.256 37.04C187.259 37.04 188.064 37.296 188.672 37.808C189.291 38.3093 189.621 38.9973 189.664 39.872H187.84C187.808 39.4773 187.648 39.1627 187.36 38.928C187.072 38.6933 186.683 38.576 186.192 38.576C185.712 38.576 185.344 38.6667 185.088 38.848C184.832 39.0293 184.704 39.2693 184.704 39.568C184.704 39.8027 184.789 40 184.96 40.16C185.131 40.32 185.339 40.448 185.584 40.544C185.829 40.6293 186.192 40.7413 186.672 40.88C187.312 41.0507 187.835 41.2267 188.24 41.408C188.656 41.5787 189.013 41.8347 189.312 42.176C189.611 42.5173 189.765 42.9707 189.776 43.536C189.776 44.0373 189.637 44.4853 189.36 44.88C189.083 45.2747 188.688 45.584 188.176 45.808C187.675 46.032 187.083 46.144 186.4 46.144Z" fill="#39965F"/>
</svg>
