<svg width="912" height="208" viewBox="0 0 912 208" fill="none" xmlns="http://www.w3.org/2000/svg">
<g clip-path="url(#clip0_42_7686)">
<rect width="912" height="208" rx="12" fill="#1B1B1B"/>
<rect x="20" y="20" width="168" height="168" rx="6" fill="#1B92D1" fill-opacity="0.25"/>
<path d="M128.783 79.7708C120.908 83.0323 87.143 97.0182 77.8137 100.83C71.557 103.272 75.2198 105.561 75.2198 105.561C75.2198 105.561 80.5606 107.392 85.1391 108.765C89.717 110.139 92.1586 108.613 92.1586 108.613L113.675 94.1158C121.306 88.9273 119.474 93.2 117.643 95.0316C113.675 98.9996 107.114 105.256 101.62 110.292C99.1782 112.428 100.399 114.259 101.467 115.175C105.435 118.532 116.27 125.4 116.88 125.857C120.104 128.139 126.445 131.425 127.409 124.484L131.224 100.525C132.445 92.4377 133.666 84.96 133.818 82.8236C134.276 77.6345 128.783 79.7708 128.783 79.7708Z" fill="#1B92D1"/>
<path d="M223.876 35.344V39.18H218.668V55H213.88V39.18H208.672V35.344H223.876ZM241.007 46.936C241.007 47.384 240.979 47.8507 240.923 48.336H230.087C230.162 49.3067 230.47 50.0533 231.011 50.576C231.571 51.08 232.252 51.332 233.055 51.332C234.25 51.332 235.08 50.828 235.547 49.82H240.643C240.382 50.8467 239.906 51.7707 239.215 52.592C238.543 53.4133 237.694 54.0573 236.667 54.524C235.64 54.9907 234.492 55.224 233.223 55.224C231.692 55.224 230.33 54.8973 229.135 54.244C227.94 53.5907 227.007 52.6573 226.335 51.444C225.663 50.2307 225.327 48.812 225.327 47.188C225.327 45.564 225.654 44.1453 226.307 42.932C226.979 41.7187 227.912 40.7853 229.107 40.132C230.302 39.4787 231.674 39.152 233.223 39.152C234.735 39.152 236.079 39.4693 237.255 40.104C238.431 40.7387 239.346 41.644 239.999 42.82C240.671 43.996 241.007 45.368 241.007 46.936ZM236.107 45.676C236.107 44.8547 235.827 44.2013 235.267 43.716C234.707 43.2307 234.007 42.988 233.167 42.988C232.364 42.988 231.683 43.2213 231.123 43.688C230.582 44.1547 230.246 44.8173 230.115 45.676H236.107ZM248.321 34.28V55H243.533V34.28H248.321ZM266.519 46.936C266.519 47.384 266.491 47.8507 266.435 48.336H255.599C255.673 49.3067 255.981 50.0533 256.523 50.576C257.083 51.08 257.764 51.332 258.567 51.332C259.761 51.332 260.592 50.828 261.059 49.82H266.155C265.893 50.8467 265.417 51.7707 264.727 52.592C264.055 53.4133 263.205 54.0573 262.179 54.524C261.152 54.9907 260.004 55.224 258.735 55.224C257.204 55.224 255.841 54.8973 254.647 54.244C253.452 53.5907 252.519 52.6573 251.847 51.444C251.175 50.2307 250.839 48.812 250.839 47.188C250.839 45.564 251.165 44.1453 251.819 42.932C252.491 41.7187 253.424 40.7853 254.619 40.132C255.813 39.4787 257.185 39.152 258.735 39.152C260.247 39.152 261.591 39.4693 262.767 40.104C263.943 40.7387 264.857 41.644 265.511 42.82C266.183 43.996 266.519 45.368 266.519 46.936ZM261.619 45.676C261.619 44.8547 261.339 44.2013 260.779 43.716C260.219 43.2307 259.519 42.988 258.679 42.988C257.876 42.988 257.195 43.2213 256.635 43.688C256.093 44.1547 255.757 44.8173 255.627 45.676H261.619ZM274.981 39.152C276.082 39.152 277.043 39.376 277.865 39.824C278.705 40.272 279.349 40.86 279.797 41.588V39.376H284.585V54.972C284.585 56.4093 284.295 57.7067 283.717 58.864C283.157 60.04 282.289 60.9733 281.113 61.664C279.955 62.3547 278.509 62.7 276.773 62.7C274.458 62.7 272.582 62.1493 271.145 61.048C269.707 59.9653 268.886 58.4907 268.681 56.624H273.413C273.562 57.2213 273.917 57.688 274.477 58.024C275.037 58.3787 275.727 58.556 276.549 58.556C277.538 58.556 278.322 58.2667 278.901 57.688C279.498 57.128 279.797 56.2227 279.797 54.972V52.76C279.33 53.488 278.686 54.0853 277.865 54.552C277.043 55 276.082 55.224 274.981 55.224C273.693 55.224 272.526 54.8973 271.481 54.244C270.435 53.572 269.605 52.6293 268.989 51.416C268.391 50.184 268.093 48.7653 268.093 47.16C268.093 45.5547 268.391 44.1453 268.989 42.932C269.605 41.7187 270.435 40.7853 271.481 40.132C272.526 39.4787 273.693 39.152 274.981 39.152ZM279.797 47.188C279.797 45.9933 279.461 45.0507 278.789 44.36C278.135 43.6693 277.333 43.324 276.381 43.324C275.429 43.324 274.617 43.6693 273.945 44.36C273.291 45.032 272.965 45.9653 272.965 47.16C272.965 48.3547 273.291 49.3067 273.945 50.016C274.617 50.7067 275.429 51.052 276.381 51.052C277.333 51.052 278.135 50.7067 278.789 50.016C279.461 49.3253 279.797 48.3827 279.797 47.188ZM292.837 41.98C293.397 41.1213 294.097 40.4493 294.937 39.964C295.777 39.46 296.71 39.208 297.737 39.208V44.276H296.421C295.226 44.276 294.33 44.5373 293.733 45.06C293.135 45.564 292.837 46.46 292.837 47.748V55H288.049V39.376H292.837V41.98ZM299.073 47.16C299.073 45.5547 299.372 44.1453 299.969 42.932C300.585 41.7187 301.416 40.7853 302.461 40.132C303.506 39.4787 304.673 39.152 305.961 39.152C307.062 39.152 308.024 39.376 308.845 39.824C309.685 40.272 310.329 40.86 310.777 41.588V39.376H315.565V55H310.777V52.788C310.31 53.516 309.657 54.104 308.817 54.552C307.996 55 307.034 55.224 305.933 55.224C304.664 55.224 303.506 54.8973 302.461 54.244C301.416 53.572 300.585 52.6293 299.969 51.416C299.372 50.184 299.073 48.7653 299.073 47.16ZM310.777 47.188C310.777 45.9933 310.441 45.0507 309.769 44.36C309.116 43.6693 308.313 43.324 307.361 43.324C306.409 43.324 305.597 43.6693 304.925 44.36C304.272 45.032 303.945 45.9653 303.945 47.16C303.945 48.3547 304.272 49.3067 304.925 50.016C305.597 50.7067 306.409 51.052 307.361 51.052C308.313 51.052 309.116 50.7067 309.769 50.016C310.441 49.3253 310.777 48.3827 310.777 47.188ZM338.965 39.208C340.906 39.208 342.446 39.796 343.585 40.972C344.742 42.148 345.321 43.7813 345.321 45.872V55H340.561V46.516C340.561 45.508 340.29 44.7333 339.749 44.192C339.226 43.632 338.498 43.352 337.565 43.352C336.632 43.352 335.894 43.632 335.353 44.192C334.83 44.7333 334.569 45.508 334.569 46.516V55H329.809V46.516C329.809 45.508 329.538 44.7333 328.997 44.192C328.474 43.632 327.746 43.352 326.813 43.352C325.88 43.352 325.142 43.632 324.601 44.192C324.078 44.7333 323.817 45.508 323.817 46.516V55H319.029V39.376H323.817V41.336C324.302 40.6827 324.937 40.1693 325.721 39.796C326.505 39.404 327.392 39.208 328.381 39.208C329.557 39.208 330.602 39.46 331.517 39.964C332.45 40.468 333.178 41.1867 333.701 42.12C334.242 41.2613 334.98 40.5613 335.913 40.02C336.846 39.4787 337.864 39.208 338.965 39.208ZM364.151 55L359.391 48.448V55H354.603V34.28H359.391V45.732L364.123 39.376H370.031L363.535 47.216L370.087 55H364.151ZM370.96 47.16C370.96 45.5547 371.258 44.1453 371.856 42.932C372.472 41.7187 373.302 40.7853 374.348 40.132C375.393 39.4787 376.56 39.152 377.848 39.152C378.949 39.152 379.91 39.376 380.732 39.824C381.572 40.272 382.216 40.86 382.664 41.588V39.376H387.452V55H382.664V52.788C382.197 53.516 381.544 54.104 380.704 54.552C379.882 55 378.921 55.224 377.82 55.224C376.55 55.224 375.393 54.8973 374.348 54.244C373.302 53.572 372.472 52.6293 371.856 51.416C371.258 50.184 370.96 48.7653 370.96 47.16ZM382.664 47.188C382.664 45.9933 382.328 45.0507 381.656 44.36C381.002 43.6693 380.2 43.324 379.248 43.324C378.296 43.324 377.484 43.6693 376.812 44.36C376.158 45.032 375.832 45.9653 375.832 47.16C375.832 48.3547 376.158 49.3067 376.812 50.016C377.484 50.7067 378.296 51.052 379.248 51.052C380.2 51.052 381.002 50.7067 381.656 50.016C382.328 49.3253 382.664 48.3827 382.664 47.188ZM400.436 39.208C402.265 39.208 403.721 39.8053 404.804 41C405.905 42.176 406.456 43.8 406.456 45.872V55H401.696V46.516C401.696 45.4707 401.425 44.6587 400.884 44.08C400.342 43.5013 399.614 43.212 398.7 43.212C397.785 43.212 397.057 43.5013 396.516 44.08C395.974 44.6587 395.704 45.4707 395.704 46.516V55H390.916V39.376H395.704V41.448C396.189 40.7573 396.842 40.216 397.664 39.824C398.485 39.4133 399.409 39.208 400.436 39.208ZM408.831 47.16C408.831 45.5547 409.13 44.1453 409.727 42.932C410.343 41.7187 411.174 40.7853 412.219 40.132C413.264 39.4787 414.431 39.152 415.719 39.152C416.82 39.152 417.782 39.376 418.603 39.824C419.443 40.272 420.087 40.86 420.535 41.588V39.376H425.323V55H420.535V52.788C420.068 53.516 419.415 54.104 418.575 54.552C417.754 55 416.792 55.224 415.691 55.224C414.422 55.224 413.264 54.8973 412.219 54.244C411.174 53.572 410.343 52.6293 409.727 51.416C409.13 50.184 408.831 48.7653 408.831 47.16ZM420.535 47.188C420.535 45.9933 420.199 45.0507 419.527 44.36C418.874 43.6693 418.071 43.324 417.119 43.324C416.167 43.324 415.355 43.6693 414.683 44.36C414.03 45.032 413.703 45.9653 413.703 47.16C413.703 48.3547 414.03 49.3067 414.683 50.016C415.355 50.7067 416.167 51.052 417.119 51.052C418.071 51.052 418.874 50.7067 419.527 50.016C420.199 49.3253 420.535 48.3827 420.535 47.188ZM433.575 34.28V55H428.787V34.28H433.575Z" fill="white"/>
<path d="M215.668 91.538C216.124 91.61 216.538 91.796 216.91 92.096C217.294 92.396 217.594 92.768 217.81 93.212C218.038 93.656 218.152 94.13 218.152 94.634C218.152 95.27 217.99 95.846 217.666 96.362C217.342 96.866 216.868 97.268 216.244 97.568C215.632 97.856 214.906 98 214.066 98H209.386V85.454H213.886C214.738 85.454 215.464 85.598 216.064 85.886C216.664 86.162 217.114 86.54 217.414 87.02C217.714 87.5 217.864 88.04 217.864 88.64C217.864 89.384 217.66 90.002 217.252 90.494C216.856 90.974 216.328 91.322 215.668 91.538ZM211.024 90.872H213.778C214.546 90.872 215.14 90.692 215.56 90.332C215.98 89.972 216.19 89.474 216.19 88.838C216.19 88.202 215.98 87.704 215.56 87.344C215.14 86.984 214.534 86.804 213.742 86.804H211.024V90.872ZM213.922 96.65C214.738 96.65 215.374 96.458 215.83 96.074C216.286 95.69 216.514 95.156 216.514 94.472C216.514 93.776 216.274 93.23 215.794 92.834C215.314 92.426 214.672 92.222 213.868 92.222H211.024V96.65H213.922ZM219.813 93.032C219.813 92.024 220.017 91.142 220.425 90.386C220.833 89.618 221.391 89.024 222.099 88.604C222.819 88.184 223.617 87.974 224.493 87.974C225.357 87.974 226.107 88.16 226.743 88.532C227.379 88.904 227.853 89.372 228.165 89.936V88.136H229.821V98H228.165V96.164C227.841 96.74 227.355 97.22 226.707 97.604C226.071 97.976 225.327 98.162 224.475 98.162C223.599 98.162 222.807 97.946 222.099 97.514C221.391 97.082 220.833 96.476 220.425 95.696C220.017 94.916 219.813 94.028 219.813 93.032ZM228.165 93.05C228.165 92.306 228.015 91.658 227.715 91.106C227.415 90.554 227.007 90.134 226.491 89.846C225.987 89.546 225.429 89.396 224.817 89.396C224.205 89.396 223.647 89.54 223.143 89.828C222.639 90.116 222.237 90.536 221.937 91.088C221.637 91.64 221.487 92.288 221.487 93.032C221.487 93.788 221.637 94.448 221.937 95.012C222.237 95.564 222.639 95.99 223.143 96.29C223.647 96.578 224.205 96.722 224.817 96.722C225.429 96.722 225.987 96.578 226.491 96.29C227.007 95.99 227.415 95.564 227.715 95.012C228.015 94.448 228.165 93.794 228.165 93.05ZM234.227 89.738C234.515 89.174 234.923 88.736 235.451 88.424C235.991 88.112 236.645 87.956 237.413 87.956V89.648H236.981C235.145 89.648 234.227 90.644 234.227 92.636V98H232.589V88.136H234.227V89.738ZM238.692 93.05C238.692 92.03 238.896 91.142 239.304 90.386C239.712 89.618 240.276 89.024 240.996 88.604C241.728 88.184 242.562 87.974 243.498 87.974C244.71 87.974 245.706 88.268 246.486 88.856C247.278 89.444 247.8 90.26 248.052 91.304H246.288C246.12 90.704 245.79 90.23 245.298 89.882C244.818 89.534 244.218 89.36 243.498 89.36C242.562 89.36 241.806 89.684 241.23 90.332C240.654 90.968 240.366 91.874 240.366 93.05C240.366 94.238 240.654 95.156 241.23 95.804C241.806 96.452 242.562 96.776 243.498 96.776C244.218 96.776 244.818 96.608 245.298 96.272C245.778 95.936 246.108 95.456 246.288 94.832H248.052C247.788 95.84 247.26 96.65 246.468 97.262C245.676 97.862 244.686 98.162 243.498 98.162C242.562 98.162 241.728 97.952 240.996 97.532C240.276 97.112 239.712 96.518 239.304 95.75C238.896 94.982 238.692 94.082 238.692 93.05ZM255.134 87.956C255.878 87.956 256.55 88.118 257.15 88.442C257.75 88.754 258.218 89.228 258.554 89.864C258.902 90.5 259.076 91.274 259.076 92.186V98H257.456V92.42C257.456 91.436 257.21 90.686 256.718 90.17C256.226 89.642 255.554 89.378 254.702 89.378C253.838 89.378 253.148 89.648 252.632 90.188C252.128 90.728 251.876 91.514 251.876 92.546V98H250.238V84.68H251.876V89.54C252.2 89.036 252.644 88.646 253.208 88.37C253.784 88.094 254.426 87.956 255.134 87.956ZM261.139 93.032C261.139 92.024 261.343 91.142 261.751 90.386C262.159 89.618 262.717 89.024 263.425 88.604C264.145 88.184 264.943 87.974 265.819 87.974C266.683 87.974 267.433 88.16 268.069 88.532C268.705 88.904 269.179 89.372 269.491 89.936V88.136H271.147V98H269.491V96.164C269.167 96.74 268.681 97.22 268.033 97.604C267.397 97.976 266.653 98.162 265.801 98.162C264.925 98.162 264.133 97.946 263.425 97.514C262.717 97.082 262.159 96.476 261.751 95.696C261.343 94.916 261.139 94.028 261.139 93.032ZM269.491 93.05C269.491 92.306 269.341 91.658 269.041 91.106C268.741 90.554 268.333 90.134 267.817 89.846C267.313 89.546 266.755 89.396 266.143 89.396C265.531 89.396 264.973 89.54 264.469 89.828C263.965 90.116 263.563 90.536 263.263 91.088C262.963 91.64 262.813 92.288 262.813 93.032C262.813 93.788 262.963 94.448 263.263 95.012C263.563 95.564 263.965 95.99 264.469 96.29C264.973 96.578 265.531 96.722 266.143 96.722C266.755 96.722 267.313 96.578 267.817 96.29C268.333 95.99 268.741 95.564 269.041 95.012C269.341 94.448 269.491 93.794 269.491 93.05ZM280.352 84.68V98H278.714V84.68H280.352ZM287.446 98.162C286.522 98.162 285.682 97.952 284.926 97.532C284.182 97.112 283.594 96.518 283.162 95.75C282.742 94.97 282.532 94.07 282.532 93.05C282.532 92.042 282.748 91.154 283.18 90.386C283.624 89.606 284.224 89.012 284.98 88.604C285.736 88.184 286.582 87.974 287.518 87.974C288.454 87.974 289.3 88.184 290.056 88.604C290.812 89.012 291.406 89.6 291.838 90.368C292.282 91.136 292.504 92.03 292.504 93.05C292.504 94.07 292.276 94.97 291.82 95.75C291.376 96.518 290.77 97.112 290.002 97.532C289.234 97.952 288.382 98.162 287.446 98.162ZM287.446 96.722C288.034 96.722 288.586 96.584 289.102 96.308C289.618 96.032 290.032 95.618 290.344 95.066C290.668 94.514 290.83 93.842 290.83 93.05C290.83 92.258 290.674 91.586 290.362 91.034C290.05 90.482 289.642 90.074 289.138 89.81C288.634 89.534 288.088 89.396 287.5 89.396C286.9 89.396 286.348 89.534 285.844 89.81C285.352 90.074 284.956 90.482 284.656 91.034C284.356 91.586 284.206 92.258 284.206 93.05C284.206 93.854 284.35 94.532 284.638 95.084C284.938 95.636 285.334 96.05 285.826 96.326C286.318 96.59 286.858 96.722 287.446 96.722ZM303.153 88.136L297.213 102.644H295.521L297.465 97.892L293.487 88.136H295.305L298.401 96.128L301.461 88.136H303.153ZM305.646 86.534C305.334 86.534 305.07 86.426 304.854 86.21C304.638 85.994 304.53 85.73 304.53 85.418C304.53 85.106 304.638 84.842 304.854 84.626C305.07 84.41 305.334 84.302 305.646 84.302C305.946 84.302 306.198 84.41 306.402 84.626C306.618 84.842 306.726 85.106 306.726 85.418C306.726 85.73 306.618 85.994 306.402 86.21C306.198 86.426 305.946 86.534 305.646 86.534ZM306.438 88.136V98H304.8V88.136H306.438ZM314.126 87.956C314.87 87.956 315.542 88.118 316.142 88.442C316.742 88.754 317.21 89.228 317.546 89.864C317.894 90.5 318.068 91.274 318.068 92.186V98H316.448V92.42C316.448 91.436 316.202 90.686 315.71 90.17C315.218 89.642 314.546 89.378 313.694 89.378C312.83 89.378 312.14 89.648 311.624 90.188C311.12 90.728 310.868 91.514 310.868 92.546V98H309.23V84.68H310.868V89.54C311.192 89.036 311.636 88.646 312.2 88.37C312.776 88.094 313.418 87.956 314.126 87.956ZM320.131 93.032C320.131 92.024 320.335 91.142 320.743 90.386C321.151 89.618 321.709 89.024 322.417 88.604C323.137 88.184 323.935 87.974 324.811 87.974C325.675 87.974 326.425 88.16 327.061 88.532C327.697 88.904 328.171 89.372 328.483 89.936V88.136H330.139V98H328.483V96.164C328.159 96.74 327.673 97.22 327.025 97.604C326.389 97.976 325.645 98.162 324.793 98.162C323.917 98.162 323.125 97.946 322.417 97.514C321.709 97.082 321.151 96.476 320.743 95.696C320.335 94.916 320.131 94.028 320.131 93.032ZM328.483 93.05C328.483 92.306 328.333 91.658 328.033 91.106C327.733 90.554 327.325 90.134 326.809 89.846C326.305 89.546 325.747 89.396 325.135 89.396C324.523 89.396 323.965 89.54 323.461 89.828C322.957 90.116 322.555 90.536 322.255 91.088C321.955 91.64 321.805 92.288 321.805 93.032C321.805 93.788 321.955 94.448 322.255 95.012C322.555 95.564 322.957 95.99 323.461 96.29C323.965 96.578 324.523 96.722 325.135 96.722C325.747 96.722 326.305 96.578 326.809 96.29C327.325 95.99 327.733 95.564 328.033 95.012C328.333 94.448 328.483 93.794 328.483 93.05ZM334.545 84.68V98H332.907V84.68H334.545ZM336.725 93.032C336.725 92.024 336.929 91.142 337.337 90.386C337.745 89.618 338.303 89.024 339.011 88.604C339.731 88.184 340.529 87.974 341.405 87.974C342.269 87.974 343.019 88.16 343.655 88.532C344.291 88.904 344.765 89.372 345.077 89.936V88.136H346.733V98H345.077V96.164C344.753 96.74 344.267 97.22 343.619 97.604C342.983 97.976 342.239 98.162 341.387 98.162C340.511 98.162 339.719 97.946 339.011 97.514C338.303 97.082 337.745 96.476 337.337 95.696C336.929 94.916 336.725 94.028 336.725 93.032ZM345.077 93.05C345.077 92.306 344.927 91.658 344.627 91.106C344.327 90.554 343.919 90.134 343.403 89.846C342.899 89.546 342.341 89.396 341.729 89.396C341.117 89.396 340.559 89.54 340.055 89.828C339.551 90.116 339.149 90.536 338.849 91.088C338.549 91.64 338.399 92.288 338.399 93.032C338.399 93.788 338.549 94.448 338.849 95.012C339.149 95.564 339.551 95.99 340.055 96.29C340.559 96.578 341.117 96.722 341.729 96.722C342.341 96.722 342.899 96.578 343.403 96.29C343.919 95.99 344.327 95.564 344.627 95.012C344.927 94.448 345.077 93.794 345.077 93.05ZM351.139 89.738C351.427 89.174 351.835 88.736 352.363 88.424C352.903 88.112 353.557 87.956 354.325 87.956V89.648H353.893C352.057 89.648 351.139 90.644 351.139 92.636V98H349.501V88.136H351.139V89.738ZM357.062 86.534C356.75 86.534 356.486 86.426 356.27 86.21C356.054 85.994 355.946 85.73 355.946 85.418C355.946 85.106 356.054 84.842 356.27 84.626C356.486 84.41 356.75 84.302 357.062 84.302C357.362 84.302 357.614 84.41 357.818 84.626C358.034 84.842 358.142 85.106 358.142 85.418C358.142 85.73 358.034 85.994 357.818 86.21C357.614 86.426 357.362 86.534 357.062 86.534ZM357.854 88.136V98H356.216V88.136H357.854ZM372.508 87.956C373.276 87.956 373.96 88.118 374.56 88.442C375.16 88.754 375.634 89.228 375.982 89.864C376.33 90.5 376.504 91.274 376.504 92.186V98H374.884V92.42C374.884 91.436 374.638 90.686 374.146 90.17C373.666 89.642 373.012 89.378 372.184 89.378C371.332 89.378 370.654 89.654 370.15 90.206C369.646 90.746 369.394 91.532 369.394 92.564V98H367.774V92.42C367.774 91.436 367.528 90.686 367.036 90.17C366.556 89.642 365.902 89.378 365.074 89.378C364.222 89.378 363.544 89.654 363.04 90.206C362.536 90.746 362.284 91.532 362.284 92.564V98H360.646V88.136H362.284V89.558C362.608 89.042 363.04 88.646 363.58 88.37C364.132 88.094 364.738 87.956 365.398 87.956C366.226 87.956 366.958 88.142 367.594 88.514C368.23 88.886 368.704 89.432 369.016 90.152C369.292 89.456 369.748 88.916 370.384 88.532C371.02 88.148 371.728 87.956 372.508 87.956ZM383.997 87.956C385.197 87.956 386.169 88.322 386.913 89.054C387.657 89.774 388.029 90.818 388.029 92.186V98H386.409V92.42C386.409 91.436 386.163 90.686 385.671 90.17C385.179 89.642 384.507 89.378 383.655 89.378C382.791 89.378 382.101 89.648 381.585 90.188C381.081 90.728 380.829 91.514 380.829 92.546V98H379.191V88.136H380.829V89.54C381.153 89.036 381.591 88.646 382.143 88.37C382.707 88.094 383.325 87.956 383.997 87.956ZM391.55 86.534C391.238 86.534 390.974 86.426 390.758 86.21C390.542 85.994 390.434 85.73 390.434 85.418C390.434 85.106 390.542 84.842 390.758 84.626C390.974 84.41 391.238 84.302 391.55 84.302C391.85 84.302 392.102 84.41 392.306 84.626C392.522 84.842 392.63 85.106 392.63 85.418C392.63 85.73 392.522 85.994 392.306 86.21C392.102 86.426 391.85 86.534 391.55 86.534ZM392.342 88.136V98H390.704V88.136H392.342ZM401.931 89.486V95.3C401.931 95.78 402.033 96.122 402.237 96.326C402.441 96.518 402.795 96.614 403.299 96.614H404.505V98H403.029C402.117 98 401.433 97.79 400.977 97.37C400.521 96.95 400.293 96.26 400.293 95.3V89.486H399.015V88.136H400.293V85.652H401.931V88.136H404.505V89.486H401.931ZM415.49 92.69C415.49 93.002 415.472 93.332 415.436 93.68H407.552C407.612 94.652 407.942 95.414 408.542 95.966C409.154 96.506 409.892 96.776 410.756 96.776C411.464 96.776 412.052 96.614 412.52 96.29C413 95.954 413.336 95.51 413.528 94.958H415.292C415.028 95.906 414.5 96.68 413.708 97.28C412.916 97.868 411.932 98.162 410.756 98.162C409.82 98.162 408.98 97.952 408.236 97.532C407.504 97.112 406.928 96.518 406.508 95.75C406.088 94.97 405.878 94.07 405.878 93.05C405.878 92.03 406.082 91.136 406.49 90.368C406.898 89.6 407.468 89.012 408.2 88.604C408.944 88.184 409.796 87.974 410.756 87.974C411.692 87.974 412.52 88.178 413.24 88.586C413.96 88.994 414.512 89.558 414.896 90.278C415.292 90.986 415.49 91.79 415.49 92.69ZM413.798 92.348C413.798 91.724 413.66 91.19 413.384 90.746C413.108 90.29 412.73 89.948 412.25 89.72C411.782 89.48 411.26 89.36 410.684 89.36C409.856 89.36 409.148 89.624 408.56 90.152C407.984 90.68 407.654 91.412 407.57 92.348H413.798ZM419.29 84.68V98H417.652V84.68H419.29ZM431.081 92.69C431.081 93.002 431.063 93.332 431.027 93.68H423.143C423.203 94.652 423.533 95.414 424.133 95.966C424.745 96.506 425.483 96.776 426.347 96.776C427.055 96.776 427.643 96.614 428.111 96.29C428.591 95.954 428.927 95.51 429.119 94.958H430.883C430.619 95.906 430.091 96.68 429.299 97.28C428.507 97.868 427.523 98.162 426.347 98.162C425.411 98.162 424.571 97.952 423.827 97.532C423.095 97.112 422.519 96.518 422.099 95.75C421.679 94.97 421.469 94.07 421.469 93.05C421.469 92.03 421.673 91.136 422.081 90.368C422.489 89.6 423.059 89.012 423.791 88.604C424.535 88.184 425.387 87.974 426.347 87.974C427.283 87.974 428.111 88.178 428.831 88.586C429.551 88.994 430.103 89.558 430.487 90.278C430.883 90.986 431.081 91.79 431.081 92.69ZM429.389 92.348C429.389 91.724 429.251 91.19 428.975 90.746C428.699 90.29 428.321 89.948 427.841 89.72C427.373 89.48 426.851 89.36 426.275 89.36C425.447 89.36 424.739 89.624 424.151 90.152C423.575 90.68 423.245 91.412 423.161 92.348H429.389ZM437.311 87.974C438.163 87.974 438.907 88.16 439.543 88.532C440.191 88.904 440.671 89.372 440.983 89.936V88.136H442.639V98.216C442.639 99.116 442.447 99.914 442.063 100.61C441.679 101.318 441.127 101.87 440.407 102.266C439.699 102.662 438.871 102.86 437.923 102.86C436.627 102.86 435.547 102.554 434.683 101.942C433.819 101.33 433.309 100.496 433.153 99.44H434.773C434.953 100.04 435.325 100.52 435.889 100.88C436.453 101.252 437.131 101.438 437.923 101.438C438.823 101.438 439.555 101.156 440.119 100.592C440.695 100.028 440.983 99.236 440.983 98.216V96.146C440.659 96.722 440.179 97.202 439.543 97.586C438.907 97.97 438.163 98.162 437.311 98.162C436.435 98.162 435.637 97.946 434.917 97.514C434.209 97.082 433.651 96.476 433.243 95.696C432.835 94.916 432.631 94.028 432.631 93.032C432.631 92.024 432.835 91.142 433.243 90.386C433.651 89.618 434.209 89.024 434.917 88.604C435.637 88.184 436.435 87.974 437.311 87.974ZM440.983 93.05C440.983 92.306 440.833 91.658 440.533 91.106C440.233 90.554 439.825 90.134 439.309 89.846C438.805 89.546 438.247 89.396 437.635 89.396C437.023 89.396 436.465 89.54 435.961 89.828C435.457 90.116 435.055 90.536 434.755 91.088C434.455 91.64 434.305 92.288 434.305 93.032C434.305 93.788 434.455 94.448 434.755 95.012C435.055 95.564 435.457 95.99 435.961 96.29C436.465 96.578 437.023 96.722 437.635 96.722C438.247 96.722 438.805 96.578 439.309 96.29C439.825 95.99 440.233 95.564 440.533 95.012C440.833 94.448 440.983 93.794 440.983 93.05ZM447.045 89.738C447.333 89.174 447.741 88.736 448.269 88.424C448.809 88.112 449.463 87.956 450.231 87.956V89.648H449.799C447.963 89.648 447.045 90.644 447.045 92.636V98H445.407V88.136H447.045V89.738ZM451.51 93.032C451.51 92.024 451.714 91.142 452.122 90.386C452.53 89.618 453.088 89.024 453.796 88.604C454.516 88.184 455.314 87.974 456.19 87.974C457.054 87.974 457.804 88.16 458.44 88.532C459.076 88.904 459.55 89.372 459.862 89.936V88.136H461.518V98H459.862V96.164C459.538 96.74 459.052 97.22 458.404 97.604C457.768 97.976 457.024 98.162 456.172 98.162C455.296 98.162 454.504 97.946 453.796 97.514C453.088 97.082 452.53 96.476 452.122 95.696C451.714 94.916 451.51 94.028 451.51 93.032ZM459.862 93.05C459.862 92.306 459.712 91.658 459.412 91.106C459.112 90.554 458.704 90.134 458.188 89.846C457.684 89.546 457.126 89.396 456.514 89.396C455.902 89.396 455.344 89.54 454.84 89.828C454.336 90.116 453.934 90.536 453.634 91.088C453.334 91.64 453.184 92.288 453.184 93.032C453.184 93.788 453.334 94.448 453.634 95.012C453.934 95.564 454.336 95.99 454.84 96.29C455.344 96.578 455.902 96.722 456.514 96.722C457.126 96.722 457.684 96.578 458.188 96.29C458.704 95.99 459.112 95.564 459.412 95.012C459.712 94.448 459.862 93.794 459.862 93.05ZM476.148 87.956C476.916 87.956 477.6 88.118 478.2 88.442C478.8 88.754 479.274 89.228 479.622 89.864C479.97 90.5 480.144 91.274 480.144 92.186V98H478.524V92.42C478.524 91.436 478.278 90.686 477.786 90.17C477.306 89.642 476.652 89.378 475.824 89.378C474.972 89.378 474.294 89.654 473.79 90.206C473.286 90.746 473.034 91.532 473.034 92.564V98H471.414V92.42C471.414 91.436 471.168 90.686 470.676 90.17C470.196 89.642 469.542 89.378 468.714 89.378C467.862 89.378 467.184 89.654 466.68 90.206C466.176 90.746 465.924 91.532 465.924 92.564V98H464.286V88.136H465.924V89.558C466.248 89.042 466.68 88.646 467.22 88.37C467.772 88.094 468.378 87.956 469.038 87.956C469.866 87.956 470.598 88.142 471.234 88.514C471.87 88.886 472.344 89.432 472.656 90.152C472.932 89.456 473.388 88.916 474.024 88.532C474.66 88.148 475.368 87.956 476.148 87.956ZM493.138 98L489.268 93.644V98H487.63V84.68H489.268V92.51L493.066 88.136H495.352L490.708 93.05L495.37 98H493.138ZM496.282 93.032C496.282 92.024 496.486 91.142 496.894 90.386C497.302 89.618 497.86 89.024 498.568 88.604C499.288 88.184 500.086 87.974 500.962 87.974C501.826 87.974 502.576 88.16 503.212 88.532C503.848 88.904 504.322 89.372 504.634 89.936V88.136H506.29V98H504.634V96.164C504.31 96.74 503.824 97.22 503.176 97.604C502.54 97.976 501.796 98.162 500.944 98.162C500.068 98.162 499.276 97.946 498.568 97.514C497.86 97.082 497.302 96.476 496.894 95.696C496.486 94.916 496.282 94.028 496.282 93.032ZM504.634 93.05C504.634 92.306 504.484 91.658 504.184 91.106C503.884 90.554 503.476 90.134 502.96 89.846C502.456 89.546 501.898 89.396 501.286 89.396C500.674 89.396 500.116 89.54 499.612 89.828C499.108 90.116 498.706 90.536 498.406 91.088C498.106 91.64 497.956 92.288 497.956 93.032C497.956 93.788 498.106 94.448 498.406 95.012C498.706 95.564 499.108 95.99 499.612 96.29C500.116 96.578 500.674 96.722 501.286 96.722C501.898 96.722 502.456 96.578 502.96 96.29C503.476 95.99 503.884 95.564 504.184 95.012C504.484 94.448 504.634 93.794 504.634 93.05ZM513.864 87.956C515.064 87.956 516.036 88.322 516.78 89.054C517.524 89.774 517.896 90.818 517.896 92.186V98H516.276V92.42C516.276 91.436 516.03 90.686 515.538 90.17C515.046 89.642 514.374 89.378 513.522 89.378C512.658 89.378 511.968 89.648 511.452 90.188C510.948 90.728 510.696 91.514 510.696 92.546V98H509.058V88.136H510.696V89.54C511.02 89.036 511.458 88.646 512.01 88.37C512.574 88.094 513.192 87.956 513.864 87.956ZM519.96 93.032C519.96 92.024 520.164 91.142 520.572 90.386C520.98 89.618 521.538 89.024 522.246 88.604C522.966 88.184 523.764 87.974 524.64 87.974C525.504 87.974 526.254 88.16 526.89 88.532C527.526 88.904 528 89.372 528.312 89.936V88.136H529.968V98H528.312V96.164C527.988 96.74 527.502 97.22 526.854 97.604C526.218 97.976 525.474 98.162 524.622 98.162C523.746 98.162 522.954 97.946 522.246 97.514C521.538 97.082 520.98 96.476 520.572 95.696C520.164 94.916 519.96 94.028 519.96 93.032ZM528.312 93.05C528.312 92.306 528.162 91.658 527.862 91.106C527.562 90.554 527.154 90.134 526.638 89.846C526.134 89.546 525.576 89.396 524.964 89.396C524.352 89.396 523.794 89.54 523.29 89.828C522.786 90.116 522.384 90.536 522.084 91.088C521.784 91.64 521.634 92.288 521.634 93.032C521.634 93.788 521.784 94.448 522.084 95.012C522.384 95.564 522.786 95.99 523.29 96.29C523.794 96.578 524.352 96.722 524.964 96.722C525.576 96.722 526.134 96.578 526.638 96.29C527.154 95.99 527.562 95.564 527.862 95.012C528.162 94.448 528.312 93.794 528.312 93.05ZM534.374 84.68V98H532.736V84.68H534.374ZM538.011 86.534C537.699 86.534 537.435 86.426 537.219 86.21C537.003 85.994 536.895 85.73 536.895 85.418C536.895 85.106 537.003 84.842 537.219 84.626C537.435 84.41 537.699 84.302 538.011 84.302C538.311 84.302 538.563 84.41 538.767 84.626C538.983 84.842 539.091 85.106 539.091 85.418C539.091 85.73 538.983 85.994 538.767 86.21C538.563 86.426 538.311 86.534 538.011 86.534ZM538.803 88.136V98H537.165V88.136H538.803ZM553.457 87.956C554.225 87.956 554.909 88.118 555.509 88.442C556.109 88.754 556.583 89.228 556.931 89.864C557.279 90.5 557.453 91.274 557.453 92.186V98H555.833V92.42C555.833 91.436 555.587 90.686 555.095 90.17C554.615 89.642 553.961 89.378 553.133 89.378C552.281 89.378 551.603 89.654 551.099 90.206C550.595 90.746 550.343 91.532 550.343 92.564V98H548.723V92.42C548.723 91.436 548.477 90.686 547.985 90.17C547.505 89.642 546.851 89.378 546.023 89.378C545.171 89.378 544.493 89.654 543.989 90.206C543.485 90.746 543.233 91.532 543.233 92.564V98H541.595V88.136H543.233V89.558C543.557 89.042 543.989 88.646 544.529 88.37C545.081 88.094 545.687 87.956 546.347 87.956C547.175 87.956 547.907 88.142 548.543 88.514C549.179 88.886 549.653 89.432 549.965 90.152C550.241 89.456 550.697 88.916 551.333 88.532C551.969 88.148 552.677 87.956 553.457 87.956ZM559.528 93.032C559.528 92.024 559.732 91.142 560.14 90.386C560.548 89.618 561.106 89.024 561.814 88.604C562.534 88.184 563.338 87.974 564.226 87.974C564.994 87.974 565.708 88.154 566.368 88.514C567.028 88.862 567.532 89.324 567.88 89.9V84.68H569.536V98H567.88V96.146C567.556 96.734 567.076 97.22 566.44 97.604C565.804 97.976 565.06 98.162 564.208 98.162C563.332 98.162 562.534 97.946 561.814 97.514C561.106 97.082 560.548 96.476 560.14 95.696C559.732 94.916 559.528 94.028 559.528 93.032ZM567.88 93.05C567.88 92.306 567.73 91.658 567.43 91.106C567.13 90.554 566.722 90.134 566.206 89.846C565.702 89.546 565.144 89.396 564.532 89.396C563.92 89.396 563.362 89.54 562.858 89.828C562.354 90.116 561.952 90.536 561.652 91.088C561.352 91.64 561.202 92.288 561.202 93.032C561.202 93.788 561.352 94.448 561.652 95.012C561.952 95.564 562.354 95.99 562.858 96.29C563.362 96.578 563.92 96.722 564.532 96.722C565.144 96.722 565.702 96.578 566.206 96.29C566.722 95.99 567.13 95.564 567.43 95.012C567.73 94.448 567.88 93.794 567.88 93.05ZM571.692 93.032C571.692 92.024 571.896 91.142 572.304 90.386C572.712 89.618 573.27 89.024 573.978 88.604C574.698 88.184 575.496 87.974 576.372 87.974C577.236 87.974 577.986 88.16 578.622 88.532C579.258 88.904 579.732 89.372 580.044 89.936V88.136H581.7V98H580.044V96.164C579.72 96.74 579.234 97.22 578.586 97.604C577.95 97.976 577.206 98.162 576.354 98.162C575.478 98.162 574.686 97.946 573.978 97.514C573.27 97.082 572.712 96.476 572.304 95.696C571.896 94.916 571.692 94.028 571.692 93.032ZM580.044 93.05C580.044 92.306 579.894 91.658 579.594 91.106C579.294 90.554 578.886 90.134 578.37 89.846C577.866 89.546 577.308 89.396 576.696 89.396C576.084 89.396 575.526 89.54 575.022 89.828C574.518 90.116 574.116 90.536 573.816 91.088C573.516 91.64 573.366 92.288 573.366 93.032C573.366 93.788 573.516 94.448 573.816 95.012C574.116 95.564 574.518 95.99 575.022 96.29C575.526 96.578 576.084 96.722 576.696 96.722C577.308 96.722 577.866 96.578 578.37 96.29C578.886 95.99 579.294 95.564 579.594 95.012C579.894 94.448 580.044 93.794 580.044 93.05ZM214.282 114.956C215.026 114.956 215.698 115.118 216.298 115.442C216.898 115.754 217.366 116.228 217.702 116.864C218.05 117.5 218.224 118.274 218.224 119.186V125H216.604V119.42C216.604 118.436 216.358 117.686 215.866 117.17C215.374 116.642 214.702 116.378 213.85 116.378C212.986 116.378 212.296 116.648 211.78 117.188C211.276 117.728 211.024 118.514 211.024 119.546V125H209.386V111.68H211.024V116.54C211.348 116.036 211.792 115.646 212.356 115.37C212.932 115.094 213.574 114.956 214.282 114.956ZM220.288 120.032C220.288 119.024 220.492 118.142 220.9 117.386C221.308 116.618 221.866 116.024 222.574 115.604C223.294 115.184 224.092 114.974 224.968 114.974C225.832 114.974 226.582 115.16 227.218 115.532C227.854 115.904 228.328 116.372 228.64 116.936V115.136H230.296V125H228.64V123.164C228.316 123.74 227.83 124.22 227.182 124.604C226.546 124.976 225.802 125.162 224.95 125.162C224.074 125.162 223.282 124.946 222.574 124.514C221.866 124.082 221.308 123.476 220.9 122.696C220.492 121.916 220.288 121.028 220.288 120.032ZM228.64 120.05C228.64 119.306 228.49 118.658 228.19 118.106C227.89 117.554 227.482 117.134 226.966 116.846C226.462 116.546 225.904 116.396 225.292 116.396C224.68 116.396 224.122 116.54 223.618 116.828C223.114 117.116 222.712 117.536 222.412 118.088C222.112 118.64 221.962 119.288 221.962 120.032C221.962 120.788 222.112 121.448 222.412 122.012C222.712 122.564 223.114 122.99 223.618 123.29C224.122 123.578 224.68 123.722 225.292 123.722C225.904 123.722 226.462 123.578 226.966 123.29C227.482 122.99 227.89 122.564 228.19 122.012C228.49 121.448 228.64 120.794 228.64 120.05ZM244.926 114.956C245.694 114.956 246.378 115.118 246.978 115.442C247.578 115.754 248.052 116.228 248.4 116.864C248.748 117.5 248.922 118.274 248.922 119.186V125H247.302V119.42C247.302 118.436 247.056 117.686 246.564 117.17C246.084 116.642 245.43 116.378 244.602 116.378C243.75 116.378 243.072 116.654 242.568 117.206C242.064 117.746 241.812 118.532 241.812 119.564V125H240.192V119.42C240.192 118.436 239.946 117.686 239.454 117.17C238.974 116.642 238.32 116.378 237.492 116.378C236.64 116.378 235.962 116.654 235.458 117.206C234.954 117.746 234.702 118.532 234.702 119.564V125H233.064V115.136H234.702V116.558C235.026 116.042 235.458 115.646 235.998 115.37C236.55 115.094 237.156 114.956 237.816 114.956C238.644 114.956 239.376 115.142 240.012 115.514C240.648 115.886 241.122 116.432 241.434 117.152C241.71 116.456 242.166 115.916 242.802 115.532C243.438 115.148 244.146 114.956 244.926 114.956ZM261.915 125L258.045 120.644V125H256.407V111.68H258.045V119.51L261.843 115.136H264.129L259.485 120.05L264.147 125H261.915ZM274.419 115.136V125H272.781V123.542C272.469 124.046 272.031 124.442 271.467 124.73C270.915 125.006 270.303 125.144 269.631 125.144C268.863 125.144 268.173 124.988 267.561 124.676C266.949 124.352 266.463 123.872 266.103 123.236C265.755 122.6 265.581 121.826 265.581 120.914V115.136H267.201V120.698C267.201 121.67 267.447 122.42 267.939 122.948C268.431 123.464 269.103 123.722 269.955 123.722C270.831 123.722 271.521 123.452 272.025 122.912C272.529 122.372 272.781 121.586 272.781 120.554V115.136H274.419ZM278.409 123.65H283.251V125H276.537V123.65L281.325 116.468H276.573V115.136H283.215V116.468L278.409 123.65ZM284.764 120.032C284.764 119.024 284.968 118.142 285.376 117.386C285.784 116.618 286.342 116.024 287.05 115.604C287.77 115.184 288.568 114.974 289.444 114.974C290.308 114.974 291.058 115.16 291.694 115.532C292.33 115.904 292.804 116.372 293.116 116.936V115.136H294.772V125H293.116V123.164C292.792 123.74 292.306 124.22 291.658 124.604C291.022 124.976 290.278 125.162 289.426 125.162C288.55 125.162 287.758 124.946 287.05 124.514C286.342 124.082 285.784 123.476 285.376 122.696C284.968 121.916 284.764 121.028 284.764 120.032ZM293.116 120.05C293.116 119.306 292.966 118.658 292.666 118.106C292.366 117.554 291.958 117.134 291.442 116.846C290.938 116.546 290.38 116.396 289.768 116.396C289.156 116.396 288.598 116.54 288.094 116.828C287.59 117.116 287.188 117.536 286.888 118.088C286.588 118.64 286.438 119.288 286.438 120.032C286.438 120.788 286.588 121.448 286.888 122.012C287.188 122.564 287.59 122.99 288.094 123.29C288.598 123.578 289.156 123.722 289.768 123.722C290.38 123.722 290.938 123.578 291.442 123.29C291.958 122.99 292.366 122.564 292.666 122.012C292.966 121.448 293.116 120.794 293.116 120.05ZM299.538 116.486V122.3C299.538 122.78 299.64 123.122 299.844 123.326C300.048 123.518 300.402 123.614 300.906 123.614H302.112V125H300.636C299.724 125 299.04 124.79 298.584 124.37C298.128 123.95 297.9 123.26 297.9 122.3V116.486H296.622V115.136H297.9V112.652H299.538V115.136H302.112V116.486H299.538ZM304.943 113.534C304.631 113.534 304.367 113.426 304.151 113.21C303.935 112.994 303.827 112.73 303.827 112.418C303.827 112.106 303.935 111.842 304.151 111.626C304.367 111.41 304.631 111.302 304.943 111.302C305.243 111.302 305.495 111.41 305.699 111.626C305.915 111.842 306.023 112.106 306.023 112.418C306.023 112.73 305.915 112.994 305.699 113.21C305.495 113.426 305.243 113.534 304.943 113.534ZM305.735 115.136V125H304.097V115.136H305.735ZM310.165 116.972C310.501 116.384 310.993 115.904 311.641 115.532C312.289 115.16 313.027 114.974 313.855 114.974C314.743 114.974 315.541 115.184 316.249 115.604C316.957 116.024 317.515 116.618 317.923 117.386C318.331 118.142 318.535 119.024 318.535 120.032C318.535 121.028 318.331 121.916 317.923 122.696C317.515 123.476 316.951 124.082 316.231 124.514C315.523 124.946 314.731 125.162 313.855 125.162C313.003 125.162 312.253 124.976 311.605 124.604C310.969 124.232 310.489 123.758 310.165 123.182V125H308.527V111.68H310.165V116.972ZM316.861 120.032C316.861 119.288 316.711 118.64 316.411 118.088C316.111 117.536 315.703 117.116 315.187 116.828C314.683 116.54 314.125 116.396 313.513 116.396C312.913 116.396 312.355 116.546 311.839 116.846C311.335 117.134 310.927 117.56 310.615 118.124C310.315 118.676 310.165 119.318 310.165 120.05C310.165 120.794 310.315 121.448 310.615 122.012C310.927 122.564 311.335 122.99 311.839 123.29C312.355 123.578 312.913 123.722 313.513 123.722C314.125 123.722 314.683 123.578 315.187 123.29C315.703 122.99 316.111 122.564 316.411 122.012C316.711 121.448 316.861 120.788 316.861 120.032ZM327.128 116.972C327.464 116.384 327.956 115.904 328.604 115.532C329.252 115.16 329.99 114.974 330.818 114.974C331.706 114.974 332.504 115.184 333.212 115.604C333.92 116.024 334.478 116.618 334.886 117.386C335.294 118.142 335.498 119.024 335.498 120.032C335.498 121.028 335.294 121.916 334.886 122.696C334.478 123.476 333.914 124.082 333.194 124.514C332.486 124.946 331.694 125.162 330.818 125.162C329.966 125.162 329.216 124.976 328.568 124.604C327.932 124.232 327.452 123.758 327.128 123.182V125H325.49V111.68H327.128V116.972ZM333.824 120.032C333.824 119.288 333.674 118.64 333.374 118.088C333.074 117.536 332.666 117.116 332.15 116.828C331.646 116.54 331.088 116.396 330.476 116.396C329.876 116.396 329.318 116.546 328.802 116.846C328.298 117.134 327.89 117.56 327.578 118.124C327.278 118.676 327.128 119.318 327.128 120.05C327.128 120.794 327.278 121.448 327.578 122.012C327.89 122.564 328.298 122.99 328.802 123.29C329.318 123.578 329.876 123.722 330.476 123.722C331.088 123.722 331.646 123.578 332.15 123.29C332.666 122.99 333.074 122.564 333.374 122.012C333.674 121.448 333.824 120.788 333.824 120.032ZM341.956 125.162C341.032 125.162 340.192 124.952 339.436 124.532C338.692 124.112 338.104 123.518 337.672 122.75C337.252 121.97 337.042 121.07 337.042 120.05C337.042 119.042 337.258 118.154 337.69 117.386C338.134 116.606 338.734 116.012 339.49 115.604C340.246 115.184 341.092 114.974 342.028 114.974C342.964 114.974 343.81 115.184 344.566 115.604C345.322 116.012 345.916 116.6 346.348 117.368C346.792 118.136 347.014 119.03 347.014 120.05C347.014 121.07 346.786 121.97 346.33 122.75C345.886 123.518 345.28 124.112 344.512 124.532C343.744 124.952 342.892 125.162 341.956 125.162ZM341.956 123.722C342.544 123.722 343.096 123.584 343.612 123.308C344.128 123.032 344.542 122.618 344.854 122.066C345.178 121.514 345.34 120.842 345.34 120.05C345.34 119.258 345.184 118.586 344.872 118.034C344.56 117.482 344.152 117.074 343.648 116.81C343.144 116.534 342.598 116.396 342.01 116.396C341.41 116.396 340.858 116.534 340.354 116.81C339.862 117.074 339.466 117.482 339.166 118.034C338.866 118.586 338.716 119.258 338.716 120.05C338.716 120.854 338.86 121.532 339.148 122.084C339.448 122.636 339.844 123.05 340.336 123.326C340.828 123.59 341.368 123.722 341.956 123.722ZM350.805 116.738C351.093 116.174 351.501 115.736 352.029 115.424C352.569 115.112 353.223 114.956 353.991 114.956V116.648H353.559C351.723 116.648 350.805 117.644 350.805 119.636V125H349.167V115.136H350.805V116.738ZM356.728 113.534C356.416 113.534 356.152 113.426 355.936 113.21C355.72 112.994 355.612 112.73 355.612 112.418C355.612 112.106 355.72 111.842 355.936 111.626C356.152 111.41 356.416 111.302 356.728 111.302C357.028 111.302 357.28 111.41 357.484 111.626C357.7 111.842 357.808 112.106 357.808 112.418C357.808 112.73 357.7 112.994 357.484 113.21C357.28 113.426 357.028 113.534 356.728 113.534ZM357.52 115.136V125H355.882V115.136H357.52ZM363.804 125.162C363.048 125.162 362.37 125.036 361.77 124.784C361.17 124.52 360.696 124.16 360.348 123.704C360 123.236 359.808 122.702 359.772 122.102H361.464C361.512 122.594 361.74 122.996 362.148 123.308C362.568 123.62 363.114 123.776 363.786 123.776C364.41 123.776 364.902 123.638 365.262 123.362C365.622 123.086 365.802 122.738 365.802 122.318C365.802 121.886 365.61 121.568 365.226 121.364C364.842 121.148 364.248 120.938 363.444 120.734C362.712 120.542 362.112 120.35 361.644 120.158C361.188 119.954 360.792 119.66 360.456 119.276C360.132 118.88 359.97 118.364 359.97 117.728C359.97 117.224 360.12 116.762 360.42 116.342C360.72 115.922 361.146 115.592 361.698 115.352C362.25 115.1 362.88 114.974 363.588 114.974C364.68 114.974 365.562 115.25 366.234 115.802C366.906 116.354 367.266 117.11 367.314 118.07H365.676C365.64 117.554 365.43 117.14 365.046 116.828C364.674 116.516 364.17 116.36 363.534 116.36C362.946 116.36 362.478 116.486 362.13 116.738C361.782 116.99 361.608 117.32 361.608 117.728C361.608 118.052 361.71 118.322 361.914 118.538C362.13 118.742 362.394 118.91 362.706 119.042C363.03 119.162 363.474 119.3 364.038 119.456C364.746 119.648 365.322 119.84 365.766 120.032C366.21 120.212 366.588 120.488 366.9 120.86C367.224 121.232 367.392 121.718 367.404 122.318C367.404 122.858 367.254 123.344 366.954 123.776C366.654 124.208 366.228 124.55 365.676 124.802C365.136 125.042 364.512 125.162 363.804 125.162ZM374.612 114.956C375.356 114.956 376.028 115.118 376.628 115.442C377.228 115.754 377.696 116.228 378.032 116.864C378.38 117.5 378.554 118.274 378.554 119.186V125H376.934V119.42C376.934 118.436 376.688 117.686 376.196 117.17C375.704 116.642 375.032 116.378 374.18 116.378C373.316 116.378 372.626 116.648 372.11 117.188C371.606 117.728 371.354 118.514 371.354 119.546V125H369.716V111.68H371.354V116.54C371.678 116.036 372.122 115.646 372.686 115.37C373.262 115.094 373.904 114.956 374.612 114.956ZM382.076 113.534C381.764 113.534 381.5 113.426 381.284 113.21C381.068 112.994 380.96 112.73 380.96 112.418C380.96 112.106 381.068 111.842 381.284 111.626C381.5 111.41 381.764 111.302 382.076 111.302C382.376 111.302 382.628 111.41 382.832 111.626C383.048 111.842 383.156 112.106 383.156 112.418C383.156 112.73 383.048 112.994 382.832 113.21C382.628 113.426 382.376 113.534 382.076 113.534ZM382.868 115.136V125H381.23V115.136H382.868ZM390.465 114.956C391.665 114.956 392.637 115.322 393.381 116.054C394.125 116.774 394.497 117.818 394.497 119.186V125H392.877V119.42C392.877 118.436 392.631 117.686 392.139 117.17C391.647 116.642 390.975 116.378 390.123 116.378C389.259 116.378 388.569 116.648 388.053 117.188C387.549 117.728 387.297 118.514 387.297 119.546V125H385.659V115.136H387.297V116.54C387.621 116.036 388.059 115.646 388.611 115.37C389.175 115.094 389.793 114.956 390.465 114.956ZM401.241 114.974C402.093 114.974 402.837 115.16 403.473 115.532C404.121 115.904 404.601 116.372 404.913 116.936V115.136H406.569V125.216C406.569 126.116 406.377 126.914 405.993 127.61C405.609 128.318 405.057 128.87 404.337 129.266C403.629 129.662 402.801 129.86 401.853 129.86C400.557 129.86 399.477 129.554 398.613 128.942C397.749 128.33 397.239 127.496 397.083 126.44H398.703C398.883 127.04 399.255 127.52 399.819 127.88C400.383 128.252 401.061 128.438 401.853 128.438C402.753 128.438 403.485 128.156 404.049 127.592C404.625 127.028 404.913 126.236 404.913 125.216V123.146C404.589 123.722 404.109 124.202 403.473 124.586C402.837 124.97 402.093 125.162 401.241 125.162C400.365 125.162 399.567 124.946 398.847 124.514C398.139 124.082 397.581 123.476 397.173 122.696C396.765 121.916 396.561 121.028 396.561 120.032C396.561 119.024 396.765 118.142 397.173 117.386C397.581 116.618 398.139 116.024 398.847 115.604C399.567 115.184 400.365 114.974 401.241 114.974ZM404.913 120.05C404.913 119.306 404.763 118.658 404.463 118.106C404.163 117.554 403.755 117.134 403.239 116.846C402.735 116.546 402.177 116.396 401.565 116.396C400.953 116.396 400.395 116.54 399.891 116.828C399.387 117.116 398.985 117.536 398.685 118.088C398.385 118.64 398.235 119.288 398.235 120.032C398.235 120.788 398.385 121.448 398.685 122.012C398.985 122.564 399.387 122.99 399.891 123.29C400.395 123.578 400.953 123.722 401.565 123.722C402.177 123.722 402.735 123.578 403.239 123.29C403.755 122.99 404.163 122.564 404.463 122.012C404.763 121.448 404.913 120.794 404.913 120.05ZM410.183 113.534C409.871 113.534 409.607 113.426 409.391 113.21C409.175 112.994 409.067 112.73 409.067 112.418C409.067 112.106 409.175 111.842 409.391 111.626C409.607 111.41 409.871 111.302 410.183 111.302C410.483 111.302 410.735 111.41 410.939 111.626C411.155 111.842 411.263 112.106 411.263 112.418C411.263 112.73 411.155 112.994 410.939 113.21C410.735 113.426 410.483 113.534 410.183 113.534ZM410.975 115.136V125H409.337V115.136H410.975ZM414.991 123.65H419.833V125H413.119V123.65L417.907 116.468H413.155V115.136H419.797V116.468L414.991 123.65ZM438.619 114.956C439.387 114.956 440.071 115.118 440.671 115.442C441.271 115.754 441.745 116.228 442.093 116.864C442.441 117.5 442.615 118.274 442.615 119.186V125H440.995V119.42C440.995 118.436 440.749 117.686 440.257 117.17C439.777 116.642 439.123 116.378 438.295 116.378C437.443 116.378 436.765 116.654 436.261 117.206C435.757 117.746 435.505 118.532 435.505 119.564V125H433.885V119.42C433.885 118.436 433.639 117.686 433.147 117.17C432.667 116.642 432.013 116.378 431.185 116.378C430.333 116.378 429.655 116.654 429.151 117.206C428.647 117.746 428.395 118.532 428.395 119.564V125H426.757V115.136H428.395V116.558C428.719 116.042 429.151 115.646 429.691 115.37C430.243 115.094 430.849 114.956 431.509 114.956C432.337 114.956 433.069 115.142 433.705 115.514C434.341 115.886 434.815 116.432 435.127 117.152C435.403 116.456 435.859 115.916 436.495 115.532C437.131 115.148 437.839 114.956 438.619 114.956ZM454.05 115.136V125H452.412V123.542C452.1 124.046 451.662 124.442 451.098 124.73C450.546 125.006 449.934 125.144 449.262 125.144C448.494 125.144 447.804 124.988 447.192 124.676C446.58 124.352 446.094 123.872 445.734 123.236C445.386 122.6 445.212 121.826 445.212 120.914V115.136H446.832V120.698C446.832 121.67 447.078 122.42 447.57 122.948C448.062 123.464 448.734 123.722 449.586 123.722C450.462 123.722 451.152 123.452 451.656 122.912C452.16 122.372 452.412 121.586 452.412 120.554V115.136H454.05ZM468.678 114.956C469.446 114.956 470.13 115.118 470.73 115.442C471.33 115.754 471.804 116.228 472.152 116.864C472.5 117.5 472.674 118.274 472.674 119.186V125H471.054V119.42C471.054 118.436 470.808 117.686 470.316 117.17C469.836 116.642 469.182 116.378 468.354 116.378C467.502 116.378 466.824 116.654 466.32 117.206C465.816 117.746 465.564 118.532 465.564 119.564V125H463.944V119.42C463.944 118.436 463.698 117.686 463.206 117.17C462.726 116.642 462.072 116.378 461.244 116.378C460.392 116.378 459.714 116.654 459.21 117.206C458.706 117.746 458.454 118.532 458.454 119.564V125H456.816V115.136H458.454V116.558C458.778 116.042 459.21 115.646 459.75 115.37C460.302 115.094 460.908 114.956 461.568 114.956C462.396 114.956 463.128 115.142 463.764 115.514C464.4 115.886 464.874 116.432 465.186 117.152C465.462 116.456 465.918 115.916 466.554 115.532C467.19 115.148 467.898 114.956 468.678 114.956ZM480.869 125L476.999 120.644V125H475.361V111.68H476.999V119.51L480.797 115.136H483.083L478.439 120.05L483.101 125H480.869ZM485.47 113.534C485.158 113.534 484.894 113.426 484.678 113.21C484.462 112.994 484.354 112.73 484.354 112.418C484.354 112.106 484.462 111.842 484.678 111.626C484.894 111.41 485.158 111.302 485.47 111.302C485.77 111.302 486.022 111.41 486.226 111.626C486.442 111.842 486.55 112.106 486.55 112.418C486.55 112.73 486.442 112.994 486.226 113.21C486.022 113.426 485.77 113.534 485.47 113.534ZM486.262 115.136V125H484.624V115.136H486.262ZM493.86 114.956C495.06 114.956 496.032 115.322 496.776 116.054C497.52 116.774 497.892 117.818 497.892 119.186V125H496.272V119.42C496.272 118.436 496.026 117.686 495.534 117.17C495.042 116.642 494.37 116.378 493.518 116.378C492.654 116.378 491.964 116.648 491.448 117.188C490.944 117.728 490.692 118.514 490.692 119.546V125H489.054V115.136H490.692V116.54C491.016 116.036 491.454 115.646 492.006 115.37C492.57 115.094 493.188 114.956 493.86 114.956ZM502.692 112.454L502.494 121.454H501.126L500.928 112.454H502.692ZM501.882 125.108C501.57 125.108 501.306 125 501.09 124.784C500.874 124.568 500.766 124.304 500.766 123.992C500.766 123.68 500.874 123.416 501.09 123.2C501.306 122.984 501.57 122.876 501.882 122.876C502.182 122.876 502.434 122.984 502.638 123.2C502.854 123.416 502.962 123.68 502.962 123.992C502.962 124.304 502.854 124.568 502.638 124.784C502.434 125 502.182 125.108 501.882 125.108Z" fill="white" fill-opacity="0.7"/>
<rect x="208" y="144" width="178" height="40" rx="8" fill="#39965F"/>
<path d="M240.198 158.848V160.032H237.158V170H235.702V160.032H232.646V158.848H240.198ZM241.446 165.584C241.446 164.688 241.627 163.904 241.99 163.232C242.352 162.549 242.848 162.021 243.478 161.648C244.118 161.275 244.827 161.088 245.606 161.088C246.374 161.088 247.04 161.253 247.606 161.584C248.171 161.915 248.592 162.331 248.87 162.832V161.232H250.342V170H248.87V168.368C248.582 168.88 248.15 169.307 247.574 169.648C247.008 169.979 246.347 170.144 245.59 170.144C244.811 170.144 244.107 169.952 243.478 169.568C242.848 169.184 242.352 168.645 241.99 167.952C241.627 167.259 241.446 166.469 241.446 165.584ZM248.87 165.6C248.87 164.939 248.736 164.363 248.47 163.872C248.203 163.381 247.84 163.008 247.382 162.752C246.934 162.485 246.438 162.352 245.894 162.352C245.35 162.352 244.854 162.48 244.406 162.736C243.958 162.992 243.6 163.365 243.334 163.856C243.067 164.347 242.934 164.923 242.934 165.584C242.934 166.256 243.067 166.843 243.334 167.344C243.6 167.835 243.958 168.213 244.406 168.48C244.854 168.736 245.35 168.864 245.894 168.864C246.438 168.864 246.934 168.736 247.382 168.48C247.84 168.213 248.203 167.835 248.47 167.344C248.736 166.843 248.87 166.261 248.87 165.6ZM253.026 158.848H254.642L253.106 162.48H252.082L253.026 158.848ZM259.406 170.144C258.734 170.144 258.132 170.032 257.598 169.808C257.065 169.573 256.644 169.253 256.334 168.848C256.025 168.432 255.854 167.957 255.822 167.424H257.326C257.369 167.861 257.572 168.219 257.934 168.496C258.308 168.773 258.793 168.912 259.39 168.912C259.945 168.912 260.382 168.789 260.702 168.544C261.022 168.299 261.182 167.989 261.182 167.616C261.182 167.232 261.012 166.949 260.67 166.768C260.329 166.576 259.801 166.389 259.086 166.208C258.436 166.037 257.902 165.867 257.486 165.696C257.081 165.515 256.729 165.253 256.43 164.912C256.142 164.56 255.998 164.101 255.998 163.536C255.998 163.088 256.132 162.677 256.398 162.304C256.665 161.931 257.044 161.637 257.534 161.424C258.025 161.2 258.585 161.088 259.214 161.088C260.185 161.088 260.969 161.333 261.566 161.824C262.164 162.315 262.484 162.987 262.526 163.84H261.07C261.038 163.381 260.852 163.013 260.51 162.736C260.18 162.459 259.732 162.32 259.166 162.32C258.644 162.32 258.228 162.432 257.918 162.656C257.609 162.88 257.454 163.173 257.454 163.536C257.454 163.824 257.545 164.064 257.726 164.256C257.918 164.437 258.153 164.587 258.43 164.704C258.718 164.811 259.113 164.933 259.614 165.072C260.244 165.243 260.756 165.413 261.15 165.584C261.545 165.744 261.881 165.989 262.158 166.32C262.446 166.651 262.596 167.083 262.606 167.616C262.606 168.096 262.473 168.528 262.206 168.912C261.94 169.296 261.561 169.6 261.07 169.824C260.59 170.037 260.036 170.144 259.406 170.144ZM269.014 161.072C269.675 161.072 270.272 161.216 270.806 161.504C271.339 161.781 271.755 162.203 272.054 162.768C272.363 163.333 272.518 164.021 272.518 164.832V170H271.078V165.04C271.078 164.165 270.859 163.499 270.422 163.04C269.984 162.571 269.387 162.336 268.63 162.336C267.862 162.336 267.248 162.576 266.79 163.056C266.342 163.536 266.118 164.235 266.118 165.152V170H264.662V158.16H266.118V162.48C266.406 162.032 266.8 161.685 267.302 161.44C267.814 161.195 268.384 161.072 269.014 161.072ZM276.352 162.656C276.608 162.155 276.971 161.765 277.44 161.488C277.92 161.211 278.501 161.072 279.184 161.072V162.576H278.8C277.168 162.576 276.352 163.461 276.352 165.232V170H274.896V161.232H276.352V162.656ZM281.617 159.808C281.339 159.808 281.105 159.712 280.913 159.52C280.721 159.328 280.625 159.093 280.625 158.816C280.625 158.539 280.721 158.304 280.913 158.112C281.105 157.92 281.339 157.824 281.617 157.824C281.883 157.824 282.107 157.92 282.289 158.112C282.481 158.304 282.577 158.539 282.577 158.816C282.577 159.093 282.481 159.328 282.289 159.52C282.107 159.712 281.883 159.808 281.617 159.808ZM282.321 161.232V170H280.865V161.232H282.321ZM288.37 162.432H286.53V170H285.074V162.432H283.938V161.232H285.074V160.608C285.074 159.627 285.325 158.912 285.826 158.464C286.338 158.005 287.154 157.776 288.274 157.776V158.992C287.634 158.992 287.181 159.12 286.914 159.376C286.658 159.621 286.53 160.032 286.53 160.608V161.232H288.37V162.432ZM295.79 162.864C296.088 162.341 296.526 161.915 297.102 161.584C297.678 161.253 298.334 161.088 299.07 161.088C299.859 161.088 300.568 161.275 301.198 161.648C301.827 162.021 302.323 162.549 302.686 163.232C303.048 163.904 303.23 164.688 303.23 165.584C303.23 166.469 303.048 167.259 302.686 167.952C302.323 168.645 301.822 169.184 301.182 169.568C300.552 169.952 299.848 170.144 299.07 170.144C298.312 170.144 297.646 169.979 297.07 169.648C296.504 169.317 296.078 168.896 295.79 168.384V170H294.334V158.16H295.79V162.864ZM301.742 165.584C301.742 164.923 301.608 164.347 301.342 163.856C301.075 163.365 300.712 162.992 300.254 162.736C299.806 162.48 299.31 162.352 298.766 162.352C298.232 162.352 297.736 162.485 297.278 162.752C296.83 163.008 296.467 163.387 296.19 163.888C295.923 164.379 295.79 164.949 295.79 165.6C295.79 166.261 295.923 166.843 296.19 167.344C296.467 167.835 296.83 168.213 297.278 168.48C297.736 168.736 298.232 168.864 298.766 168.864C299.31 168.864 299.806 168.736 300.254 168.48C300.712 168.213 301.075 167.835 301.342 167.344C301.608 166.843 301.742 166.256 301.742 165.584ZM312.922 161.232V170H311.466V168.704C311.189 169.152 310.799 169.504 310.298 169.76C309.807 170.005 309.263 170.128 308.666 170.128C307.983 170.128 307.37 169.989 306.826 169.712C306.282 169.424 305.85 168.997 305.53 168.432C305.221 167.867 305.066 167.179 305.066 166.368V161.232H306.506V166.176C306.506 167.04 306.725 167.707 307.162 168.176C307.599 168.635 308.197 168.864 308.954 168.864C309.733 168.864 310.346 168.624 310.794 168.144C311.242 167.664 311.466 166.965 311.466 166.048V161.232H312.922ZM322.932 161.232L317.652 174.128H316.148L317.876 169.904L314.34 161.232H315.956L318.708 168.336L321.428 161.232H322.932ZM332.172 161.232V170H330.716V168.704C330.439 169.152 330.049 169.504 329.548 169.76C329.057 170.005 328.513 170.128 327.916 170.128C327.233 170.128 326.62 169.989 326.076 169.712C325.532 169.424 325.1 168.997 324.78 168.432C324.471 167.867 324.316 167.179 324.316 166.368V161.232H325.756V166.176C325.756 167.04 325.975 167.707 326.412 168.176C326.849 168.635 327.447 168.864 328.204 168.864C328.983 168.864 329.596 168.624 330.044 168.144C330.492 167.664 330.716 166.965 330.716 166.048V161.232H332.172ZM336.086 162.656C336.342 162.155 336.705 161.765 337.174 161.488C337.654 161.211 338.236 161.072 338.918 161.072V162.576H338.534C336.902 162.576 336.086 163.461 336.086 165.232V170H334.63V161.232H336.086V162.656ZM341.351 159.808C341.074 159.808 340.839 159.712 340.647 159.52C340.455 159.328 340.359 159.093 340.359 158.816C340.359 158.539 340.455 158.304 340.647 158.112C340.839 157.92 341.074 157.824 341.351 157.824C341.618 157.824 341.842 157.92 342.023 158.112C342.215 158.304 342.311 158.539 342.311 158.816C342.311 159.093 342.215 159.328 342.023 159.52C341.842 159.712 341.618 159.808 341.351 159.808ZM342.055 161.232V170H340.599V161.232H342.055ZM347.641 170.144C346.969 170.144 346.366 170.032 345.833 169.808C345.299 169.573 344.878 169.253 344.569 168.848C344.259 168.432 344.089 167.957 344.057 167.424H345.561C345.603 167.861 345.806 168.219 346.169 168.496C346.542 168.773 347.027 168.912 347.625 168.912C348.179 168.912 348.617 168.789 348.937 168.544C349.257 168.299 349.417 167.989 349.417 167.616C349.417 167.232 349.246 166.949 348.905 166.768C348.563 166.576 348.035 166.389 347.321 166.208C346.67 166.037 346.137 165.867 345.721 165.696C345.315 165.515 344.963 165.253 344.665 164.912C344.377 164.56 344.233 164.101 344.233 163.536C344.233 163.088 344.366 162.677 344.633 162.304C344.899 161.931 345.278 161.637 345.769 161.424C346.259 161.2 346.819 161.088 347.449 161.088C348.419 161.088 349.203 161.333 349.801 161.824C350.398 162.315 350.718 162.987 350.761 163.84H349.305C349.273 163.381 349.086 163.013 348.745 162.736C348.414 162.459 347.966 162.32 347.401 162.32C346.878 162.32 346.462 162.432 346.153 162.656C345.843 162.88 345.689 163.173 345.689 163.536C345.689 163.824 345.779 164.064 345.961 164.256C346.153 164.437 346.387 164.587 346.665 164.704C346.953 164.811 347.347 164.933 347.849 165.072C348.478 165.243 348.99 165.413 349.385 165.584C349.779 165.744 350.115 165.989 350.393 166.32C350.681 166.651 350.83 167.083 350.841 167.616C350.841 168.096 350.707 168.528 350.441 168.912C350.174 169.296 349.795 169.6 349.305 169.824C348.825 170.037 348.27 170.144 347.641 170.144ZM357.248 161.072C357.909 161.072 358.507 161.216 359.04 161.504C359.573 161.781 359.989 162.203 360.288 162.768C360.597 163.333 360.752 164.021 360.752 164.832V170H359.312V165.04C359.312 164.165 359.093 163.499 358.656 163.04C358.219 162.571 357.621 162.336 356.864 162.336C356.096 162.336 355.483 162.576 355.024 163.056C354.576 163.536 354.352 164.235 354.352 165.152V170H352.896V158.16H354.352V162.48C354.64 162.032 355.035 161.685 355.536 161.44C356.048 161.195 356.619 161.072 357.248 161.072Z" fill="white"/>
<rect x="783" y="-119" width="220" height="220" rx="110" fill="white" fill-opacity="0.05"/>
<rect x="592" y="40" width="400" height="400" rx="200" fill="white" fill-opacity="0.05"/>
<path d="M819.05 203.096L839.135 202.855C845.913 202.349 848.024 200.211 850.115 193.973L854.548 180.823L845.038 179.353L841.204 190.745C841.004 191.348 840.616 191.871 840.098 192.239C839.579 192.606 838.957 192.799 838.322 192.788L822.534 192.474C818.12 192.24 817.269 189.746 818.088 187.315L822.195 175.128L810.024 171.59L805.514 185C804.098 189.22 803.23 193.861 805.313 197.492C807.71 201.678 811.273 203.173 819.05 203.096Z" fill="#34A853"/>
<path d="M854.262 181.664L851.896 188.682C851.896 188.682 850.749 187.15 847.273 187.032C843.316 186.894 841.866 188.757 841.866 188.757L844.297 181.54L854.262 181.664Z" fill="#39965F"/>
<path d="M820.114 181.26L806.811 181.071C805.216 185.045 804.583 188.143 804.583 188.143C804.583 188.143 807.232 185.676 812.403 185.75C816.101 185.797 817.778 188.277 817.778 188.277L820.114 181.26Z" fill="#39965F"/>
<path d="M884.108 186.868C876.343 184.255 873.894 170.711 878.638 156.618C883.382 142.524 893.522 133.219 901.287 135.832C909.052 138.446 911.501 151.99 906.757 166.083C902.013 180.176 891.873 189.482 884.108 186.868Z" fill="#B8DADE"/>
<path d="M876.501 174.67C879.321 172.3 887.594 177.964 887.594 177.964C888.985 185.026 896.742 182.562 896.742 182.562C892.604 186.444 888.054 188.184 884.109 186.859C879.92 185.456 877.29 180.833 876.501 174.67Z" fill="#82AEC0"/>
<path d="M788.77 59.2387L894.336 136.365C898.495 138.91 900.976 149.865 896.661 162.679C892.346 175.492 883.62 183.25 878.773 181.911L748.195 179.832C733.777 174.985 731.179 144.044 742.381 110.742C753.584 77.4401 774.351 54.3917 788.77 59.2387Z" fill="#39965F"/>
<path d="M772.66 159.114C768.251 166.42 775.907 166.334 806.899 169.847C815.376 170.814 887.595 177.979 887.595 177.979C885.756 179.863 882.036 182.837 878.685 181.946C878.685 181.946 750.628 180.666 748.182 179.848L772.66 159.114Z" fill="#39965F"/>
<path d="M801.142 78.3424C798.965 76.9394 795.832 74.7604 794.901 70.7536C794.416 68.6611 794.02 66.2636 793.471 65.2559C792.39 63.2547 788.414 58.7466 788.414 58.7466L894.321 136.365C897.16 138.094 897.714 141.204 897.714 141.204C881.555 130.365 817.187 88.7219 801.142 78.3424Z" fill="#39965F"/>
<path d="M741.109 181.18C726.914 176.402 724.998 144.033 736.83 108.883C748.662 73.7319 769.762 49.1103 783.957 53.8887C798.153 58.667 800.068 91.0359 788.236 126.187C776.404 161.337 755.304 185.959 741.109 181.18Z" fill="#B8DADE"/>
<path d="M741.453 169.233C732.142 166.098 732.552 139.912 742.371 110.744C752.189 81.5761 767.697 60.4718 777.009 63.6063C786.32 66.7407 785.91 92.927 776.091 122.095C766.273 151.263 750.765 172.367 741.453 169.233Z" fill="#39965F"/>
<path d="M741.452 169.236C732.14 166.104 732.555 139.916 742.367 110.743L776.083 122.104C766.27 151.262 750.764 172.368 741.452 169.236Z" fill="url(#paint0_linear_42_7686)"/>
<path d="M792.451 93.6683C793.938 85.0587 793.366 77.308 791.82 71.3057C791.389 69.676 790.147 67.7584 788.465 68.0418C786.797 68.3245 786.386 69.9382 786.669 71.6057C787.628 77.2933 787.531 85.1992 786.395 92.754C786.138 94.4348 786.282 96.6052 788.677 97.3208C790.754 97.963 792.185 95.1843 792.451 93.6683Z" fill="white"/>
<path opacity="0.45" d="M892.354 145.255L805.928 93.4276C803.293 91.8684 799.985 89.2329 799.651 94.8981C799.445 98.4237 799.155 101.473 799.708 106.01C800.051 108.831 805.723 110.727 807.507 111.52L892.723 150.298C894.014 150.861 896.382 151.323 895.874 149.081C895.311 146.663 893.051 145.67 892.354 145.255Z" fill="#00EE7A"/>
<g clip-path="url(#clip1_42_7686)">
<mask id="mask0_42_7686" style="mask-type:luminance" maskUnits="userSpaceOnUse" x="598" y="24" width="168" height="145">
<path d="M627.087 24.0448L765.227 61.0592L736.42 168.567L598.28 131.553L627.087 24.0448Z" fill="white"/>
</mask>
<g mask="url(#mask0_42_7686)">
<path d="M699.689 91.6422C714.656 96.1618 729.617 100.702 744.6 105.173C746.33 105.644 748.103 105.943 749.892 106.067C750.186 106.112 750.486 106.095 750.773 106.017C751.06 105.94 751.328 105.803 751.559 105.616C751.79 105.429 751.98 105.196 752.116 104.931C752.252 104.667 752.331 104.377 752.348 104.08C752.556 102.703 751.801 101.843 750.59 101.398C748.396 100.59 746.192 99.7935 743.967 99.0884C733.322 95.7173 722.695 92.2842 712.01 89.0452C696.33 84.2971 680.551 79.8697 664.918 74.9723C655.499 72.021 646.023 69.04 637.515 63.8108C635.513 62.611 633.643 61.2062 631.933 59.6181C629.325 57.1323 628.365 53.9811 628.734 50.3276C629.976 38.0267 645.205 33.5446 652.477 39.507C655.566 42.0386 658.6 44.4425 659.511 48.6204C660.402 52.7034 658.98 55.4199 655.038 56.9043C652.419 57.8904 651.561 58.8923 651.889 60.5806C652.25 62.4327 654.087 63.5182 656.638 63.3862C662.952 63.0594 667.504 57.5591 667.182 50.574C667.027 46.8188 665.693 43.207 663.373 40.2501C659.984 35.8969 655.739 32.556 650.405 30.8454C641.221 27.9004 633.219 30.5462 626.722 37.0385C617.692 46.0611 619.255 59.9156 629.736 67.2562C635.175 71.008 641.15 73.9185 647.457 75.8902C660.112 79.9514 672.877 83.6735 685.598 87.5409C690.28 88.9647 694.959 90.3955 699.635 91.8335L699.689 91.6422Z" fill="white" fill-opacity="0.1"/>
<path d="M707.38 124.287C719.697 127.587 730.678 130.539 741.666 133.467C744.156 134.13 745.414 133.849 745.894 132.651C746.423 131.33 745.468 130.045 742.959 129.187C735.824 126.746 728.717 124.171 721.479 122.061C707.597 118.016 693.657 114.166 679.693 110.414C672.252 108.415 664.637 107.638 656.954 108.827C650.721 109.793 645.91 112.949 643.868 119.078C641.347 126.646 642.544 133.795 647.635 140.081C652.35 145.905 658.389 148.926 666.007 148.329C677.031 147.464 679.596 136.585 676.165 130.117C675.159 128.255 673.878 126.554 672.368 125.07C670.867 123.586 668.621 123.532 667.378 124.474C666.187 125.378 665.768 127.181 666.514 129.157C667.069 130.419 667.699 131.648 668.403 132.834C670.483 136.791 668.752 139.867 664.355 140.054C655.664 140.423 647.212 130.513 651.487 120.415C652.609 117.764 655.053 116.575 657.808 116.109C663.692 115.085 669.721 115.243 675.543 116.577C686.628 119.14 697.662 121.92 707.38 124.287Z" fill="white" fill-opacity="0.1"/>
<path d="M699.761 143.908C696.433 143.163 693.82 144.43 693.153 147.112C692.425 150.039 694.2 152.801 697.285 153.54C700.324 154.27 702.806 152.734 703.48 149.708C704.172 146.601 702.892 144.609 699.761 143.908Z" fill="white" fill-opacity="0.1"/>
<path d="M685.501 52.4832C684.367 52.1561 683.151 52.2879 682.114 52.8501C681.077 53.4122 680.303 54.3596 679.958 55.4879C678.986 58.397 680.548 61.6432 683.297 62.4288C684.539 62.774 685.866 62.6191 686.994 61.9973C688.123 61.3758 688.963 60.3364 689.335 59.1028C690.294 56.3015 688.648 53.4616 685.501 52.4832Z" fill="white" fill-opacity="0.1"/>
<path d="M623.422 88.3685C623.9 85.77 621.53 82.4891 618.895 82.1004C617.733 81.9754 616.567 82.2876 615.621 82.9752C614.676 83.6627 614.021 84.6769 613.782 85.8208C613.394 88.3672 615.605 91.0982 618.502 91.6517C619.043 91.7836 619.605 91.8023 620.152 91.7057C620.7 91.6091 621.222 91.4 621.684 91.0913C622.147 90.7826 622.54 90.3806 622.839 89.9118C623.139 89.443 623.337 88.9179 623.422 88.3685Z" fill="white" fill-opacity="0.1"/>
</g>
</g>
</g>
<rect x="0.5" y="0.5" width="911" height="207" rx="11.5" stroke="white" stroke-opacity="0.25"/>
<defs>
<linearGradient id="paint0_linear_42_7686" x1="742.094" y1="164.529" x2="758.54" y2="118.397" gradientUnits="userSpaceOnUse">
<stop stop-color="#353738"/>
<stop offset="1" stop-color="#353738" stop-opacity="0"/>
</linearGradient>
<clipPath id="clip0_42_7686">
<rect width="912" height="208" rx="12" fill="white"/>
</clipPath>
<clipPath id="clip1_42_7686">
<rect width="144" height="144" fill="white" transform="matrix(-0.965926 -0.258819 -0.258819 0.965926 770.363 45.2699)"/>
</clipPath>
</defs>
</svg>
