<svg width="362" height="58" viewBox="0 0 362 58" fill="none" xmlns="http://www.w3.org/2000/svg">
<path d="M23.996 11.344V31H19.208V19.212L14.812 31H10.948L6.524 19.184V31H1.736V11.344H7.392L12.908 24.952L18.368 11.344H23.996ZM42.1671 22.936C42.1671 23.384 42.1391 23.8507 42.0831 24.336H31.2471C31.3218 25.3067 31.6298 26.0533 32.1711 26.576C32.7311 27.08 33.4125 27.332 34.2151 27.332C35.4098 27.332 36.2405 26.828 36.7071 25.82H41.8031C41.5418 26.8467 41.0658 27.7707 40.3751 28.592C39.7031 29.4133 38.8538 30.0573 37.8271 30.524C36.8005 30.9907 35.6525 31.224 34.3831 31.224C32.8525 31.224 31.4898 30.8973 30.2951 30.244C29.1005 29.5907 28.1671 28.6573 27.4951 27.444C26.8231 26.2307 26.4871 24.812 26.4871 23.188C26.4871 21.564 26.8138 20.1453 27.4671 18.932C28.1391 17.7187 29.0725 16.7853 30.2671 16.132C31.4618 15.4787 32.8338 15.152 34.3831 15.152C35.8951 15.152 37.2391 15.4693 38.4151 16.104C39.5911 16.7387 40.5058 17.644 41.1591 18.82C41.8311 19.996 42.1671 21.368 42.1671 22.936ZM37.2671 21.676C37.2671 20.8547 36.9871 20.2013 36.4271 19.716C35.8671 19.2307 35.1671 18.988 34.3271 18.988C33.5245 18.988 32.8431 19.2213 32.2831 19.688C31.7418 20.1547 31.4058 20.8173 31.2751 21.676H37.2671ZM54.213 15.208C56.0424 15.208 57.4984 15.8053 58.581 17C59.6824 18.176 60.233 19.8 60.233 21.872V31H55.473V22.516C55.473 21.4707 55.2024 20.6587 54.661 20.08C54.1197 19.5013 53.3917 19.212 52.477 19.212C51.5624 19.212 50.8344 19.5013 50.293 20.08C49.7517 20.6587 49.481 21.4707 49.481 22.516V31H44.693V15.376H49.481V17.448C49.9664 16.7573 50.6197 16.216 51.441 15.824C52.2624 15.4133 53.1864 15.208 54.213 15.208ZM79.0138 15.208C80.8431 15.208 82.2991 15.8053 83.3818 17C84.4831 18.176 85.0338 19.8 85.0338 21.872V31H80.2738V22.516C80.2738 21.4707 80.0031 20.6587 79.4618 20.08C78.9205 19.5013 78.1925 19.212 77.2778 19.212C76.3631 19.212 75.6351 19.5013 75.0938 20.08C74.5525 20.6587 74.2818 21.4707 74.2818 22.516V31H69.4938V15.376H74.2818V17.448C74.7671 16.7573 75.4205 16.216 76.2418 15.824C77.0631 15.4133 77.9871 15.208 79.0138 15.208ZM90.769 13.752C89.929 13.752 89.2383 13.5093 88.697 13.024C88.1743 12.52 87.913 11.904 87.913 11.176C87.913 10.4293 88.1743 9.81333 88.697 9.328C89.2383 8.824 89.929 8.572 90.769 8.572C91.5903 8.572 92.2623 8.824 92.785 9.328C93.3263 9.81333 93.597 10.4293 93.597 11.176C93.597 11.904 93.3263 12.52 92.785 13.024C92.2623 13.5093 91.5903 13.752 90.769 13.752ZM93.149 15.376V31H88.361V15.376H93.149ZM116.555 15.208C118.496 15.208 120.036 15.796 121.175 16.972C122.332 18.148 122.911 19.7813 122.911 21.872V31H118.151V22.516C118.151 21.508 117.88 20.7333 117.339 20.192C116.816 19.632 116.088 19.352 115.155 19.352C114.221 19.352 113.484 19.632 112.943 20.192C112.42 20.7333 112.159 21.508 112.159 22.516V31H107.399V22.516C107.399 21.508 107.128 20.7333 106.587 20.192C106.064 19.632 105.336 19.352 104.403 19.352C103.469 19.352 102.732 19.632 102.191 20.192C101.668 20.7333 101.407 21.508 101.407 22.516V31H96.6188V15.376H101.407V17.336C101.892 16.6827 102.527 16.1693 103.311 15.796C104.095 15.404 104.981 15.208 105.971 15.208C107.147 15.208 108.192 15.46 109.107 15.964C110.04 16.468 110.768 17.1867 111.291 18.12C111.832 17.2613 112.569 16.5613 113.503 16.02C114.436 15.4787 115.453 15.208 116.555 15.208ZM125.307 23.16C125.307 21.5547 125.606 20.1453 126.203 18.932C126.819 17.7187 127.65 16.7853 128.695 16.132C129.741 15.4787 130.907 15.152 132.195 15.152C133.297 15.152 134.258 15.376 135.079 15.824C135.919 16.272 136.563 16.86 137.011 17.588V15.376H141.799V31H137.011V28.788C136.545 29.516 135.891 30.104 135.051 30.552C134.23 31 133.269 31.224 132.167 31.224C130.898 31.224 129.741 30.8973 128.695 30.244C127.65 29.572 126.819 28.6293 126.203 27.416C125.606 26.184 125.307 24.7653 125.307 23.16ZM137.011 23.188C137.011 21.9933 136.675 21.0507 136.003 20.36C135.35 19.6693 134.547 19.324 133.595 19.324C132.643 19.324 131.831 19.6693 131.159 20.36C130.506 21.032 130.179 21.9653 130.179 23.16C130.179 24.3547 130.506 25.3067 131.159 26.016C131.831 26.7067 132.643 27.052 133.595 27.052C134.547 27.052 135.35 26.7067 136.003 26.016C136.675 25.3253 137.011 24.3827 137.011 23.188ZM150.051 10.28V31H145.263V10.28H150.051ZM152.569 23.16C152.569 21.5547 152.868 20.1453 153.465 18.932C154.081 17.7187 154.912 16.7853 155.957 16.132C157.002 15.4787 158.169 15.152 159.457 15.152C160.558 15.152 161.52 15.376 162.341 15.824C163.181 16.272 163.825 16.86 164.273 17.588V15.376H169.061V31H164.273V28.788C163.806 29.516 163.153 30.104 162.313 30.552C161.492 31 160.53 31.224 159.429 31.224C158.16 31.224 157.002 30.8973 155.957 30.244C154.912 29.572 154.081 28.6293 153.465 27.416C152.868 26.184 152.569 24.7653 152.569 23.16ZM164.273 23.188C164.273 21.9933 163.937 21.0507 163.265 20.36C162.612 19.6693 161.809 19.324 160.857 19.324C159.905 19.324 159.093 19.6693 158.421 20.36C157.768 21.032 157.441 21.9653 157.441 23.16C157.441 24.3547 157.768 25.3067 158.421 26.016C159.093 26.7067 159.905 27.052 160.857 27.052C161.809 27.052 162.612 26.7067 163.265 26.016C163.937 25.3253 164.273 24.3827 164.273 23.188ZM177.313 17.98C177.873 17.1213 178.573 16.4493 179.413 15.964C180.253 15.46 181.186 15.208 182.213 15.208V20.276H180.897C179.702 20.276 178.806 20.5373 178.209 21.06C177.612 21.564 177.313 22.46 177.313 23.748V31H172.525V15.376H177.313V17.98ZM189.483 23.216C189.483 21.6667 189.801 20.2853 190.435 19.072C191.089 17.8587 191.957 16.916 193.039 16.244C194.141 15.5533 195.335 15.208 196.623 15.208C197.613 15.208 198.499 15.3853 199.283 15.74C200.067 16.076 200.702 16.552 201.187 17.168V15.376H205.975V38.448H201.187V29.04C200.646 29.6933 199.983 30.216 199.199 30.608C198.434 31 197.557 31.196 196.567 31.196C195.298 31.196 194.122 30.86 193.039 30.188C191.957 29.516 191.089 28.5733 190.435 27.36C189.801 26.1467 189.483 24.7653 189.483 23.216ZM201.187 23.188C201.187 22.348 201.019 21.648 200.683 21.088C200.366 20.5093 199.946 20.08 199.423 19.8C198.901 19.5013 198.35 19.352 197.771 19.352C197.211 19.352 196.67 19.5013 196.147 19.8C195.625 20.08 195.195 20.5093 194.859 21.088C194.523 21.6667 194.355 22.376 194.355 23.216C194.355 24.056 194.523 24.7653 194.859 25.344C195.195 25.904 195.625 26.3333 196.147 26.632C196.67 26.912 197.211 27.052 197.771 27.052C198.331 27.052 198.873 26.912 199.395 26.632C199.937 26.3333 200.366 25.8947 200.683 25.316C201.019 24.7373 201.187 24.028 201.187 23.188ZM211.847 13.752C211.007 13.752 210.316 13.5093 209.775 13.024C209.252 12.52 208.991 11.904 208.991 11.176C208.991 10.4293 209.252 9.81333 209.775 9.328C210.316 8.824 211.007 8.572 211.847 8.572C212.668 8.572 213.34 8.824 213.863 9.328C214.404 9.81333 214.675 10.4293 214.675 11.176C214.675 11.904 214.404 12.52 213.863 13.024C213.34 13.5093 212.668 13.752 211.847 13.752ZM214.227 15.376V31H209.439V15.376H214.227ZM222.485 10.28V31H217.697V10.28H222.485ZM225.003 23.16C225.003 21.5547 225.301 20.1453 225.899 18.932C226.515 17.7187 227.345 16.7853 228.391 16.132C229.436 15.4787 230.603 15.152 231.891 15.152C232.992 15.152 233.953 15.376 234.775 15.824C235.615 16.272 236.259 16.86 236.707 17.588V15.376H241.495V31H236.707V28.788C236.24 29.516 235.587 30.104 234.747 30.552C233.925 31 232.964 31.224 231.863 31.224C230.593 31.224 229.436 30.8973 228.391 30.244C227.345 29.572 226.515 28.6293 225.899 27.416C225.301 26.184 225.003 24.7653 225.003 23.16ZM236.707 23.188C236.707 21.9933 236.371 21.0507 235.699 20.36C235.045 19.6693 234.243 19.324 233.291 19.324C232.339 19.324 231.527 19.6693 230.855 20.36C230.201 21.032 229.875 21.9653 229.875 23.16C229.875 24.3547 230.201 25.3067 230.855 26.016C231.527 26.7067 232.339 27.052 233.291 27.052C234.243 27.052 235.045 26.7067 235.699 26.016C236.371 25.3253 236.707 24.3827 236.707 23.188ZM258.004 31.224C256.474 31.224 255.092 30.8973 253.86 30.244C252.647 29.5907 251.686 28.6573 250.976 27.444C250.286 26.2307 249.94 24.812 249.94 23.188C249.94 21.5827 250.295 20.1733 251.004 18.96C251.714 17.728 252.684 16.7853 253.916 16.132C255.148 15.4787 256.53 15.152 258.06 15.152C259.591 15.152 260.972 15.4787 262.204 16.132C263.436 16.7853 264.407 17.728 265.116 18.96C265.826 20.1733 266.18 21.5827 266.18 23.188C266.18 24.7933 265.816 26.212 265.088 27.444C264.379 28.6573 263.399 29.5907 262.148 30.244C260.916 30.8973 259.535 31.224 258.004 31.224ZM258.004 27.08C258.919 27.08 259.694 26.744 260.328 26.072C260.982 25.4 261.308 24.4387 261.308 23.188C261.308 21.9373 260.991 20.976 260.356 20.304C259.74 19.632 258.975 19.296 258.06 19.296C257.127 19.296 256.352 19.632 255.736 20.304C255.12 20.9573 254.812 21.9187 254.812 23.188C254.812 24.4387 255.111 25.4 255.708 26.072C256.324 26.744 257.09 27.08 258.004 27.08ZM273.508 10.28V31H268.72V10.28H273.508ZM276.026 23.16C276.026 21.5547 276.325 20.1453 276.922 18.932C277.538 17.7187 278.369 16.7853 279.414 16.132C280.46 15.4787 281.626 15.152 282.914 15.152C284.016 15.152 284.977 15.376 285.798 15.824C286.638 16.272 287.282 16.86 287.73 17.588V15.376H292.518V31H287.73V28.788C287.264 29.516 286.61 30.104 285.77 30.552C284.949 31 283.988 31.224 282.886 31.224C281.617 31.224 280.46 30.8973 279.414 30.244C278.369 29.572 277.538 28.6293 276.922 27.416C276.325 26.184 276.026 24.7653 276.026 23.16ZM287.73 23.188C287.73 21.9933 287.394 21.0507 286.722 20.36C286.069 19.6693 285.266 19.324 284.314 19.324C283.362 19.324 282.55 19.6693 281.878 20.36C281.225 21.032 280.898 21.9653 280.898 23.16C280.898 24.3547 281.225 25.3067 281.878 26.016C282.55 26.7067 283.362 27.052 284.314 27.052C285.266 27.052 286.069 26.7067 286.722 26.016C287.394 25.3253 287.73 24.3827 287.73 23.188ZM315.918 15.208C317.859 15.208 319.399 15.796 320.538 16.972C321.695 18.148 322.274 19.7813 322.274 21.872V31H317.514V22.516C317.514 21.508 317.243 20.7333 316.702 20.192C316.179 19.632 315.451 19.352 314.518 19.352C313.585 19.352 312.847 19.632 312.306 20.192C311.783 20.7333 311.522 21.508 311.522 22.516V31H306.762V22.516C306.762 21.508 306.491 20.7333 305.95 20.192C305.427 19.632 304.699 19.352 303.766 19.352C302.833 19.352 302.095 19.632 301.554 20.192C301.031 20.7333 300.77 21.508 300.77 22.516V31H295.982V15.376H300.77V17.336C301.255 16.6827 301.89 16.1693 302.674 15.796C303.458 15.404 304.345 15.208 305.334 15.208C306.51 15.208 307.555 15.46 308.47 15.964C309.403 16.468 310.131 17.1867 310.654 18.12C311.195 17.2613 311.933 16.5613 312.866 16.02C313.799 15.4787 314.817 15.208 315.918 15.208ZM324.671 23.16C324.671 21.5547 324.969 20.1453 325.567 18.932C326.183 17.7187 327.013 16.7853 328.059 16.132C329.104 15.4787 330.271 15.152 331.559 15.152C332.66 15.152 333.621 15.376 334.443 15.824C335.283 16.272 335.927 16.86 336.375 17.588V15.376H341.163V31H336.375V28.788C335.908 29.516 335.255 30.104 334.415 30.552C333.593 31 332.632 31.224 331.531 31.224C330.261 31.224 329.104 30.8973 328.059 30.244C327.013 29.572 326.183 28.6293 325.567 27.416C324.969 26.184 324.671 24.7653 324.671 23.16ZM336.375 23.188C336.375 21.9933 336.039 21.0507 335.367 20.36C334.713 19.6693 333.911 19.324 332.959 19.324C332.007 19.324 331.195 19.6693 330.523 20.36C329.869 21.032 329.543 21.9653 329.543 23.16C329.543 24.3547 329.869 25.3067 330.523 26.016C331.195 26.7067 332.007 27.052 332.959 27.052C333.911 27.052 334.713 26.7067 335.367 26.016C336.039 25.3253 336.375 24.3827 336.375 23.188ZM354.147 15.208C355.976 15.208 357.432 15.8053 358.515 17C359.616 18.176 360.167 19.8 360.167 21.872V31H355.407V22.516C355.407 21.4707 355.136 20.6587 354.595 20.08C354.053 19.5013 353.325 19.212 352.411 19.212C351.496 19.212 350.768 19.5013 350.227 20.08C349.685 20.6587 349.415 21.4707 349.415 22.516V31H344.627V15.376H349.415V17.448C349.9 16.7573 350.553 16.216 351.375 15.824C352.196 15.4133 353.12 15.208 354.147 15.208Z" fill="white"/>
<rect y="50" width="112" height="8" rx="4" fill="#39965F"/>
</svg>
