<svg width="257" height="58" viewBox="0 0 257 58" fill="none" xmlns="http://www.w3.org/2000/svg">
<path d="M13.972 27.528H6.636L5.46 31H0.448L7.56 11.344H13.104L20.216 31H15.148L13.972 27.528ZM12.74 23.832L10.304 16.636L7.896 23.832H12.74ZM28.7365 31.224C27.3739 31.224 26.1605 30.9907 25.0965 30.524C24.0325 30.0573 23.1925 29.4227 22.5765 28.62C21.9605 27.7987 21.6152 26.884 21.5405 25.876H26.2725C26.3285 26.4173 26.5805 26.856 27.0285 27.192C27.4765 27.528 28.0272 27.696 28.6805 27.696C29.2779 27.696 29.7352 27.584 30.0525 27.36C30.3885 27.1173 30.5565 26.8093 30.5565 26.436C30.5565 25.988 30.3232 25.6613 29.8565 25.456C29.3899 25.232 28.6339 24.9893 27.5885 24.728C26.4685 24.4667 25.5352 24.196 24.7885 23.916C24.0419 23.6173 23.3979 23.16 22.8565 22.544C22.3152 21.9093 22.0445 21.06 22.0445 19.996C22.0445 19.1 22.2872 18.288 22.7725 17.56C23.2765 16.8133 24.0045 16.2253 24.9565 15.796C25.9272 15.3667 27.0752 15.152 28.4005 15.152C30.3605 15.152 31.9005 15.6373 33.0205 16.608C34.1592 17.5787 34.8125 18.8667 34.9805 20.472H30.5565C30.4819 19.9307 30.2392 19.5013 29.8285 19.184C29.4365 18.8667 28.9139 18.708 28.2605 18.708C27.7005 18.708 27.2712 18.82 26.9725 19.044C26.6739 19.2493 26.5245 19.5387 26.5245 19.912C26.5245 20.36 26.7579 20.696 27.2245 20.92C27.7099 21.144 28.4565 21.368 29.4645 21.592C30.6219 21.8907 31.5645 22.1893 32.2925 22.488C33.0205 22.768 33.6552 23.2347 34.1965 23.888C34.7565 24.5227 35.0459 25.3813 35.0645 26.464C35.0645 27.3787 34.8032 28.2 34.2805 28.928C33.7765 29.6373 33.0392 30.1973 32.0685 30.608C31.1165 31.0187 30.0059 31.224 28.7365 31.224ZM42.7818 17.588C43.2298 16.86 43.8738 16.272 44.7138 15.824C45.5538 15.376 46.5151 15.152 47.5978 15.152C48.8858 15.152 50.0525 15.4787 51.0978 16.132C52.1431 16.7853 52.9645 17.7187 53.5618 18.932C54.1778 20.1453 54.4858 21.5547 54.4858 23.16C54.4858 24.7653 54.1778 26.184 53.5618 27.416C52.9645 28.6293 52.1431 29.572 51.0978 30.244C50.0525 30.8973 48.8858 31.224 47.5978 31.224C46.4965 31.224 45.5351 31.0093 44.7138 30.58C43.8925 30.132 43.2485 29.544 42.7818 28.816V31H37.9938V10.28H42.7818V17.588ZM49.6138 23.16C49.6138 21.9653 49.2778 21.032 48.6058 20.36C47.9525 19.6693 47.1405 19.324 46.1698 19.324C45.2178 19.324 44.4058 19.6693 43.7338 20.36C43.0805 21.0507 42.7538 21.9933 42.7538 23.188C42.7538 24.3827 43.0805 25.3253 43.7338 26.016C44.4058 26.7067 45.2178 27.052 46.1698 27.052C47.1218 27.052 47.9338 26.7067 48.6058 26.016C49.2778 25.3067 49.6138 24.3547 49.6138 23.16ZM64.1097 31.224C62.5791 31.224 61.1977 30.8973 59.9657 30.244C58.7524 29.5907 57.7911 28.6573 57.0817 27.444C56.3911 26.2307 56.0457 24.812 56.0457 23.188C56.0457 21.5827 56.4004 20.1733 57.1097 18.96C57.8191 17.728 58.7897 16.7853 60.0217 16.132C61.2537 15.4787 62.6351 15.152 64.1657 15.152C65.6964 15.152 67.0777 15.4787 68.3097 16.132C69.5417 16.7853 70.5124 17.728 71.2217 18.96C71.9311 20.1733 72.2857 21.5827 72.2857 23.188C72.2857 24.7933 71.9217 26.212 71.1937 27.444C70.4844 28.6573 69.5044 29.5907 68.2537 30.244C67.0217 30.8973 65.6404 31.224 64.1097 31.224ZM64.1097 27.08C65.0244 27.08 65.7991 26.744 66.4337 26.072C67.0871 25.4 67.4137 24.4387 67.4137 23.188C67.4137 21.9373 67.0964 20.976 66.4617 20.304C65.8457 19.632 65.0804 19.296 64.1657 19.296C63.2324 19.296 62.4577 19.632 61.8417 20.304C61.2257 20.9573 60.9177 21.9187 60.9177 23.188C60.9177 24.4387 61.2164 25.4 61.8137 26.072C62.4297 26.744 63.1951 27.08 64.1097 27.08ZM79.6138 17.588C80.0618 16.86 80.7058 16.272 81.5458 15.824C82.3858 15.376 83.3472 15.152 84.4298 15.152C85.7178 15.152 86.8845 15.4787 87.9298 16.132C88.9752 16.7853 89.7965 17.7187 90.3938 18.932C91.0098 20.1453 91.3178 21.5547 91.3178 23.16C91.3178 24.7653 91.0098 26.184 90.3938 27.416C89.7965 28.6293 88.9752 29.572 87.9298 30.244C86.8845 30.8973 85.7178 31.224 84.4298 31.224C83.3285 31.224 82.3672 31.0093 81.5458 30.58C80.7245 30.132 80.0805 29.544 79.6138 28.816V31H74.8258V10.28H79.6138V17.588ZM86.4458 23.16C86.4458 21.9653 86.1098 21.032 85.4378 20.36C84.7845 19.6693 83.9725 19.324 83.0018 19.324C82.0498 19.324 81.2378 19.6693 80.5658 20.36C79.9125 21.0507 79.5858 21.9933 79.5858 23.188C79.5858 24.3827 79.9125 25.3253 80.5658 26.016C81.2378 26.7067 82.0498 27.052 83.0018 27.052C83.9538 27.052 84.7658 26.7067 85.4378 26.016C86.1098 25.3067 86.4458 24.3547 86.4458 23.16ZM105.87 19.184V23.16H93.5498V19.184H105.87ZM125.5 15.376V31H120.712V28.872C120.227 29.5627 119.564 30.1227 118.724 30.552C117.903 30.9627 116.988 31.168 115.98 31.168C114.785 31.168 113.731 30.9067 112.816 30.384C111.901 29.8427 111.192 29.068 110.688 28.06C110.184 27.052 109.932 25.8667 109.932 24.504V15.376H114.692V23.86C114.692 24.9053 114.963 25.7173 115.504 26.296C116.045 26.8747 116.773 27.164 117.688 27.164C118.621 27.164 119.359 26.8747 119.9 26.296C120.441 25.7173 120.712 24.9053 120.712 23.86V15.376H125.5ZM135.295 31.224C133.932 31.224 132.719 30.9907 131.655 30.524C130.591 30.0573 129.751 29.4227 129.135 28.62C128.519 27.7987 128.174 26.884 128.099 25.876H132.831C132.887 26.4173 133.139 26.856 133.587 27.192C134.035 27.528 134.586 27.696 135.239 27.696C135.836 27.696 136.294 27.584 136.611 27.36C136.947 27.1173 137.115 26.8093 137.115 26.436C137.115 25.988 136.882 25.6613 136.415 25.456C135.948 25.232 135.192 24.9893 134.147 24.728C133.027 24.4667 132.094 24.196 131.347 23.916C130.6 23.6173 129.956 23.16 129.415 22.544C128.874 21.9093 128.603 21.06 128.603 19.996C128.603 19.1 128.846 18.288 129.331 17.56C129.835 16.8133 130.563 16.2253 131.515 15.796C132.486 15.3667 133.634 15.152 134.959 15.152C136.919 15.152 138.459 15.6373 139.579 16.608C140.718 17.5787 141.371 18.8667 141.539 20.472H137.115C137.04 19.9307 136.798 19.5013 136.387 19.184C135.995 18.8667 135.472 18.708 134.819 18.708C134.259 18.708 133.83 18.82 133.531 19.044C133.232 19.2493 133.083 19.5387 133.083 19.912C133.083 20.36 133.316 20.696 133.783 20.92C134.268 21.144 135.015 21.368 136.023 21.592C137.18 21.8907 138.123 22.1893 138.851 22.488C139.579 22.768 140.214 23.2347 140.755 23.888C141.315 24.5227 141.604 25.3813 141.623 26.464C141.623 27.3787 141.362 28.2 140.839 28.928C140.335 29.6373 139.598 30.1973 138.627 30.608C137.675 31.0187 136.564 31.224 135.295 31.224ZM154.1 31L149.34 24.448V31H144.552V10.28H149.34V21.732L154.072 15.376H159.98L153.484 23.216L160.036 31H154.1ZM177.289 15.376V31H172.501V28.872C172.016 29.5627 171.353 30.1227 170.513 30.552C169.692 30.9627 168.777 31.168 167.769 31.168C166.574 31.168 165.52 30.9067 164.605 30.384C163.69 29.8427 162.981 29.068 162.477 28.06C161.973 27.052 161.721 25.8667 161.721 24.504V15.376H166.481V23.86C166.481 24.9053 166.752 25.7173 167.293 26.296C167.834 26.8747 168.562 27.164 169.477 27.164C170.41 27.164 171.148 26.8747 171.689 26.296C172.23 25.7173 172.501 24.9053 172.501 23.86V15.376H177.289ZM190.248 15.208C192.078 15.208 193.534 15.8053 194.616 17C195.718 18.176 196.268 19.8 196.268 21.872V31H191.508V22.516C191.508 21.4707 191.238 20.6587 190.696 20.08C190.155 19.5013 189.427 19.212 188.512 19.212C187.598 19.212 186.87 19.5013 186.328 20.08C185.787 20.6587 185.516 21.4707 185.516 22.516V31H180.728V15.376H185.516V17.448C186.002 16.7573 186.655 16.216 187.476 15.824C188.298 15.4133 189.222 15.208 190.248 15.208ZM198.643 23.16C198.643 21.5547 198.942 20.1453 199.539 18.932C200.155 17.7187 200.986 16.7853 202.031 16.132C203.077 15.4787 204.243 15.152 205.531 15.152C206.633 15.152 207.594 15.376 208.415 15.824C209.255 16.272 209.899 16.86 210.347 17.588V15.376H215.135V31H210.347V28.788C209.881 29.516 209.227 30.104 208.387 30.552C207.566 31 206.605 31.224 205.503 31.224C204.234 31.224 203.077 30.8973 202.031 30.244C200.986 29.572 200.155 28.6293 199.539 27.416C198.942 26.184 198.643 24.7653 198.643 23.16ZM210.347 23.188C210.347 21.9933 210.011 21.0507 209.339 20.36C208.686 19.6693 207.883 19.324 206.931 19.324C205.979 19.324 205.167 19.6693 204.495 20.36C203.842 21.032 203.515 21.9653 203.515 23.16C203.515 24.3547 203.842 25.3067 204.495 26.016C205.167 26.7067 205.979 27.052 206.931 27.052C207.883 27.052 208.686 26.7067 209.339 26.016C210.011 25.3253 210.347 24.3827 210.347 23.188ZM223.387 10.28V31H218.599V10.28H223.387ZM225.905 23.16C225.905 21.5547 226.204 20.1453 226.801 18.932C227.417 17.7187 228.248 16.7853 229.293 16.132C230.338 15.4787 231.505 15.152 232.793 15.152C233.894 15.152 234.856 15.376 235.677 15.824C236.517 16.272 237.161 16.86 237.609 17.588V15.376H242.397V31H237.609V28.788C237.142 29.516 236.489 30.104 235.649 30.552C234.828 31 233.866 31.224 232.765 31.224C231.496 31.224 230.338 30.8973 229.293 30.244C228.248 29.572 227.417 28.6293 226.801 27.416C226.204 26.184 225.905 24.7653 225.905 23.16ZM237.609 23.188C237.609 21.9933 237.273 21.0507 236.601 20.36C235.948 19.6693 235.145 19.324 234.193 19.324C233.241 19.324 232.429 19.6693 231.757 20.36C231.104 21.032 230.777 21.9653 230.777 23.16C230.777 24.3547 231.104 25.3067 231.757 26.016C232.429 26.7067 233.241 27.052 234.193 27.052C235.145 27.052 235.948 26.7067 236.601 26.016C237.273 25.3253 237.609 24.3827 237.609 23.188ZM250.649 17.98C251.209 17.1213 251.909 16.4493 252.749 15.964C253.589 15.46 254.522 15.208 255.549 15.208V20.276H254.233C253.038 20.276 252.142 20.5373 251.545 21.06C250.948 21.564 250.649 22.46 250.649 23.748V31H245.861V15.376H250.649V17.98Z" fill="white"/>
<rect y="50" width="112" height="8" rx="4" fill="#39965F"/>
</svg>
