<svg width="114" height="58" viewBox="0 0 114 58" fill="none" xmlns="http://www.w3.org/2000/svg">
<path d="M23.996 11.344V31H19.208V19.212L14.812 31H10.948L6.524 19.184V31H1.736V11.344H7.392L12.908 24.952L18.368 11.344H23.996ZM29.8471 13.752C29.0071 13.752 28.3165 13.5093 27.7751 13.024C27.2525 12.52 26.9911 11.904 26.9911 11.176C26.9911 10.4293 27.2525 9.81333 27.7751 9.328C28.3165 8.824 29.0071 8.572 29.8471 8.572C30.6685 8.572 31.3405 8.824 31.8631 9.328C32.4045 9.81333 32.6751 10.4293 32.6751 11.176C32.6751 11.904 32.4045 12.52 31.8631 13.024C31.3405 13.5093 30.6685 13.752 29.8471 13.752ZM32.2271 15.376V31H27.4391V15.376H32.2271ZM38.0769 13.752C37.2369 13.752 36.5463 13.5093 36.0049 13.024C35.4823 12.52 35.2209 11.904 35.2209 11.176C35.2209 10.4293 35.4823 9.81333 36.0049 9.328C36.5463 8.824 37.2369 8.572 38.0769 8.572C38.8983 8.572 39.5703 8.824 40.0929 9.328C40.6343 9.81333 40.9049 10.4293 40.9049 11.176C40.9049 11.904 40.6343 12.52 40.0929 13.024C39.5703 13.5093 38.8983 13.752 38.0769 13.752ZM40.4849 33.016C40.4849 34.9387 39.9996 36.32 39.0289 37.16C38.0583 38.0187 36.7049 38.448 34.9689 38.448H33.0929V34.388H34.2409C34.7636 34.388 35.1369 34.2853 35.3609 34.08C35.5849 33.8747 35.6969 33.5387 35.6969 33.072V15.376H40.4849V33.016ZM51.0394 31.224C49.5087 31.224 48.1274 30.8973 46.8954 30.244C45.6821 29.5907 44.7207 28.6573 44.0114 27.444C43.3207 26.2307 42.9754 24.812 42.9754 23.188C42.9754 21.5827 43.3301 20.1733 44.0394 18.96C44.7487 17.728 45.7194 16.7853 46.9514 16.132C48.1834 15.4787 49.5647 15.152 51.0954 15.152C52.6261 15.152 54.0074 15.4787 55.2394 16.132C56.4714 16.7853 57.4421 17.728 58.1514 18.96C58.8607 20.1733 59.2154 21.5827 59.2154 23.188C59.2154 24.7933 58.8514 26.212 58.1234 27.444C57.4141 28.6573 56.4341 29.5907 55.1834 30.244C53.9514 30.8973 52.5701 31.224 51.0394 31.224ZM51.0394 27.08C51.9541 27.08 52.7287 26.744 53.3634 26.072C54.0167 25.4 54.3434 24.4387 54.3434 23.188C54.3434 21.9373 54.0261 20.976 53.3914 20.304C52.7754 19.632 52.0101 19.296 51.0954 19.296C50.1621 19.296 49.3874 19.632 48.7714 20.304C48.1554 20.9573 47.8474 21.9187 47.8474 23.188C47.8474 24.4387 48.1461 25.4 48.7434 26.072C49.3594 26.744 50.1247 27.08 51.0394 27.08ZM66.2355 27.052H73.0115V31H60.8875V27.192L67.3835 19.324H60.9435V15.376H72.8715V19.184L66.2355 27.052ZM80.4342 10.28V31H75.6462V10.28H80.4342ZM82.952 23.16C82.952 21.5547 83.2506 20.1453 83.848 18.932C84.464 17.7187 85.2946 16.7853 86.34 16.132C87.3853 15.4787 88.552 15.152 89.84 15.152C90.9413 15.152 91.9026 15.376 92.724 15.824C93.564 16.272 94.208 16.86 94.656 17.588V15.376H99.444V31H94.656V28.788C94.1893 29.516 93.536 30.104 92.696 30.552C91.8746 31 90.9133 31.224 89.812 31.224C88.5426 31.224 87.3853 30.8973 86.34 30.244C85.2946 29.572 84.464 28.6293 83.848 27.416C83.2506 26.184 82.952 24.7653 82.952 23.16ZM94.656 23.188C94.656 21.9933 94.32 21.0507 93.648 20.36C92.9946 19.6693 92.192 19.324 91.24 19.324C90.288 19.324 89.476 19.6693 88.804 20.36C88.1506 21.032 87.824 21.9653 87.824 23.16C87.824 24.3547 88.1506 25.3067 88.804 26.016C89.476 26.7067 90.288 27.052 91.24 27.052C92.192 27.052 92.9946 26.7067 93.648 26.016C94.32 25.3253 94.656 24.3827 94.656 23.188ZM107.696 17.98C108.256 17.1213 108.956 16.4493 109.796 15.964C110.636 15.46 111.569 15.208 112.596 15.208V20.276H111.28C110.085 20.276 109.189 20.5373 108.592 21.06C107.995 21.564 107.696 22.46 107.696 23.748V31H102.908V15.376H107.696V17.98Z" fill="white"/>
<rect y="50" width="112" height="8" rx="4" fill="#39965F"/>
</svg>
