<svg width="154" height="64" viewBox="0 0 154 64" fill="none" xmlns="http://www.w3.org/2000/svg">
<path d="M7.456 30.776H14.624V35H1.984V12.536H7.456V30.776ZM25.362 35.256C23.6127 35.256 22.034 34.8827 20.626 34.136C19.2393 33.3893 18.1407 32.3227 17.33 30.936C16.5407 29.5493 16.146 27.928 16.146 26.072C16.146 24.2373 16.5513 22.6267 17.362 21.24C18.1727 19.832 19.282 18.7547 20.69 18.008C22.098 17.2613 23.6767 16.888 25.426 16.888C27.1753 16.888 28.754 17.2613 30.162 18.008C31.57 18.7547 32.6793 19.832 33.49 21.24C34.3007 22.6267 34.706 24.2373 34.706 26.072C34.706 27.9067 34.29 29.528 33.458 30.936C32.6473 32.3227 31.5273 33.3893 30.098 34.136C28.69 34.8827 27.1113 35.256 25.362 35.256ZM25.362 30.52C26.4073 30.52 27.2927 30.136 28.018 29.368C28.7647 28.6 29.138 27.5013 29.138 26.072C29.138 24.6427 28.7753 23.544 28.05 22.776C27.346 22.008 26.4713 21.624 25.426 21.624C24.3593 21.624 23.474 22.008 22.77 22.776C22.066 23.5227 21.714 24.6213 21.714 26.072C21.714 27.5013 22.0553 28.6 22.738 29.368C23.442 30.136 24.3167 30.52 25.362 30.52ZM55.849 17.144L44.649 43.48H38.761L42.857 34.392L35.593 17.144H41.705L45.833 28.312L49.929 17.144H55.849ZM60.5798 15.288C59.6198 15.288 58.8304 15.0107 58.2118 14.456C57.6144 13.88 57.3158 13.176 57.3158 12.344C57.3158 11.4907 57.6144 10.7867 58.2118 10.232C58.8304 9.656 59.6198 9.368 60.5798 9.368C61.5184 9.368 62.2864 9.656 62.8838 10.232C63.5024 10.7867 63.8118 11.4907 63.8118 12.344C63.8118 13.176 63.5024 13.88 62.8838 14.456C62.2864 15.0107 61.5184 15.288 60.5798 15.288ZM63.2998 17.144V35H57.8278V17.144H63.2998ZM78.2413 16.952C80.2893 16.952 81.9319 17.6347 83.1693 19C84.4066 20.344 85.0253 22.2 85.0253 24.568V35H79.5853V25.304C79.5853 24.1093 79.2759 23.1813 78.6573 22.52C78.0386 21.8587 77.2066 21.528 76.1613 21.528C75.1159 21.528 74.2839 21.8587 73.6653 22.52C73.0466 23.1813 72.7373 24.1093 72.7373 25.304V35H67.2653V11.32H72.7373V19.544C73.2919 18.7547 74.0493 18.1253 75.0093 17.656C75.9693 17.1867 77.0466 16.952 78.2413 16.952ZM87.7398 26.04C87.7398 24.2053 88.0811 22.5947 88.7638 21.208C89.4678 19.8213 90.4171 18.7547 91.6118 18.008C92.8064 17.2613 94.1398 16.888 95.6118 16.888C96.8704 16.888 97.9691 17.144 98.9078 17.656C99.8678 18.168 100.604 18.84 101.116 19.672V17.144H106.588V35H101.116V32.472C100.582 33.304 99.8358 33.976 98.8758 34.488C97.9371 35 96.8384 35.256 95.5798 35.256C94.1291 35.256 92.8064 34.8827 91.6118 34.136C90.4171 33.368 89.4678 32.2907 88.7638 30.904C88.0811 29.496 87.7398 27.8747 87.7398 26.04ZM101.116 26.072C101.116 24.7067 100.732 23.6293 99.9638 22.84C99.2171 22.0507 98.2998 21.656 97.2118 21.656C96.1238 21.656 95.1958 22.0507 94.4278 22.84C93.6811 23.608 93.3078 24.6747 93.3078 26.04C93.3078 27.4053 93.6811 28.4933 94.4278 29.304C95.1958 30.0933 96.1238 30.488 97.2118 30.488C98.2998 30.488 99.2171 30.0933 99.9638 29.304C100.732 28.5147 101.116 27.4373 101.116 26.072ZM116.019 11.32V35H110.547V11.32H116.019ZM118.896 26.04C118.896 24.2053 119.237 22.5947 119.92 21.208C120.624 19.8213 121.573 18.7547 122.768 18.008C123.963 17.2613 125.296 16.888 126.768 16.888C128.027 16.888 129.125 17.144 130.064 17.656C131.024 18.168 131.76 18.84 132.272 19.672V17.144H137.744V35H132.272V32.472C131.739 33.304 130.992 33.976 130.032 34.488C129.093 35 127.995 35.256 126.736 35.256C125.285 35.256 123.963 34.8827 122.768 34.136C121.573 33.368 120.624 32.2907 119.92 30.904C119.237 29.496 118.896 27.8747 118.896 26.04ZM132.272 26.072C132.272 24.7067 131.888 23.6293 131.12 22.84C130.373 22.0507 129.456 21.656 128.368 21.656C127.28 21.656 126.352 22.0507 125.584 22.84C124.837 23.608 124.464 24.6747 124.464 26.04C124.464 27.4053 124.837 28.4933 125.584 29.304C126.352 30.0933 127.28 30.488 128.368 30.488C129.456 30.488 130.373 30.0933 131.12 29.304C131.888 28.5147 132.272 27.4373 132.272 26.072ZM147.175 20.12C147.815 19.1387 148.615 18.3707 149.575 17.816C150.535 17.24 151.601 16.952 152.775 16.952V22.744H151.271C149.905 22.744 148.881 23.0427 148.199 23.64C147.516 24.216 147.175 25.24 147.175 26.712V35H141.703V17.144H147.175V20.12Z" fill="white"/>
<rect y="56" width="112" height="8" rx="4" fill="#39965F"/>
</svg>
