<svg width="175" height="64" viewBox="0 0 175 64" fill="none" xmlns="http://www.w3.org/2000/svg">
<path d="M15.584 23.48C16.8853 23.7573 17.9307 24.408 18.72 25.432C19.5093 26.4347 19.904 27.5867 19.904 28.888C19.904 30.7653 19.2427 32.2587 17.92 33.368C16.6187 34.456 14.7947 35 12.448 35H1.984V12.536H12.096C14.3787 12.536 16.16 13.0587 17.44 14.104C18.7413 15.1493 19.392 16.568 19.392 18.36C19.392 19.6827 19.04 20.7813 18.336 21.656C17.6533 22.5307 16.736 23.1387 15.584 23.48ZM7.456 21.624H11.04C11.936 21.624 12.6187 21.432 13.088 21.048C13.5787 20.6427 13.824 20.056 13.824 19.288C13.824 18.52 13.5787 17.9333 13.088 17.528C12.6187 17.1227 11.936 16.92 11.04 16.92H7.456V21.624ZM11.488 30.584C12.4053 30.584 13.1093 30.3813 13.6 29.976C14.112 29.5493 14.368 28.9413 14.368 28.152C14.368 27.3627 14.1013 26.744 13.568 26.296C13.056 25.848 12.3413 25.624 11.424 25.624H7.456V30.584H11.488ZM31.2058 35.256C29.4564 35.256 27.8778 34.8827 26.4698 34.136C25.0831 33.3893 23.9844 32.3227 23.1738 30.936C22.3844 29.5493 21.9898 27.928 21.9898 26.072C21.9898 24.2373 22.3951 22.6267 23.2057 21.24C24.0164 19.832 25.1258 18.7547 26.5338 18.008C27.9418 17.2613 29.5204 16.888 31.2698 16.888C33.0191 16.888 34.5978 17.2613 36.0058 18.008C37.4138 18.7547 38.5231 19.832 39.3338 21.24C40.1444 22.6267 40.5498 24.2373 40.5498 26.072C40.5498 27.9067 40.1338 29.528 39.3018 30.936C38.4911 32.3227 37.3711 33.3893 35.9418 34.136C34.5338 34.8827 32.9551 35.256 31.2058 35.256ZM31.2058 30.52C32.2511 30.52 33.1364 30.136 33.8618 29.368C34.6084 28.6 34.9818 27.5013 34.9818 26.072C34.9818 24.6427 34.6191 23.544 33.8938 22.776C33.1898 22.008 32.3151 21.624 31.2698 21.624C30.2031 21.624 29.3178 22.008 28.6138 22.776C27.9098 23.5227 27.5578 24.6213 27.5578 26.072C27.5578 27.5013 27.8991 28.6 28.5818 29.368C29.2858 30.136 30.1604 30.52 31.2058 30.52ZM50.2368 16.888C51.4954 16.888 52.5941 17.144 53.5328 17.656C54.4928 18.168 55.2288 18.84 55.7408 19.672V17.144H61.2128V34.968C61.2128 36.6107 60.8821 38.0933 60.2208 39.416C59.5808 40.76 58.5888 41.8267 57.2448 42.616C55.9221 43.4053 54.2688 43.8 52.2848 43.8C49.6394 43.8 47.4954 43.1707 45.8528 41.912C44.2101 40.6747 43.2714 38.9893 43.0368 36.856H48.4448C48.6154 37.5387 49.0208 38.072 49.6608 38.456C50.3008 38.8613 51.0901 39.064 52.0288 39.064C53.1594 39.064 54.0554 38.7333 54.7168 38.072C55.3994 37.432 55.7408 36.3973 55.7408 34.968V32.44C55.2074 33.272 54.4714 33.9547 53.5328 34.488C52.5941 35 51.4954 35.256 50.2368 35.256C48.7648 35.256 47.4314 34.8827 46.2368 34.136C45.0421 33.368 44.0928 32.2907 43.3888 30.904C42.7061 29.496 42.3648 27.8747 42.3648 26.04C42.3648 24.2053 42.7061 22.5947 43.3888 21.208C44.0928 19.8213 45.0421 18.7547 46.2368 18.008C47.4314 17.2613 48.7648 16.888 50.2368 16.888ZM55.7408 26.072C55.7408 24.7067 55.3568 23.6293 54.5888 22.84C53.8421 22.0507 52.9248 21.656 51.8368 21.656C50.7488 21.656 49.8208 22.0507 49.0528 22.84C48.3061 23.608 47.9328 24.6747 47.9328 26.04C47.9328 27.4053 48.3061 28.4933 49.0528 29.304C49.8208 30.0933 50.7488 30.488 51.8368 30.488C52.9248 30.488 53.8421 30.0933 54.5888 29.304C55.3568 28.5147 55.7408 27.4373 55.7408 26.072ZM66.4195 12.536H72.0195L68.4355 21.112H64.7555L66.4195 12.536ZM80.706 11.32V35H75.234V11.32H80.706ZM83.5835 26.04C83.5835 24.2053 83.9248 22.5947 84.6075 21.208C85.3115 19.8213 86.2608 18.7547 87.4555 18.008C88.6502 17.2613 89.9835 16.888 91.4555 16.888C92.7142 16.888 93.8128 17.144 94.7515 17.656C95.7115 18.168 96.4475 18.84 96.9595 19.672V17.144H102.432V35H96.9595V32.472C96.4262 33.304 95.6795 33.976 94.7195 34.488C93.7808 35 92.6822 35.256 91.4235 35.256C89.9728 35.256 88.6502 34.8827 87.4555 34.136C86.2608 33.368 85.3115 32.2907 84.6075 30.904C83.9248 29.496 83.5835 27.8747 83.5835 26.04ZM96.9595 26.072C96.9595 24.7067 96.5755 23.6293 95.8075 22.84C95.0608 22.0507 94.1435 21.656 93.0555 21.656C91.9675 21.656 91.0395 22.0507 90.2715 22.84C89.5248 23.608 89.1515 24.6747 89.1515 26.04C89.1515 27.4053 89.5248 28.4933 90.2715 29.304C91.0395 30.0933 91.9675 30.488 93.0555 30.488C94.1435 30.488 95.0608 30.0933 95.8075 29.304C96.5755 28.5147 96.9595 27.4373 96.9595 26.072ZM117.27 16.952C119.361 16.952 121.025 17.6347 122.262 19C123.521 20.344 124.15 22.2 124.15 24.568V35H118.71V25.304C118.71 24.1093 118.401 23.1813 117.782 22.52C117.164 21.8587 116.332 21.528 115.286 21.528C114.241 21.528 113.409 21.8587 112.79 22.52C112.172 23.1813 111.862 24.1093 111.862 25.304V35H106.39V17.144H111.862V19.512C112.417 18.7227 113.164 18.104 114.102 17.656C115.041 17.1867 116.097 16.952 117.27 16.952ZM130.705 15.288C129.745 15.288 128.955 15.0107 128.337 14.456C127.739 13.88 127.441 13.176 127.441 12.344C127.441 11.4907 127.739 10.7867 128.337 10.232C128.955 9.656 129.745 9.368 130.705 9.368C131.643 9.368 132.411 9.656 133.009 10.232C133.627 10.7867 133.937 11.4907 133.937 12.344C133.937 13.176 133.627 13.88 133.009 14.456C132.411 15.0107 131.643 15.288 130.705 15.288ZM133.425 17.144V35H127.953V17.144H133.425ZM144.654 35.256C143.097 35.256 141.71 34.9893 140.494 34.456C139.278 33.9227 138.318 33.1973 137.614 32.28C136.91 31.3413 136.516 30.296 136.43 29.144H141.838C141.902 29.7627 142.19 30.264 142.702 30.648C143.214 31.032 143.844 31.224 144.59 31.224C145.273 31.224 145.796 31.096 146.158 30.84C146.542 30.5627 146.734 30.2107 146.734 29.784C146.734 29.272 146.468 28.8987 145.934 28.664C145.401 28.408 144.537 28.1307 143.342 27.832C142.062 27.5333 140.996 27.224 140.142 26.904C139.289 26.5627 138.553 26.04 137.934 25.336C137.316 24.6107 137.006 23.64 137.006 22.424C137.006 21.4 137.284 20.472 137.838 19.64C138.414 18.7867 139.246 18.1147 140.334 17.624C141.444 17.1333 142.756 16.888 144.27 16.888C146.51 16.888 148.27 17.4427 149.55 18.552C150.852 19.6613 151.598 21.1333 151.79 22.968H146.734C146.649 22.3493 146.372 21.8587 145.902 21.496C145.454 21.1333 144.857 20.952 144.11 20.952C143.47 20.952 142.98 21.08 142.638 21.336C142.297 21.5707 142.126 21.9013 142.126 22.328C142.126 22.84 142.393 23.224 142.926 23.48C143.481 23.736 144.334 23.992 145.486 24.248C146.809 24.5893 147.886 24.9307 148.718 25.272C149.55 25.592 150.276 26.1253 150.894 26.872C151.534 27.5973 151.865 28.5787 151.886 29.816C151.886 30.8613 151.588 31.8 150.99 32.632C150.414 33.4427 149.572 34.0827 148.462 34.552C147.374 35.0213 146.105 35.256 144.654 35.256ZM166.21 16.952C168.258 16.952 169.901 17.6347 171.138 19C172.375 20.344 172.994 22.2 172.994 24.568V35H167.554V25.304C167.554 24.1093 167.245 23.1813 166.626 22.52C166.007 21.8587 165.175 21.528 164.13 21.528C163.085 21.528 162.253 21.8587 161.634 22.52C161.015 23.1813 160.706 24.1093 160.706 25.304V35H155.234V11.32H160.706V19.544C161.261 18.7547 162.018 18.1253 162.978 17.656C163.938 17.1867 165.015 16.952 166.21 16.952Z" fill="white"/>
<rect y="56" width="112" height="8" rx="4" fill="#39965F"/>
</svg>
