<svg width="226" height="58" viewBox="0 0 226 58" fill="none" xmlns="http://www.w3.org/2000/svg">
<path d="M8.848 31.196C7.41067 31.196 6.12267 30.9627 4.984 30.496C3.84533 30.0293 2.93067 29.3387 2.24 28.424C1.568 27.5093 1.21333 26.408 1.176 25.12H6.272C6.34667 25.848 6.59867 26.408 7.028 26.8C7.45733 27.1733 8.01733 27.36 8.708 27.36C9.41733 27.36 9.97733 27.2013 10.388 26.884C10.7987 26.548 11.004 26.0907 11.004 25.512C11.004 25.0267 10.836 24.6253 10.5 24.308C10.1827 23.9907 9.78133 23.7293 9.296 23.524C8.82933 23.3187 8.15733 23.0853 7.28 22.824C6.01067 22.432 4.97467 22.04 4.172 21.648C3.36933 21.256 2.67867 20.6773 2.1 19.912C1.52133 19.1467 1.232 18.148 1.232 16.916C1.232 15.0867 1.89467 13.6587 3.22 12.632C4.54533 11.5867 6.272 11.064 8.4 11.064C10.5653 11.064 12.3107 11.5867 13.636 12.632C14.9613 13.6587 15.6707 15.096 15.764 16.944H10.584C10.5467 16.3093 10.3133 15.8147 9.884 15.46C9.45467 15.0867 8.904 14.9 8.232 14.9C7.65333 14.9 7.18667 15.0587 6.832 15.376C6.47733 15.6747 6.3 16.1133 6.3 16.692C6.3 17.3267 6.59867 17.8213 7.196 18.176C7.79333 18.5307 8.72667 18.9133 9.996 19.324C11.2653 19.7533 12.292 20.164 13.076 20.556C13.8787 20.948 14.5693 21.5173 15.148 22.264C15.7267 23.0107 16.016 23.972 16.016 25.148C16.016 26.268 15.7267 27.2853 15.148 28.2C14.588 29.1147 13.7667 29.8427 12.684 30.384C11.6013 30.9253 10.3227 31.196 8.848 31.196ZM26.0746 31.224C24.5439 31.224 23.1626 30.8973 21.9306 30.244C20.7172 29.5907 19.7559 28.6573 19.0466 27.444C18.3559 26.2307 18.0106 24.812 18.0106 23.188C18.0106 21.5827 18.3652 20.1733 19.0746 18.96C19.7839 17.728 20.7546 16.7853 21.9866 16.132C23.2186 15.4787 24.5999 15.152 26.1306 15.152C27.6612 15.152 29.0426 15.4787 30.2746 16.132C31.5066 16.7853 32.4772 17.728 33.1866 18.96C33.8959 20.1733 34.2506 21.5827 34.2506 23.188C34.2506 24.7933 33.8866 26.212 33.1586 27.444C32.4492 28.6573 31.4692 29.5907 30.2186 30.244C28.9866 30.8973 27.6052 31.224 26.0746 31.224ZM26.0746 27.08C26.9892 27.08 27.7639 26.744 28.3986 26.072C29.0519 25.4 29.3786 24.4387 29.3786 23.188C29.3786 21.9373 29.0612 20.976 28.4266 20.304C27.8106 19.632 27.0452 19.296 26.1306 19.296C25.1972 19.296 24.4226 19.632 23.8066 20.304C23.1906 20.9573 22.8826 21.9187 22.8826 23.188C22.8826 24.4387 23.1812 25.4 23.7786 26.072C24.3946 26.744 25.1599 27.08 26.0746 27.08ZM37.8827 11.344H42.7827L39.6467 18.848H36.4267L37.8827 11.344ZM50.3834 17.98C50.9434 17.1213 51.6434 16.4493 52.4834 15.964C53.3234 15.46 54.2567 15.208 55.2834 15.208V20.276H53.9674C52.7727 20.276 51.8767 20.5373 51.2794 21.06C50.682 21.564 50.3834 22.46 50.3834 23.748V31H45.5954V15.376H50.3834V17.98ZM64.6839 31.224C63.1533 31.224 61.7719 30.8973 60.5399 30.244C59.3266 29.5907 58.3653 28.6573 57.6559 27.444C56.9653 26.2307 56.6199 24.812 56.6199 23.188C56.6199 21.5827 56.9746 20.1733 57.6839 18.96C58.3933 17.728 59.3639 16.7853 60.5959 16.132C61.8279 15.4787 63.2093 15.152 64.7399 15.152C66.2706 15.152 67.6519 15.4787 68.8839 16.132C70.1159 16.7853 71.0866 17.728 71.7959 18.96C72.5053 20.1733 72.8599 21.5827 72.8599 23.188C72.8599 24.7933 72.4959 26.212 71.7679 27.444C71.0586 28.6573 70.0786 29.5907 68.8279 30.244C67.5959 30.8973 66.2146 31.224 64.6839 31.224ZM64.6839 27.08C65.5986 27.08 66.3733 26.744 67.0079 26.072C67.6613 25.4 67.9879 24.4387 67.9879 23.188C67.9879 21.9373 67.6706 20.976 67.0359 20.304C66.4199 19.632 65.6546 19.296 64.7399 19.296C63.8066 19.296 63.0319 19.632 62.4159 20.304C61.7999 20.9573 61.4919 21.9187 61.4919 23.188C61.4919 24.4387 61.7906 25.4 62.3879 26.072C63.0039 26.744 63.7693 27.08 64.6839 27.08ZM82.4281 26.52L85.8161 15.376H90.9121L85.3681 31H79.4601L73.9161 15.376H79.0401L82.4281 26.52ZM114.821 15.376L105.021 38.42H99.869L103.453 30.468L97.097 15.376H102.445L106.057 25.148L109.641 15.376H114.821ZM131.98 15.376V31H127.192V28.872C126.707 29.5627 126.044 30.1227 125.204 30.552C124.383 30.9627 123.468 31.168 122.46 31.168C121.266 31.168 120.211 30.9067 119.296 30.384C118.382 29.8427 117.672 29.068 117.168 28.06C116.664 27.052 116.412 25.8667 116.412 24.504V15.376H121.172V23.86C121.172 24.9053 121.443 25.7173 121.984 26.296C122.526 26.8747 123.254 27.164 124.168 27.164C125.102 27.164 125.839 26.8747 126.38 26.296C126.922 25.7173 127.192 24.9053 127.192 23.86V15.376H131.98ZM140.208 17.588C140.656 16.86 141.3 16.272 142.14 15.824C142.98 15.376 143.941 15.152 145.024 15.152C146.312 15.152 147.478 15.4787 148.524 16.132C149.569 16.7853 150.39 17.7187 150.988 18.932C151.604 20.1453 151.912 21.5547 151.912 23.16C151.912 24.7653 151.604 26.184 150.988 27.416C150.39 28.6293 149.569 29.572 148.524 30.244C147.478 30.8973 146.312 31.224 145.024 31.224C143.922 31.224 142.961 31.0093 142.14 30.58C141.318 30.132 140.674 29.544 140.208 28.816V31H135.42V10.28H140.208V17.588ZM147.04 23.16C147.04 21.9653 146.704 21.032 146.032 20.36C145.378 19.6693 144.566 19.324 143.596 19.324C142.644 19.324 141.832 19.6693 141.16 20.36C140.506 21.0507 140.18 21.9933 140.18 23.188C140.18 24.3827 140.506 25.3253 141.16 26.016C141.832 26.7067 142.644 27.052 143.596 27.052C144.548 27.052 145.36 26.7067 146.032 26.016C146.704 25.3067 147.04 24.3547 147.04 23.16ZM161.536 31.224C160.005 31.224 158.624 30.8973 157.392 30.244C156.178 29.5907 155.217 28.6573 154.508 27.444C153.817 26.2307 153.472 24.812 153.472 23.188C153.472 21.5827 153.826 20.1733 154.535 18.96C155.245 17.728 156.216 16.7853 157.448 16.132C158.68 15.4787 160.061 15.152 161.592 15.152C163.122 15.152 164.504 15.4787 165.736 16.132C166.968 16.7853 167.938 17.728 168.648 18.96C169.357 20.1733 169.712 21.5827 169.712 23.188C169.712 24.7933 169.348 26.212 168.62 27.444C167.91 28.6573 166.93 29.5907 165.68 30.244C164.448 30.8973 163.066 31.224 161.536 31.224ZM161.536 27.08C162.45 27.08 163.225 26.744 163.86 26.072C164.513 25.4 164.84 24.4387 164.84 23.188C164.84 21.9373 164.522 20.976 163.888 20.304C163.272 19.632 162.506 19.296 161.592 19.296C160.658 19.296 159.884 19.632 159.268 20.304C158.652 20.9573 158.344 21.9187 158.344 23.188C158.344 24.4387 158.642 25.4 159.24 26.072C159.856 26.744 160.621 27.08 161.536 27.08ZM177.04 17.98C177.6 17.1213 178.3 16.4493 179.14 15.964C179.98 15.46 180.913 15.208 181.94 15.208V20.276H180.624C179.429 20.276 178.533 20.5373 177.936 21.06C177.338 21.564 177.04 22.46 177.04 23.748V31H172.252V15.376H177.04V17.98ZM186.636 13.752C185.796 13.752 185.106 13.5093 184.564 13.024C184.042 12.52 183.78 11.904 183.78 11.176C183.78 10.4293 184.042 9.81333 184.564 9.328C185.106 8.824 185.796 8.572 186.636 8.572C187.458 8.572 188.13 8.824 188.652 9.328C189.194 9.81333 189.464 10.4293 189.464 11.176C189.464 11.904 189.194 12.52 188.652 13.024C188.13 13.5093 187.458 13.752 186.636 13.752ZM189.016 15.376V31H184.228V15.376H189.016ZM198.842 31.224C197.479 31.224 196.266 30.9907 195.202 30.524C194.138 30.0573 193.298 29.4227 192.682 28.62C192.066 27.7987 191.721 26.884 191.646 25.876H196.378C196.434 26.4173 196.686 26.856 197.134 27.192C197.582 27.528 198.133 27.696 198.786 27.696C199.383 27.696 199.841 27.584 200.158 27.36C200.494 27.1173 200.662 26.8093 200.662 26.436C200.662 25.988 200.429 25.6613 199.962 25.456C199.495 25.232 198.739 24.9893 197.694 24.728C196.574 24.4667 195.641 24.196 194.894 23.916C194.147 23.6173 193.503 23.16 192.962 22.544C192.421 21.9093 192.15 21.06 192.15 19.996C192.15 19.1 192.393 18.288 192.878 17.56C193.382 16.8133 194.11 16.2253 195.062 15.796C196.033 15.3667 197.181 15.152 198.506 15.152C200.466 15.152 202.006 15.6373 203.126 16.608C204.265 17.5787 204.918 18.8667 205.086 20.472H200.662C200.587 19.9307 200.345 19.5013 199.934 19.184C199.542 18.8667 199.019 18.708 198.366 18.708C197.806 18.708 197.377 18.82 197.078 19.044C196.779 19.2493 196.63 19.5387 196.63 19.912C196.63 20.36 196.863 20.696 197.33 20.92C197.815 21.144 198.562 21.368 199.57 21.592C200.727 21.8907 201.67 22.1893 202.398 22.488C203.126 22.768 203.761 23.2347 204.302 23.888C204.862 24.5227 205.151 25.3813 205.17 26.464C205.17 27.3787 204.909 28.2 204.386 28.928C203.882 29.6373 203.145 30.1973 202.174 30.608C201.222 31.0187 200.111 31.224 198.842 31.224ZM217.703 15.208C219.495 15.208 220.933 15.8053 222.015 17C223.098 18.176 223.639 19.8 223.639 21.872V31H218.879V22.516C218.879 21.4707 218.609 20.6587 218.067 20.08C217.526 19.5013 216.798 19.212 215.883 19.212C214.969 19.212 214.241 19.5013 213.699 20.08C213.158 20.6587 212.887 21.4707 212.887 22.516V31H208.099V10.28H212.887V17.476C213.373 16.7853 214.035 16.2347 214.875 15.824C215.715 15.4133 216.658 15.208 217.703 15.208Z" fill="white"/>
<rect y="50" width="112" height="8" rx="4" fill="#39965F"/>
</svg>
